<?xml version="1.0" encoding="utf-8"?>
<!-- Generator: Adobe Illustrator 25.4.1, SVG Export Plug-In . SVG Version: 6.00 Build 0)  -->
<svg version="1.1" id="Слой_1" xmlns="http://www.w3.org/2000/svg" xmlns:xlink="http://www.w3.org/1999/xlink" x="0px" y="0px"
	 viewBox="0 0 80 80" style="enable-background:new 0 0 80 80;" xml:space="preserve">
<style type="text/css">
	.st0{fill:url(#SVGID_1_);}
	.st1{fill:#FFFFFF;}
</style>
<linearGradient id="SVGID_1_" gradientUnits="userSpaceOnUse" x1="63.5141" y1="-0.7092" x2="16.2057" y2="81.2314">
	<stop  offset="5.381067e-07" style="stop-color:#AAEFFF"/>
	<stop  offset="1" style="stop-color:#1545FF"/>
</linearGradient>
<path class="st0" d="M67,77.5H12.7c-6,0-10.8-4.9-10.8-10.8V13.8C1.9,7.9,6.7,3,12.7,3H67c6,0,10.8,4.9,10.8,10.8v52.9
	C77.9,72.7,73,77.5,67,77.5z"/>
<path class="st1" d="M65.5,57.1C61.2,67,51.2,73.4,39.9,73.4C28.4,73.4,18.3,67,14.2,57c-0.2-0.4-0.1-0.9,0.1-1.3
	c0.3-0.4,0.7-0.6,1.2-0.6l48.6,0.1c0.5,0,0.9,0.2,1.2,0.6C65.6,56.1,65.7,56.7,65.5,57.1z"/>
<path class="st1" d="M77.9,25.1L65.6,31c0,0.1,0,0.2,0,0.4c0,6.4-5.2,11.6-11.6,11.6c-6.2,0-11.3-5-11.6-11.1h-5.3
	c-0.2,6.2-5.3,11.2-11.5,11.2c-6.4,0-11.6-5.2-11.6-11.6c0-0.1,0-0.2,0-0.3L1.9,25.5v-3.2l12.6,5.8c1.4-4.8,5.8-8.3,11.1-8.3
	c5.5,0,10.1,3.9,11.3,9.1h5.9c1.1-5.2,5.8-9.1,11.3-9.1c5.2,0,9.6,3.5,11.1,8.2l12.8-6.2V25.1z"/>
<g>
</g>
<g>
</g>
<g>
</g>
<g>
</g>
<g>
</g>
</svg>
