<?xml version="1.0" encoding="utf-8"?>
<!-- Generator: Adobe Illustrator 25.4.1, SVG Export Plug-In . SVG Version: 6.00 Build 0)  -->
<svg version="1.1" id="Слой_1" xmlns="http://www.w3.org/2000/svg" xmlns:xlink="http://www.w3.org/1999/xlink" x="0px" y="0px"
	 viewBox="0 0 80 80" enable-background="new 0 0 80 80" xml:space="preserve">
<linearGradient id="SVGID_1_" gradientUnits="userSpaceOnUse" x1="63.5141" y1="-0.7092" x2="16.2057" y2="81.2314">
	<stop  offset="4.262232e-07" style="stop-color:#D9E021"/>
	<stop  offset="0.5056" style="stop-color:#FCEE21"/>
	<stop  offset="1" style="stop-color:#FBB03B"/>
</linearGradient>
<path fill="url(#SVGID_1_)" d="M67,77.5H12.7c-6,0-10.8-4.9-10.8-10.8V13.8C1.9,7.9,6.7,3,12.7,3H67c6,0,10.8,4.9,10.8,10.8v52.9
	C77.9,72.7,73,77.5,67,77.5z"/>
<circle fill="#FFFFFF" cx="25.3" cy="24.4" r="6.7"/>
<path fill="#FFFFFF" d="M67.8,50.1c-4.6,10.7-15.5,17.7-27.7,17.7c-12.5,0-23.4-7-27.9-17.8c-0.2-0.5-0.2-1,0.1-1.5
	c0.3-0.4,0.8-0.7,1.3-0.7l33.7,0v7.2h7.3l0-7.2l11.7,0c0.5,0,1,0.3,1.3,0.7C67.9,49.1,68,49.7,67.8,50.1z"/>
<path fill="#FFFFFF" d="M62.5,24.4c0,3.7-3,6.7-6.7,6.7c-3.7,0-6.7-3-6.7-6.7c0-3.7,3-6.7,6.7-6.7C59.5,17.7,62.5,20.7,62.5,24.4z"
	/>
<g>
</g>
<g>
</g>
<g>
</g>
<g>
</g>
<g>
</g>
</svg>
