<?xml version="1.0" encoding="utf-8"?>
<!-- Generator: Adobe Illustrator 25.4.1, SVG Export Plug-In . SVG Version: 6.00 Build 0)  -->
<svg version="1.1" id="Слой_1" xmlns="http://www.w3.org/2000/svg" xmlns:xlink="http://www.w3.org/1999/xlink" x="0px" y="0px"
	 viewBox="0 0 80 80" enable-background="new 0 0 80 80" xml:space="preserve">
<linearGradient id="SVGID_1_" gradientUnits="userSpaceOnUse" x1="63.5141" y1="-0.7092" x2="16.2057" y2="81.2314">
	<stop  offset="0" style="stop-color:#84C5FF"/>
	<stop  offset="0.5056" style="stop-color:#8451FF"/>
	<stop  offset="1" style="stop-color:#8400FF"/>
</linearGradient>
<path fill="url(#SVGID_1_)" d="M67,77.5H12.7c-6,0-10.8-4.9-10.8-10.8V13.8C1.9,7.9,6.7,3,12.7,3H67c6,0,10.8,4.9,10.8,10.8v52.9
	C77.9,72.7,73,77.5,67,77.5z"/>
<circle fill="#FFFFFF" cx="26.1" cy="24.4" r="6.7"/>
<path fill="#FFFFFF" d="M64.7,43.6c-0.8,0-1.7,0.1-2.8,0.4c-7.8,3.4-15.1,4.5-21.3,4.5c-12.5,0-20.7-4.5-20.7-4.5
	c-1-0.3-2-0.4-2.8-0.4h-0.2l0,0c-6.9,0.2-4.3,10-4.3,10c5.2,15.9,22.4,17,27.1,17c0.8,0,1.2,0,1.2,0s0.4,0,1.2,0
	c4.7,0,21.9-1.1,27.1-17C69.2,53.6,71.8,43.6,64.7,43.6z M18.8,57.4c-0.9-1.3-1.6-2.8-2.2-4.5c-0.4-1.6-0.5-4.4,0.2-5.3
	c0.1-0.1,0.3-0.3,1-0.3c0.3,0,0.6,0,1,0.1V57.4z M29,65.1c-2-0.7-4-1.7-5.8-3.1V48.9c1.5,0.6,3.5,1.2,5.8,1.7V65.1z M39.4,66.9
	c-1.4,0-3.6-0.1-6.1-0.6V51.4c1.9,0.3,3.9,0.4,6.1,0.5V66.9z M49.2,66.1c-2.1,0.5-4,0.7-5.4,0.7V51.8c1.8-0.1,3.6-0.3,5.4-0.6V66.1z
	 M58.9,61.7c-1.7,1.3-3.5,2.3-5.4,3.1V50.3c1.8-0.5,3.6-1,5.4-1.6V61.7z M65.1,52.9c-0.5,1.5-1.1,2.8-1.8,4v-9.6c0.2,0,0.3,0,0.5,0
	c0.9,0,1,0.3,1.1,0.3C65.6,48.5,65.5,51.3,65.1,52.9z"/>
<circle fill="#FFFFFF" cx="56.7" cy="24.4" r="6.7"/>
<g>
</g>
<g>
</g>
<g>
</g>
<g>
</g>
<g>
</g>
</svg>
