<?xml version="1.0" encoding="utf-8"?>
<!-- Generator: Adobe Illustrator 25.4.1, SVG Export Plug-In . SVG Version: 6.00 Build 0)  -->
<svg version="1.1" id="Слой_1" xmlns="http://www.w3.org/2000/svg" xmlns:xlink="http://www.w3.org/1999/xlink" x="0px" y="0px"
	 viewBox="0 0 80 80" enable-background="new 0 0 80 80" xml:space="preserve">
<linearGradient id="SVGID_1_" gradientUnits="userSpaceOnUse" x1="63.5141" y1="-0.7092" x2="16.2057" y2="81.2314">
	<stop  offset="4.635177e-07" style="stop-color:#DA2AFF"/>
	<stop  offset="9.793425e-02" style="stop-color:#CF29FC"/>
	<stop  offset="0.2717" style="stop-color:#B125F3"/>
	<stop  offset="0.5012" style="stop-color:#8020E4"/>
	<stop  offset="0.774" style="stop-color:#3D18D1"/>
	<stop  offset="1" style="stop-color:#0011BF"/>
</linearGradient>
<path fill="url(#SVGID_1_)" d="M67,77.5H12.7c-6,0-10.8-4.9-10.8-10.8V13.8C1.9,7.9,6.7,3,12.7,3H67c6,0,10.8,4.9,10.8,10.8v52.9
	C77.9,72.7,73,77.5,67,77.5z"/>
<path fill="#FFFFFF" d="M63.5,27.8c0,1.5-0.5,3-1.3,4.1c-1.3-1.8-3.4-3-5.7-3c-2.3,0-4.4,1.1-5.6,2.9c-0.8-1.1-1.3-2.5-1.3-4
	c0-3.9,3.1-7,7-7C60.4,20.8,63.5,23.9,63.5,27.8z"/>
<path fill="#FFFFFF" d="M66,54.2c-4.3,10-14.5,16.5-25.8,16.5c-11.6,0-21.8-6.5-26-16.6c-0.7-1.7,0.1-3.7,1.8-4.4
	c0.4-0.2,0.9-0.3,1.3-0.3c1.3,0,2.6,0.8,3.1,2.1C23.6,59.1,31.3,64,40.2,64c8.7,0,16.4-4.9,19.6-12.4c0.7-1.7,2.7-2.5,4.4-1.8
	C66,50.5,66.8,52.5,66,54.2z"/>
<path fill="#FFFFFF" d="M69.2,17.3c0.1,1.2-0.9,2.3-2.1,2.4c-0.1,0-0.6,0-1.3,0c-3.3,0-11.9-0.6-16.1-6.3c-0.7-1-0.5-2.4,0.5-3.1
	c1-0.7,2.4-0.5,3.1,0.5c3.7,5,13.3,4.5,13.4,4.5C68.1,15.1,69.1,16,69.2,17.3z"/>
<path fill="#FFFFFF" d="M31.6,13.4c-4.2,5.8-12.9,6.3-16.1,6.3c-0.7,0-1.2,0-1.3,0c-1.2-0.1-2.2-1.2-2.1-2.4
	c0.1-1.2,1.1-2.2,2.4-2.1c0.1,0,9.8,0.6,13.4-4.5c0.7-1,2.1-1.2,3.2-0.5C32.1,11,32.3,12.4,31.6,13.4z"/>
<path fill="#FFFFFF" d="M31.8,27.8c0,1.5-0.5,2.9-1.3,4c-1.3-1.7-3.3-2.9-5.6-2.9c-2.4,0-4.5,1.2-5.7,3c-0.8-1.2-1.3-2.6-1.3-4.1
	c0-3.9,3.1-7,7-7S31.8,24,31.8,27.8z"/>
<g>
</g>
<g>
</g>
<g>
</g>
<g>
</g>
<g>
</g>
</svg>
