<?xml version="1.0" encoding="utf-8"?>
<!-- Generator: Adobe Illustrator 25.4.1, SVG Export Plug-In . SVG Version: 6.00 Build 0)  -->
<svg version="1.1" id="Слой_1" xmlns="http://www.w3.org/2000/svg" xmlns:xlink="http://www.w3.org/1999/xlink" x="0px" y="0px"
	 viewBox="0 0 800 800" style="enable-background:new 0 0 800 800;" xml:space="preserve">
<style type="text/css">
	.st0{fill-rule:evenodd;clip-rule:evenodd;fill:#FFFFFF;}
</style>
<path class="st0" d="M50,400c0-75,125-250,350-250s350,175,350,250S625,650,400,650S50,475,50,400z M400,558.3
	c87.4,0,158.3-70.9,158.3-158.3S487.4,241.7,400,241.7S241.7,312.6,241.7,400S312.6,558.3,400,558.3z M490,400c0,49.7-40.3,90-90,90
	c-49.7,0-90-40.3-90-90c0-49.7,40.3-90,90-90C449.7,310.1,490,350.3,490,400L490,400z"/>
</svg>
