<?xml version="1.0" encoding="utf-8"?>
<!-- Generator: Adobe Illustrator 25.4.1, SVG Export Plug-In . SVG Version: 6.00 Build 0)  -->
<svg version="1.1" id="Слой_1" xmlns="http://www.w3.org/2000/svg" xmlns:xlink="http://www.w3.org/1999/xlink" x="0px" y="0px"
	 viewBox="0 0 800 800" style="enable-background:new 0 0 800 800;" xml:space="preserve">
<style type="text/css">
	.st0{fill-rule:evenodd;clip-rule:evenodd;fill:#FFFFFF;}
</style>
<path class="st0" d="M44.2,400c0-75,125-250,350-250s350,175,350,250s-125,250-350,250S44.2,475,44.2,400z M394.2,558.3
	c87.4,0,158.3-70.9,158.3-158.3s-70.9-158.3-158.3-158.3S235.9,312.6,235.9,400S306.8,558.3,394.2,558.3z M484.2,400
	c0,49.7-40.3,90-90,90s-90-40.3-90-90s40.3-90,90-90C443.9,310.1,484.2,350.3,484.2,400L484.2,400z"/>
<rect x="332" y="53" transform="matrix(0.7071 -0.7071 0.7071 0.7071 -164.6897 388.4038)" class="st0" width="109" height="680"/>
</svg>
