<?xml version="1.0" encoding="utf-8"?>
<!-- Generator: Adobe Illustrator 25.4.1, SVG Export Plug-In . SVG Version: 6.00 Build 0)  -->
<svg version="1.1" id="Слой_1" xmlns="http://www.w3.org/2000/svg" xmlns:xlink="http://www.w3.org/1999/xlink" x="0px" y="0px"
	 viewBox="0 0 256 256" style="enable-background:new 0 0 256 256;" xml:space="preserve">
<style type="text/css">
	.st0{fill:none;stroke:#1D1D1B;stroke-width:1.552;stroke-miterlimit:10;}
	.st1{fill:#E41A36;stroke:#94145A;stroke-width:1.552;stroke-miterlimit:10;}
	.st2{fill:none;stroke:#94145A;stroke-width:1.552;stroke-miterlimit:10;}
	.st3{fill:#FFFFFF;}
</style>
<path class="st0" d="M458.7-22.6C458.7-22.6,458.7-22.6,458.7-22.6"/>
<path class="st1" d="M223.5,177.4c-31,47.9-81.8,62.9-97.9,66.9c-16.2-4.1-67-19-98-66.9C-4.9,127.2-11.7,46.9,23.3,27
	C47.2,13.4,88.2,29,125.5,61.6C162.8,29,203.9,13.4,227.8,27C262.7,46.9,255.9,127.2,223.5,177.4z"/>
<path class="st2" d="M125.5,61.6c-3.4,3-6.9,6.2-10.2,9.5L125.5,61.6z"/>
<path class="st0" d="M458.6-22.6C458.6-22.6,458.6-22.6,458.6-22.6"/>
<g id="Слой_5">
</g>
<g id="Слой_3">
</g>
<g id="Слой_4">
</g>
<g>
	<path class="st3" d="M122.4,100.8H92.7v34.3H112v7.7H92.7v42.4H78.8V93h43.7V100.8z"/>
	<path class="st3" d="M185.2,163.9c0,7.4-0.9,12.6-2.8,15.6c-2.4,3.8-7.1,5.7-14.1,5.7h-21.9c-7.2,0-11.9-1.9-14.4-5.7
		c-1.9-2.9-2.8-8.1-2.8-15.6v-49.9c0-7.5,0.9-12.7,2.8-15.6c2.4-3.8,7.2-5.7,14.4-5.7h28.2v7.7h-22.5c-3.8,0-6.4,1.7-7.7,5
		c-0.8,2-1.3,5.3-1.3,9.8v47.6c0,4.6,0.4,7.9,1.3,9.9c1.3,3.3,3.9,5,7.7,5h10.5c5.8,0,8.6-4.1,8.6-12.4v-17c0-6.9-1.9-10.3-5.7-10.3
		h-15.2v-7.7h21.8c4.6,0,8,1.9,10.3,5.6c1.9,3.1,2.8,7,2.8,11.9V163.9z"/>
</g>
</svg>
