<?xml version="1.0" encoding="utf-8"?>
<!-- Generator: Adobe Illustrator 25.4.1, SVG Export Plug-In . SVG Version: 6.00 Build 0)  -->
<svg version="1.1" id="Слой_1" xmlns="http://www.w3.org/2000/svg" xmlns:xlink="http://www.w3.org/1999/xlink" x="0px" y="0px"
	 viewBox="0 0 256 256" style="enable-background:new 0 0 256 256;" xml:space="preserve">
<style type="text/css">
	.st0{fill:url(#SVGID_1_);}
	.st1{opacity:0.93;fill:#030303;}
	.st2{fill:#FFFFFF;}
</style>
<g id="Слой_5">
</g>
<g id="Слой_3">
</g>
<g id="Слой_4">
</g>
<linearGradient id="SVGID_1_" gradientUnits="userSpaceOnUse" x1="126.3416" y1="10.4973" x2="126.3416" y2="245.7208">
	<stop  offset="1.065558e-08" style="stop-color:#00BF01"/>
	<stop  offset="0.6575" style="stop-color:#000000;stop-opacity:0.93"/>
	<stop  offset="0.7059" style="stop-color:#000000;stop-opacity:0.9399"/>
	<stop  offset="1" style="stop-color:#000000"/>
</linearGradient>
<path class="st0" d="M214.4,245.7H38.3c-16.3,0-29.6-13.2-29.6-29.6V40.1c0-16.3,13.2-29.6,29.6-29.6h176.1
	c16.3,0,29.6,13.2,29.6,29.6v176.1C244,232.5,230.7,245.7,214.4,245.7z"/>
<path class="st1" d="M219.8,230.1H36.2c-4.9,0-8.9-4-8.9-8.9V37.5c0-4.9,4-8.9,8.9-8.9h183.6c4.9,0,8.9,4,8.9,8.9v183.6
	C228.8,226.1,224.8,230.1,219.8,230.1z"/>
<g>
	<path class="st2" d="M114.5,69.8H69.7v51.7h29V133h-29v63.8h-21V58.1h65.7V69.8z"/>
	<path class="st2" d="M209,164.7c0,11.2-1.4,19-4.2,23.5c-3.6,5.7-10.7,8.6-21.2,8.6h-33c-10.8,0-18-2.9-21.6-8.6
		c-2.8-4.3-4.2-12.2-4.2-23.5V89.6c0-11.3,1.4-19.2,4.2-23.5c3.6-5.7,10.8-8.6,21.6-8.6H193V69h-33.8c-5.7,0-9.6,2.5-11.5,7.6
		c-1.3,3.1-1.9,8-1.9,14.7v71.6c0,6.9,0.6,11.8,1.9,14.9c2,5,5.8,7.6,11.5,7.6h15.8c8.7,0,13-6.2,13-18.7V141
		c0-10.4-2.9-15.5-8.6-15.5h-22.9v-11.6h32.8c6.9,0,12,2.8,15.5,8.4c2.8,4.6,4.2,10.6,4.2,17.8V164.7z"/>
</g>
</svg>
