<!-- icon666.com - MILLIONS vector ICONS FREE --><svg viewBox="0 0 64 64" xmlns="http://www.w3.org/2000/svg"><g id="Layer_4" data-name="Layer 4"><path d="m50 3.4h-36a10.62 10.62 0 0 0 -10.6 10.6v36a10.62 10.62 0 0 0 10.6 10.6h36a10.62 10.62 0 0 0 10.6-10.6v-36a10.62 10.62 0 0 0 -10.6-10.6zm.93 45a15.81 15.81 0 0 1 -11.23 4.66h-5.29a3.3 3.3 0 0 1 0-6.59h5.29a9.3 9.3 0 0 0 0-18.6h-18.91l3.36 3.36a3.3 3.3 0 1 1 -4.66 4.66l-10.89-10.89a.58.58 0 0 1 -.18-.43.58.58 0 0 1 .18-.42l10.89-10.89a3.3 3.3 0 1 1 4.66 4.66l-3.36 3.36h18.5a16.61 16.61 0 0 1 11.65 4.88 15.52 15.52 0 0 1 4.64 11.07 15.88 15.88 0 0 1 -4.65 11.18z"></path></g></svg>