<?xml version="1.0" encoding="utf-8"?>
<!-- Generator: Adobe Illustrator 25.4.1, SVG Export Plug-In . SVG Version: 6.00 Build 0)  -->
<svg version="1.1" id="Слой_1" xmlns="http://www.w3.org/2000/svg" xmlns:xlink="http://www.w3.org/1999/xlink" x="0px" y="0px"
	 viewBox="0 0 244 280.7" style="enable-background:new 0 0 244 280.7;" xml:space="preserve">
<style type="text/css">
	.st0{fill:url(#SVGID_1_);}
	.st1{fill:none;stroke:#00E948;stroke-width:20;stroke-linecap:square;stroke-linejoin:bevel;stroke-miterlimit:8;}
	.st2{fill:none;stroke:#00E948;stroke-width:20;stroke-linecap:square;stroke-linejoin:bevel;stroke-miterlimit:10;}
	.st3{fill:none;stroke:#00E948;stroke-width:15;stroke-linecap:square;stroke-linejoin:bevel;stroke-miterlimit:10;}
	.st4{fill:none;stroke:#00E948;stroke-width:15;stroke-linecap:square;stroke-linejoin:bevel;stroke-miterlimit:8;}
</style>
<linearGradient id="SVGID_1_" gradientUnits="userSpaceOnUse" x1="180.4143" y1="37.9223" x2="63.3751" y2="240.6401">
	<stop  offset="2.877006e-07" style="stop-color:#2222F4"/>
	<stop  offset="5.066979e-03" style="stop-color:#2322F3"/>
	<stop  offset="0.2946" style="stop-color:#4725D5"/>
	<stop  offset="0.5657" style="stop-color:#6127BE"/>
	<stop  offset="0.8088" style="stop-color:#7029B1"/>
	<stop  offset="1" style="stop-color:#7629AC"/>
</linearGradient>
<polygon class="st0" points="238.9,206.9 238.9,71.7 121.9,4.1 4.9,71.7 4.9,206.9 121.9,274.4 "/>
<g id="Слой_5">
</g>
<g id="Слой_3">
</g>
<g id="Слой_4">
</g>
<g>
	<g>
		<g>
			<path class="st1" d="M116,236.6V17.6c33.1,18.8,66.1,37.6,99.2,56.4"/>
			<line class="st2" x1="174" y1="127.1" x2="54.2" y2="127.1"/>
		</g>
	</g>
</g>
<g>
	<g>
		<g>
			<line class="st3" x1="215.2" y1="199.1" x2="215.2" y2="170.5"/>
		</g>
	</g>
</g>
<g>
	<g>
		<g>
			<path class="st4" d="M189.8,172.4c-4.2,8.1-8.4,16.3-12.9,24.2c-1.3,2.3-2.7,4.6-4,6.9c-0.8-1.4-1.7-2.7-2.5-4.1
				c0.9,1.4,1.7,2.7,2.5,4.1c-6.9-10.2-12.2-20.6-19-30.7"/>
		</g>
	</g>
</g>
</svg>
