<?xml version="1.0" encoding="utf-8"?>
<!-- Generator: Adobe Illustrator 25.4.1, SVG Export Plug-In . SVG Version: 6.00 Build 0)  -->
<svg version="1.1" id="Слой_1" xmlns="http://www.w3.org/2000/svg" xmlns:xlink="http://www.w3.org/1999/xlink" x="0px" y="0px"
	 viewBox="0 0 244 240.4" style="enable-background:new 0 0 244 240.4;" xml:space="preserve">
<style type="text/css">
	.st0{fill:url(#SVGID_1_);}
	.st1{fill:#FDFDFD;}
	.st2{fill:none;stroke:#FDFDFD;stroke-width:11;stroke-linejoin:bevel;stroke-miterlimit:10;}
	.st3{fill:#FFFFFF;}
</style>
<g id="Слой_5">
</g>
<g id="Слой_3">
</g>
<g id="Слой_4">
</g>
<g>
	<g>
		<linearGradient id="SVGID_1_" gradientUnits="userSpaceOnUse" x1="181.939" y1="16.3408" x2="62.0351" y2="224.0204">
			<stop  offset="2.877006e-07" style="stop-color:#2222F4"/>
			<stop  offset="5.066979e-03" style="stop-color:#2322F3"/>
			<stop  offset="0.2946" style="stop-color:#4725D5"/>
			<stop  offset="0.5657" style="stop-color:#6127BE"/>
			<stop  offset="0.8088" style="stop-color:#7029B1"/>
			<stop  offset="1" style="stop-color:#7629AC"/>
		</linearGradient>
		<path class="st0" d="M139.5,238.9c-3.4,0-6.1-1.9-7.2-5.2c-0.3-9-0.6-27-1-49.6c-1.1-61.8-2.8-154.1-5.7-170.3
			c3.2-1.1,5.6-3.6,6.6-6.9c1.1-3.4,3.8-5.4,7.3-5.4c2.2,0,4.3,0.8,5.7,2.3c1.4,1.4,2.1,3.3,2.1,5.5c0,2.9,1.1,5.6,3,7.6
			c2,2,4.9,3.2,7.8,3.2c3.4,0,6.6-1.6,8.6-4.5c1.5-2.1,3.7-3.3,6.1-3.3c2.6,0,5.1,1.3,6.6,3.4c1.4,1.9,1.7,4.4,0.9,6.8
			c-1.1,3.3-0.6,6.8,1.4,9.6c2.1,2.8,5.3,4.5,8.8,4.5c2.2,0,4.4-0.7,6.3-2.1c1.4-1,3-1.6,4.6-1.6c2.9,0,5.6,1.8,7,4.5
			c1.3,2.6,1,5.5-0.8,7.9c-2.4,3.3-2.8,7.5-0.9,11.1c1.9,3.7,5.5,6,9.5,6c1.2,0,2.3-0.2,3.5-0.6c0.9-0.3,1.8-0.4,2.6-0.4
			c3.7,0,6.3,2.8,7.2,5.5c1.1,3.3,0,6.5-2.9,8.5c-3.8,2.8-5.4,7.5-3.9,12c1.5,4.5,5.5,7.4,10.2,7.4c4.6,0,7.2,3.3,7.7,6.5
			c0.5,3-0.6,7.1-5.3,8.6c-4.5,1.5-7.5,5.5-7.5,10.2c0,4.8,2.9,8.8,7.5,10.2c4.6,1.5,5.7,5.5,5.3,8.5c-0.5,3.3-3.1,6.5-7.6,6.5
			c-4.8,0-8.8,2.9-10.3,7.4c-1.5,4.5,0.1,9.2,3.9,12c2.9,2.1,3.9,5.3,2.9,8.5c-0.9,2.7-3.4,5.5-7.2,5.5c-0.9,0-1.7-0.1-2.6-0.4
			c-1.1-0.4-2.3-0.6-3.5-0.6c-4,0-7.6,2.3-9.5,6c-1.8,3.6-1.5,7.8,0.9,11.1c1.8,2.5,2.1,5.3,0.8,7.9c-1.4,2.7-4.1,4.5-7,4.5
			c-1.6,0-3.1-0.5-4.6-1.6c-1.9-1.4-4.1-2.1-6.3-2.1c-3.4,0-6.7,1.7-8.8,4.5c-2,2.8-2.5,6.3-1.4,9.6c0.8,2.5,0.5,4.9-0.9,6.8
			c-1.5,2.1-4,3.4-6.6,3.4c-2.4,0-4.6-1.2-6.1-3.3c-2-2.8-5.2-4.5-8.6-4.5c-2.9,0-5.7,1.2-7.8,3.2c-2,2-3.1,4.7-3,7.6
			c0,2.2-0.7,4.1-2.1,5.5C143.7,238,141.6,238.9,139.5,238.9z M104.5,238.9c-2.2,0-4.3-0.8-5.7-2.3c-1.4-1.4-2.1-3.3-2.1-5.5
			c0-2.9-1.1-5.6-3-7.6c-2-2-4.9-3.2-7.8-3.2c-3.4,0-6.6,1.6-8.6,4.5c-1.5,2.1-3.7,3.3-6.1,3.3c-2.6,0-5.1-1.3-6.6-3.4
			c-1.4-2-1.7-4.4-0.9-6.8c1.1-3.3,0.6-6.8-1.4-9.6c-2.1-2.8-5.3-4.5-8.8-4.5c-2.2,0-4.4,0.7-6.3,2.1c-1.4,1-3,1.6-4.6,1.6
			c-2.9,0-5.6-1.7-7-4.5c-1.3-2.6-1-5.5,0.8-7.9c2.4-3.3,2.8-7.5,0.9-11.1c-1.9-3.7-5.5-6-9.5-6c-1.2,0-2.3,0.2-3.5,0.6
			c-0.9,0.3-1.8,0.4-2.6,0.4c-3.7,0-6.3-2.8-7.2-5.5c-1.1-3.3,0-6.5,2.9-8.5c3.8-2.8,5.4-7.5,3.9-12c-1.5-4.5-5.5-7.4-10.2-7.4
			c-4.6,0-7.2-3.3-7.7-6.5c-0.5-3,0.6-7.1,5.3-8.6c4.5-1.5,7.5-5.5,7.5-10.2s-2.9-8.8-7.5-10.2c-4.6-1.5-5.7-5.5-5.3-8.6
			c0.5-3.3,3.1-6.5,7.6-6.5c4.8,0,8.8-2.9,10.3-7.4c1.5-4.5-0.1-9.2-3.9-12c-2.9-2.1-3.9-5.3-2.9-8.5c0.9-2.7,3.4-5.5,7.2-5.5
			c0.9,0,1.7,0.1,2.6,0.4c1.1,0.4,2.3,0.6,3.5,0.6c4,0,7.6-2.3,9.5-6c1.8-3.6,1.5-7.8-0.9-11.1c-1.8-2.5-2.1-5.3-0.8-7.9
			c1.4-2.7,4.1-4.5,7-4.5c1.6,0,3.1,0.5,4.6,1.6c1.9,1.4,4.1,2.1,6.3,2.1c3.4,0,6.7-1.7,8.8-4.5c2-2.8,2.5-6.3,1.4-9.6
			c-0.8-2.5-0.5-4.9,0.9-6.8c1.5-2.1,4-3.4,6.6-3.4c2.4,0,4.6,1.2,6.1,3.3c2,2.8,5.2,4.5,8.6,4.5c2.9,0,5.7-1.2,7.8-3.2
			c2-2,3.1-4.7,3-7.6c0-2.2,0.7-4.1,2.1-5.5c1.5-1.5,3.5-2.3,5.7-2.3c3.5,0,6.2,2,7.3,5.4c1.3,4.1,4.8,6.9,9,7.4
			c-2.7,15.1-5.6,87.1-9.1,219.4C110.6,236.9,107.9,238.9,104.5,238.9z"/>
		<path class="st1" d="M104.5,0v3c1,0,4.5,0.3,5.8,4.3c1.3,4.2,4.6,7.2,8.7,8.2c-2.6,18.2-5.5,89.8-8.9,217.9c-1.4,3.7-4.7,4-5.7,4
			c-1.8,0-3.5-0.7-4.6-1.9c-1.1-1.1-1.7-2.6-1.7-4.4c0-3.3-1.2-6.4-3.5-8.6c-2.3-2.3-5.5-3.7-8.8-3.7c-3.9,0-7.5,1.9-9.8,5.1
			c-1.6,2.2-3.5,2.6-4.9,2.6c-2.1,0-4.1-1-5.4-2.7c-0.8-1.1-1.6-2.9-0.7-5.5c1.2-3.8,0.6-7.8-1.6-10.9c-2.3-3.2-6.1-5.2-10-5.2
			c-2.6,0-5,0.8-7.2,2.4c-1.2,0.9-2.4,1.3-3.7,1.3c-2.3,0-4.6-1.5-5.7-3.6c-0.6-1.2-1.3-3.6,0.6-6.4c2.8-3.8,3.2-8.5,1.1-12.7
			c-2.1-4.2-6.3-6.8-10.8-6.8c-1.3,0-2.6,0.2-3.9,0.6c-0.7,0.2-1.5,0.4-2.2,0.4c-3,0-5-2.2-5.8-4.5c-0.3-1-1.1-4.4,2.3-6.9
			c4.4-3.2,6.1-8.5,4.5-13.7c-1.7-5.1-6.2-8.5-11.6-8.5l-0.1,0c-3.9,0-5.8-2.8-6.1-5.3c-0.4-2.4,0.5-5.7,4.3-6.9
			c5.2-1.7,8.5-6.2,8.5-11.6c0-5.4-3.3-10-8.5-11.6c-3.7-1.2-4.6-4.5-4.3-6.9c0.4-2.4,2.2-5.3,6.2-5.3l0.1,0c5.4,0,10-3.3,11.6-8.5
			c1.7-5.1-0.1-10.5-4.5-13.7c-3.4-2.5-2.6-5.9-2.3-6.9c0.7-2.2,2.8-4.5,5.8-4.5c0.7,0,1.4,0.1,2.2,0.4c1.3,0.4,2.6,0.6,3.9,0.6
			c4.6,0,8.7-2.6,10.8-6.8c2.1-4.2,1.7-8.9-1.1-12.7c-2-2.7-1.2-5.1-0.6-6.4c1.1-2.2,3.4-3.6,5.7-3.6c1.3,0,2.5,0.4,3.7,1.3
			c2.1,1.6,4.6,2.4,7.2,2.4c3.9,0,7.7-1.9,10-5.2c2.3-3.2,2.9-7.1,1.6-10.9c-0.8-2.6-0.1-4.4,0.7-5.5c1.2-1.7,3.3-2.7,5.4-2.7
			c1.4,0,3.3,0.5,4.9,2.6c2.3,3.2,5.9,5.1,9.8,5.1c3.3,0,6.5-1.3,8.8-3.7c2.3-2.3,3.5-5.3,3.5-8.6c0-1.8,0.6-3.3,1.7-4.4
			c1.2-1.2,2.9-1.9,4.6-1.9L104.5,0 M139.5,3c1.8,0,3.5,0.7,4.6,1.9c1.1,1.1,1.7,2.6,1.7,4.4c0,3.3,1.2,6.4,3.5,8.6
			c2.3,2.3,5.5,3.7,8.8,3.7c3.9,0,7.5-1.9,9.8-5.1c1.6-2.2,3.5-2.6,4.9-2.6c2.1,0,4.1,1,5.4,2.7c0.8,1.1,1.6,2.9,0.7,5.5
			c-1.2,3.8-0.6,7.8,1.6,10.9c2.3,3.2,6.1,5.2,10,5.2c2.6,0,5-0.8,7.2-2.4c1.2-0.9,2.4-1.3,3.7-1.3c2.3,0,4.6,1.5,5.7,3.6
			c0.6,1.2,1.3,3.6-0.6,6.4c-2.8,3.8-3.2,8.5-1.1,12.7c2.1,4.2,6.3,6.8,10.8,6.8c1.3,0,2.6-0.2,3.9-0.6c0.7-0.2,1.5-0.4,2.2-0.4
			c3,0,5,2.2,5.8,4.5c0.3,1,1.1,4.4-2.3,6.9c-4.4,3.2-6.1,8.5-4.5,13.7c1.7,5.1,6.2,8.5,11.6,8.5l0.1,0c3.9,0,5.8,2.8,6.1,5.3
			c0.4,2.4-0.5,5.7-4.3,6.9c-5.2,1.7-8.5,6.2-8.5,11.6c0,5.4,3.3,10,8.5,11.6c3.7,1.2,4.6,4.5,4.3,6.9c-0.4,2.4-2.2,5.3-6.2,5.3
			l-0.1,0c-5.4,0-10,3.3-11.6,8.5s0.1,10.5,4.5,13.7c3.4,2.5,2.6,5.9,2.3,6.9c-0.7,2.2-2.8,4.5-5.8,4.5c-0.7,0-1.4-0.1-2.2-0.4
			c-1.3-0.4-2.6-0.6-3.9-0.6c-4.6,0-8.7,2.6-10.8,6.8c-2.1,4.2-1.7,8.9,1.1,12.7c2,2.7,1.2,5.1,0.6,6.4c-1.1,2.2-3.4,3.6-5.7,3.6
			c-1.3,0-2.5-0.4-3.7-1.3c-2.1-1.6-4.6-2.4-7.2-2.4c-3.9,0-7.7,1.9-10,5.2c-2.3,3.2-2.9,7.1-1.6,10.9c0.8,2.6,0.1,4.4-0.7,5.5
			c-1.2,1.7-3.3,2.7-5.4,2.7c-1.4,0-3.3-0.5-4.9-2.6c-2.3-3.2-5.9-5.1-9.8-5.1c-3.3,0-6.5,1.3-8.8,3.7c-2.3,2.3-3.5,5.3-3.5,8.6
			c0,1.8-0.6,3.3-1.7,4.4c-1.2,1.2-2.9,1.9-4.6,1.9c-1,0-4.3-0.3-5.7-4c-0.3-9.1-0.6-26.9-1-49.4c-1.4-79.4-3-151.9-5.5-169.3
			c3-1.4,5.3-4,6.4-7.3C134.9,3.3,138.4,3,139.5,3 M139.5,0c-3.6,0-7.3,2-8.7,6.4l0,0c-1.1,3.6-3.9,5.7-7,6.2
			c4.1,14.3,5.9,187,7,221.3l0,0c1.4,4.4,5,6.4,8.7,6.4c4.7,0,9.4-3.3,9.3-9.3v0c0-5.7,4.6-9.3,9.3-9.3c2.7,0,5.5,1.2,7.4,3.8l0,0
			c2,2.7,4.7,3.9,7.3,3.9c5.7,0,11.2-5.3,8.9-12.2l0,0c-2.1-6.5,3-12.2,8.8-12.2c1.8,0,3.7,0.6,5.4,1.8l0,0c1.8,1.3,3.7,1.9,5.5,1.9
			c6.8,0,12.4-8,7.4-14.8l0,0c-4.7-6.4,0.3-14.7,7.3-14.7c1,0,2,0.2,3,0.5h0c1.1,0.4,2.1,0.5,3.1,0.5c8.2,0,12.8-11.3,5.2-16.8h0
			c-7.3-5.2-3.6-16.7,5.4-16.7c0,0,0,0,0,0h0c0,0,0,0,0,0c10.5,0,12.8-14.8,2.8-18h0c-8.5-2.7-8.5-14.8,0-17.6l0,0
			c10-3.2,7.7-18-2.8-18c0,0,0,0,0,0h0c0,0,0,0,0,0c-8.9,0-12.7-11.5-5.4-16.7l0,0c7.6-5.5,3-16.8-5.2-16.8c-1,0-2,0.2-3.1,0.5l0,0
			c-1,0.3-2,0.5-3,0.5c-7.1,0-12-8.3-7.3-14.7l0,0c4.9-6.7-0.7-14.8-7.4-14.8c-1.8,0-3.7,0.6-5.5,1.9l0,0c-1.7,1.3-3.6,1.8-5.4,1.8
			c-5.8,0-10.9-5.7-8.8-12.2l0,0c2.2-6.8-3.3-12.2-8.9-12.2c-2.7,0-5.4,1.2-7.3,3.9l0,0c-1.9,2.7-4.7,3.8-7.4,3.8
			c-4.7,0-9.3-3.6-9.3-9.3v0C148.8,3.3,144.1,0,139.5,0L139.5,0z M104.5,0c-4.7,0-9.4,3.3-9.3,9.3v0c0,5.7-4.6,9.3-9.3,9.3
			c-2.7,0-5.5-1.2-7.4-3.8l0,0c-2-2.7-4.7-3.9-7.3-3.9c-5.7,0-11.2,5.3-8.9,12.2l0,0c2.1,6.5-3,12.2-8.8,12.2
			c-1.8,0-3.7-0.6-5.4-1.8l0,0c-1.8-1.3-3.7-1.9-5.5-1.9c-6.8,0-12.4,8-7.4,14.8v0c4.7,6.4-0.3,14.7-7.3,14.7c-1,0-2-0.2-3-0.5l0,0
			c-1.1-0.4-2.1-0.5-3.1-0.5c-8.2,0-12.8,11.3-5.2,16.8l0,0c7.3,5.2,3.6,16.7-5.4,16.7c0,0,0,0,0,0h0c0,0,0,0,0,0
			c-10.5,0-12.8,14.8-2.8,18l0,0c8.5,2.7,8.5,14.8,0,17.6h0c-10,3.2-7.7,18,2.8,18c0,0,0,0,0,0h0c0,0,0,0,0,0
			c8.9,0,12.7,11.5,5.4,16.7h0c-7.6,5.5-3,16.8,5.2,16.8c1,0,2-0.2,3.1-0.5h0c1-0.3,2-0.5,3-0.5c7.1,0,12,8.3,7.3,14.7v0
			c-4.9,6.7,0.7,14.8,7.4,14.8c1.8,0,3.7-0.6,5.5-1.9l0,0c1.7-1.3,3.6-1.8,5.4-1.8c5.8,0,10.9,5.7,8.8,12.2l0,0
			c-2.2,6.8,3.3,12.2,8.9,12.2c2.7,0,5.4-1.2,7.3-3.9l0,0c1.9-2.7,4.7-3.8,7.4-3.8c4.7,0,9.3,3.6,9.3,9.3v0c0,5.9,4.7,9.3,9.3,9.3
			c3.6,0,7.3-2,8.7-6.4l0,0c4-153.2,7.1-212.6,9.4-221.1c-0.2,0-0.4,0-0.6,0c-3.7,0-7.4-2.1-8.8-6.4l0,0C111.8,2,108.2,0,104.5,0
			L104.5,0z M123.2,11.7c-0.2,0-0.4,0.4-0.6,1.1c0.4,0,0.8-0.1,1.2-0.1C123.6,12,123.4,11.7,123.2,11.7L123.2,11.7z"/>
	</g>
	<g>
		<g>
			<g>
				<path class="st2" d="M50.9,187.5V65.7C69.3,76.2,87.6,86.6,106,97.1"/>
				<line class="st2" x1="73.1" y1="130.3" x2="28.7" y2="130.3"/>
			</g>
		</g>
	</g>
	<g>
		<path class="st3" d="M196.9,87.7c-2.4-0.1-5.5,0-8.9,0.5c-18.6,3.1-28.5,16.7-30.5,31.2h0.4c4.2-5.5,11.5-10.1,21.2-10.1
			c15.5,0,26.5,11.2,26.5,28.3c0,16.1-10.9,30.9-29.2,30.9c-18.8,0-31-14.6-31-37.4c0-17.3,6.2-30.9,14.8-39.6
			c7.3-7.2,17-11.6,28.1-13c3.5-0.5,6.5-0.7,8.6-0.7V87.7z M193.6,138.3c0-12.6-7.2-20.1-18.1-20.1c-7.2,0-13.8,4.5-17,10.8
			c-0.8,1.3-1.4,3.1-1.4,5.3c0.3,14.4,6.9,25.1,19.3,25.1C186.7,159.4,193.6,150.9,193.6,138.3z"/>
	</g>
</g>
</svg>
