<?xml version="1.0" ?><!DOCTYPE svg  PUBLIC '-//W3C//DTD SVG 20010904//EN'  'http://www.w3.org/TR/2001/REC-SVG-20010904/DTD/svg10.dtd'><svg height="512.000000pt" preserveAspectRatio="xMidYMid meet" version="1.0" viewBox="0 0 512.000000 512.000000" width="512.000000pt" xmlns="http://www.w3.org/2000/svg"><g fill="#000000" stroke="none" transform="translate(0.000000,512.000000) scale(0.100000,-0.100000)"><path d="M2285 4898 c-311 -35 -683 -165 -955 -333 -220 -137 -472 -361 -622 -555 -256 -331 -417 -712 -480 -1135 -20 -136 -17 -512 5 -655 103 -665 471 -1245 1027 -1616 287 -191 623 -320 966 -371 164 -24 504 -24 668 0 411 61 815 237 1136 494 459 368 764 897 857 1485 25 159 25 537 0 696 -83 524 -329 995 -708 1356 -370 352 -861 581 -1361 635 -114 13 -419 12 -533 -1z m238 -763 c191 -13 442 -101 599 -211 104 -73 190 -148 258 -225 240 -272 350 -579 337 -944 -7 -219 -41 -363 -126 -537 -50 -102 -66 -130 -115 -196 l-38 -53 289 -287 289 -287 33 -84 34 -84 -23 -66 c-39 -111 -55 -137 -103 -160 -53 -26 -159 -29 -215 -6 -25 11 -140 119 -349 327 l-312 312 -88 -41 c-179 -82 -291 -114 -473 -133 -408 -43 -793 94 -1084 387 -73 73 -167 190 -209 258 -34 56 -104 210 -127 279 -63 191 -80 480 -40 676 53 260 163 468 354 668 198 207 446 347 697 392 77 14 253 28 294 24 17 -2 70 -6 118 -9z"/><path d="M2160 3775 c-317 -61 -588 -285 -709 -587 -107 -267 -99 -584 22 -823 127 -253 364 -448 634 -521 87 -24 116 -27 258 -27 176 1 248 14 383 71 181 78 372 245 479 421 88 145 123 265 130 451 4 112 1 152 -16 236 -41 198 -124 355 -266 500 -132 134 -273 218 -453 266 -101 27 -351 34 -462 13z m810 -995 l0 -150 -620 0 -620 0 0 150 0 150 620 0 620 0 0 -150z"/></g></svg>