<?xml version="1.0" encoding="utf-8"?>
<!-- Generator: Adobe Illustrator 25.4.1, SVG Export Plug-In . SVG Version: 6.00 Build 0)  -->
<svg version="1.1" id="_x32_" xmlns="http://www.w3.org/2000/svg" xmlns:xlink="http://www.w3.org/1999/xlink" x="0px" y="0px"
	 viewBox="0 0 800 800" style="enable-background:new 0 0 800 800;" xml:space="preserve">
<style type="text/css">
	.st0{fill:#FFFFFF;}
</style>
<g>
	<path class="st0" d="M182.4,361.8c0,36.3,22.1,67.7,53.9,76.7c23.8,66.2,86.8,110.6,157.2,110.6s133.3-44.4,157.2-110.6
		c31.8-9,53.9-40.4,53.9-76.7c0-24.5-10.5-47.9-28.2-62.9L579,285c0-5.2-0.4-10.3-0.8-15.3l-0.3-4.1l-3.5,2.1
		C526.2,297.6,448,311,392,311c-54.5,0-131.1-12.8-179.5-41.5l-3.5-0.9l-0.3,4c-0.3,4.1-0.6,8.2-0.6,12.9l2.6,13.5
		C192.9,313.9,182.4,337.3,182.4,361.8z"/>
	<path class="st0" d="M556.5,595.4c-15.1-9.3-29.3-18.1-40.8-27.2l-1.5-1.2l-1.5,1.1c-10.8,7.7-48.8,47.1-79.7,80l-17.1-33.2
		l8.9-6.4v-32.6h-62.6v32.6l8.9,6.4L354,648.1c-31-32.8-69-72.3-79.7-80l-1.5-1.1l-1.5,1.2c-11.5,9.1-25.7,17.9-40.8,27.2
		c-46.9,29.1-100.1,62-100.1,120.8c0,34.8,81.6,83.7,263.1,83.7c181.5,0,263.1-49,263.1-83.7C656.6,657.5,603.4,624.5,556.5,595.4z"
		/>
	<path class="st0" d="M205.7,206c0,29.1,87.7,66.1,186.2,66.1s186.2-37,186.2-66.1v-40.2l68-27.7v87.4c-7.9,1.2-14,8.1-14,16.3
		c0,7,4.6,13.2,11.3,15.4L630,346.5h63.6L680,257.3c6.7-2.2,11.3-8.4,11.3-15.4c0-8.3-6.1-15.2-14.1-16.4l-0.3-105
		c0.6-1,0.6-2,0.6-2.5c0-0.5,0-1.5-0.2-1.5h0c-0.4-3.8-3.1-7.2-7.1-8.8l-18-7.4L418,5.1C409.9,1.7,400.9,0,392,0s-18,1.7-26.1,5.1
		L113.8,107.7c-4.5,1.8-7.4,5.9-7.4,10.3c0,4.4,2.9,8.5,7.4,10.4l91.9,37.4L205.7,206L205.7,206z"/>
</g>
</svg>
