<?xml version="1.0" encoding="utf-8"?>
<!-- Generator: Adobe Illustrator 25.4.1, SVG Export Plug-In . SVG Version: 6.00 Build 0)  -->
<svg version="1.1" id="Слой_1" xmlns="http://www.w3.org/2000/svg" xmlns:xlink="http://www.w3.org/1999/xlink" x="0px" y="0px"
	 viewBox="0 0 80 80" style="enable-background:new 0 0 80 80;" xml:space="preserve">
<style type="text/css">
	.st0{fill:url(#SVGID_1_);}
	.st1{fill:#FFFFFF;}
</style>
<linearGradient id="SVGID_1_" gradientUnits="userSpaceOnUse" x1="63.5141" y1="-0.7092" x2="16.2057" y2="81.2314">
	<stop  offset="6.393348e-07" style="stop-color:#7FFF84"/>
	<stop  offset="0.1675" style="stop-color:#81FF80"/>
	<stop  offset="0.3429" style="stop-color:#87FF73"/>
	<stop  offset="0.5221" style="stop-color:#91FF5E"/>
	<stop  offset="0.7038" style="stop-color:#9FFF41"/>
	<stop  offset="0.8857" style="stop-color:#B0FF1C"/>
	<stop  offset="1" style="stop-color:#BDFF00"/>
</linearGradient>
<path class="st0" d="M67,77.5H12.7c-6,0-10.8-4.9-10.8-10.8V13.8C1.9,7.9,6.7,3,12.7,3H67c6,0,10.8,4.9,10.8,10.8v52.9
	C77.9,72.7,73,77.5,67,77.5z"/>
<path class="st1" d="M24,27.3c0,1.9-1.5,3.4-3.4,3.4c-1.9,0-3.4-1.5-3.4-3.4s1.5-3.4,3.4-3.4C22.5,24,24,25.5,24,27.3z"/>
<path class="st1" d="M64,54c-4,9.3-13.5,15.4-24.1,15.4c-10.8,0-20.3-6.1-24.2-15.5c-0.7-1.6,0.1-3.4,1.7-4.1
	c0.4-0.2,0.8-0.2,1.2-0.2c1.2,0,2.4,0.7,2.9,1.9c2.9,7,10.1,11.6,18.4,11.6c8.1,0,15.3-4.5,18.3-11.6c0.7-1.6,2.5-2.3,4.1-1.6
	C64,50.6,64.7,52.4,64,54z"/>
<path class="st1" d="M62.1,27.3c0,1.9-1.5,3.4-3.4,3.4c-1.9,0-3.4-1.5-3.4-3.4s1.5-3.4,3.4-3.4C60.6,24,62.1,25.5,62.1,27.3z"/>
<path class="st1" d="M32.7,25.3l-4,4.1l0.9,5.8c0.1,0.3-0.1,0.6-0.3,0.8c-0.2,0.1-0.3,0.2-0.5,0.2c-0.1,0-0.3,0-0.4-0.1l-4.9-2.7
	L18.6,36c-0.3,0.2-0.6,0.1-0.9,0c-0.3-0.2-0.4-0.5-0.3-0.8l0.9-5.8l-4-4.1c-0.2-0.2-0.3-0.5-0.2-0.8c0.1-0.3,0.4-0.5,0.7-0.6
	l5.5-0.8l2.5-5.2c0.1-0.3,0.4-0.5,0.8-0.5c0.3,0,0.6,0.2,0.8,0.5l2.5,5.2l5.5,0.8c0.3,0,0.6,0.3,0.7,0.6
	C33,24.8,32.9,25.1,32.7,25.3z"/>
<path class="st1" d="M66.1,25.3l-4,4.1l0.9,5.8c0.1,0.3-0.1,0.6-0.3,0.8c-0.1,0.1-0.3,0.2-0.5,0.2c-0.1,0-0.3,0-0.4-0.1L57,33.3
	L52.1,36c-0.3,0.2-0.6,0.1-0.9,0c-0.3-0.2-0.4-0.5-0.3-0.8l0.9-5.8l-4-4.1c-0.2-0.2-0.3-0.5-0.2-0.8c0.1-0.3,0.4-0.5,0.7-0.6
	l5.5-0.8l2.5-5.2c0.1-0.3,0.4-0.5,0.8-0.5c0.3,0,0.6,0.2,0.7,0.5l2.5,5.2l5.5,0.8c0.3,0,0.6,0.3,0.7,0.6
	C66.4,24.8,66.4,25.1,66.1,25.3z"/>
<g>
</g>
<g>
</g>
<g>
</g>
<g>
</g>
<g>
</g>
</svg>
