<?xml version="1.0" encoding="utf-8"?>
<!-- Generator: Adobe Illustrator 25.4.1, SVG Export Plug-In . SVG Version: 6.00 Build 0)  -->
<svg version="1.1" id="Слой_1" xmlns="http://www.w3.org/2000/svg" xmlns:xlink="http://www.w3.org/1999/xlink" x="0px" y="0px"
	 viewBox="0 0 80 80" style="enable-background:new 0 0 80 80;" xml:space="preserve">
<style type="text/css">
	.st0{fill:url(#SVGID_1_);}
	.st1{fill:#FFFFFF;}
</style>
<linearGradient id="SVGID_1_" gradientUnits="userSpaceOnUse" x1="63.5141" y1="-0.7092" x2="16.2057" y2="81.2314">
	<stop  offset="6.393348e-07" style="stop-color:#FF94F3"/>
	<stop  offset="1" style="stop-color:#94008D"/>
</linearGradient>
<path class="st0" d="M67,77.5H12.7c-6,0-10.8-4.9-10.8-10.8V13.8C1.9,7.9,6.7,3,12.7,3H67c6,0,10.8,4.9,10.8,10.8v52.9
	C77.9,72.7,73,77.5,67,77.5z"/>
<path class="st1" d="M62.9,31.9c0,1.5-0.5,3-1.3,4.1c-1.3-1.8-3.4-3-5.7-3c-2.3,0-4.4,1.1-5.6,2.9c-0.8-1.1-1.3-2.5-1.3-4
	c0-3.9,3.1-7,7-7C59.7,24.9,62.9,28,62.9,31.9z"/>
<path class="st1" d="M68.6,21.4c0.1,1.2-0.9,2.3-2.1,2.4c-0.1,0-0.6,0-1.3,0c-3.3,0-11.9-0.6-16.1-6.3c-0.7-1-0.5-2.4,0.5-3.1
	c1-0.7,2.4-0.5,3.1,0.5c3.7,5,13.3,4.5,13.4,4.5C67.4,19.2,68.5,20.1,68.6,21.4z"/>
<path class="st1" d="M30.9,17.5c-4.2,5.8-12.9,6.3-16.1,6.3c-0.7,0-1.2,0-1.3,0c-1.2-0.1-2.2-1.2-2.1-2.4c0.1-1.2,1.1-2.2,2.4-2.1
	c0.1,0,9.8,0.6,13.4-4.5c0.7-1,2.1-1.2,3.2-0.5C31.4,15.1,31.6,16.5,30.9,17.5z"/>
<path class="st1" d="M31.1,31.9c0,1.5-0.5,2.9-1.3,4c-1.3-1.7-3.3-2.9-5.6-2.9c-2.4,0-4.5,1.2-5.7,3c-0.8-1.2-1.3-2.6-1.3-4.1
	c0-3.9,3.1-7,7-7S31.1,28.1,31.1,31.9z"/>
<path class="st1" d="M63.8,46c-0.8,0-1.7,0.1-2.8,0.4c-7.8,3.4-15.1,4.5-21.3,4.5c-12.5,0-20.7-4.5-20.7-4.5c-1-0.3-2-0.4-2.8-0.4
	H16l0,0c-6.9,0.2-4.3,10-4.3,10c5.2,15.9,22.4,17,27.1,17c0.8,0,1.2,0,1.2,0s0.4,0,1.2,0c4.7,0,21.9-1.1,27.1-17
	C68.3,56,70.9,46,63.8,46z M18,59.8c-0.9-1.3-1.6-2.8-2.2-4.5c-0.4-1.6-0.5-4.4,0.2-5.3c0.1-0.1,0.3-0.3,1-0.3c0.3,0,0.6,0,1,0.1
	V59.8z M28.1,67.5c-2-0.7-4-1.7-5.8-3.1V51.4c1.5,0.6,3.5,1.2,5.8,1.7V67.5z M38.5,69.4c-1.4,0-3.6-0.1-6.1-0.6V53.8
	c1.9,0.3,3.9,0.4,6.1,0.5V69.4z M48.3,68.6c-2.1,0.5-4,0.7-5.4,0.7V54.2c1.8-0.1,3.6-0.3,5.4-0.6V68.6z M58,64.2
	c-1.7,1.3-3.5,2.3-5.4,3.1V52.7c1.8-0.5,3.6-1,5.4-1.6V64.2z M64.2,55.3c-0.5,1.5-1.1,2.8-1.8,4v-9.6c0.2,0,0.3,0,0.5,0
	c0.9,0,1,0.3,1.1,0.3C64.8,50.9,64.6,53.7,64.2,55.3z"/>
<g>
</g>
<g>
</g>
<g>
</g>
<g>
</g>
<g>
</g>
</svg>
