<?xml version="1.0" encoding="utf-8"?>
<!-- Generator: Adobe Illustrator 25.4.1, SVG Export Plug-In . SVG Version: 6.00 Build 0)  -->
<svg version="1.1" id="Слой_1" xmlns="http://www.w3.org/2000/svg" xmlns:xlink="http://www.w3.org/1999/xlink" x="0px" y="0px"
	 viewBox="0 0 80 80" style="enable-background:new 0 0 80 80;" xml:space="preserve">
<style type="text/css">
	.st0{fill:url(#SVGID_1_);}
	.st1{fill:#FFFFFF;}
</style>
<linearGradient id="SVGID_1_" gradientUnits="userSpaceOnUse" x1="63.5141" y1="-0.7092" x2="16.2057" y2="81.2314">
	<stop  offset="5.754013e-07" style="stop-color:#FEFFAA"/>
	<stop  offset="9.266487e-02" style="stop-color:#FEF4A6"/>
	<stop  offset="0.2572" style="stop-color:#FED69C"/>
	<stop  offset="0.4742" style="stop-color:#FEA58C"/>
	<stop  offset="0.7357" style="stop-color:#FF6176"/>
	<stop  offset="1" style="stop-color:#FF155D"/>
</linearGradient>
<path class="st0" d="M67,77.5H12.7c-6,0-10.8-4.9-10.8-10.8V13.8C1.9,7.9,6.7,3,12.7,3H67c6,0,10.8,4.9,10.8,10.8v52.9
	C77.9,72.7,73,77.5,67,77.5z"/>
<path class="st1" d="M64,54c-4,9.3-13.5,15.4-24.1,15.4c-10.8,0-20.3-6.1-24.2-15.5c-0.7-1.6,0.1-3.4,1.7-4.1
	c0.4-0.2,0.8-0.2,1.2-0.2c1.2,0,2.4,0.7,2.9,1.9c2.9,7,10.1,11.6,18.4,11.6c8.1,0,15.3-4.5,18.3-11.6c0.7-1.6,2.5-2.3,4.1-1.6
	C64,50.6,64.7,52.4,64,54z"/>
<path class="st1" d="M34.8,26.8c0,2.8-2.3,5.1-5.1,5.1c-2.8,0-5.1-2.3-5.1-5.1c0-2.8,2.3-5.1,5.1-5.1C32.6,21.7,34.8,24,34.8,26.8z"
	/>
<path class="st1" d="M77.9,41.6v3.5l-14.2-12c-2,2.3-4.9,3.8-8.2,3.8c-6,0-10.9-4.9-10.9-10.9c0-2.5,0.9-4.8,2.3-6.7L26.2,1.7h4.2
	l18.4,15.7c1.8-1.4,4.1-2.3,6.6-2.3c6,0,10.9,4.9,10.9,10.9c0,1.7-0.4,3.4-1.1,4.8L77.9,41.6z"/>
<g>
</g>
<g>
</g>
<g>
</g>
<g>
</g>
<g>
</g>
</svg>
