<?xml version="1.0" encoding="utf-8"?>
<!-- Generator: Adobe Illustrator 25.4.1, SVG Export Plug-In . SVG Version: 6.00 Build 0)  -->
<svg version="1.1" id="Слой_1" xmlns="http://www.w3.org/2000/svg" xmlns:xlink="http://www.w3.org/1999/xlink" x="0px" y="0px"
	 viewBox="0 0 80 80" enable-background="new 0 0 80 80" xml:space="preserve">
<linearGradient id="SVGID_1_" gradientUnits="userSpaceOnUse" x1="63.5141" y1="-0.7092" x2="16.2057" y2="81.2314">
	<stop  offset="1.385225e-07" style="stop-color:#C1272D"/>
	<stop  offset="0.5056" style="stop-color:#9E005D"/>
	<stop  offset="1" style="stop-color:#FBB03B"/>
</linearGradient>
<path fill="url(#SVGID_1_)" d="M67,77.5H12.7c-6,0-10.8-4.9-10.8-10.8V13.8C1.9,7.9,6.7,3,12.7,3H67c6,0,10.8,4.9,10.8,10.8v52.9
	C77.9,72.7,73,77.5,67,77.5z"/>
<path fill="#FFFFFF" d="M77.9,25.6l-12.3,5.9c0,0.1,0,0.2,0,0.4c0,6.4-5.2,11.6-11.6,11.6c-6.2,0-11.3-5-11.6-11.1h-5.3
	c-0.2,6.2-5.3,11.2-11.5,11.2c-6.4,0-11.6-5.2-11.6-11.6c0-0.1,0-0.2,0-0.3L1.9,26v-3.2l12.6,5.8c1.4-4.8,5.8-8.3,11.1-8.3
	c5.5,0,10.1,3.9,11.3,9.1h5.9c1.1-5.2,5.8-9.1,11.3-9.1c5.2,0,9.6,3.5,11.1,8.2l12.8-6.2V25.6z"/>
<path fill="#FFFFFF" d="M62.9,56.9C59.1,65.7,50.1,71.5,40,71.5c-10.3,0-19.4-5.8-23.1-14.7c-0.6-1.5,0.1-3.3,1.6-3.9
	c0.4-0.2,0.8-0.2,1.2-0.2c1.2,0,2.3,0.7,2.8,1.9c2.8,6.7,9.7,11,17.5,11c7.7,0,14.5-4.3,17.4-11c0.7-1.5,2.4-2.2,3.9-1.6
	C62.9,53.6,63.6,55.3,62.9,56.9z"/>
<g>
</g>
<g>
</g>
<g>
</g>
<g>
</g>
<g>
</g>
</svg>
