<?xml version="1.0" encoding="utf-8"?>
<!-- Generator: Adobe Illustrator 25.4.1, SVG Export Plug-In . SVG Version: 6.00 Build 0)  -->
<svg version="1.1" id="Слой_1" xmlns="http://www.w3.org/2000/svg" xmlns:xlink="http://www.w3.org/1999/xlink" x="0px" y="0px"
	 viewBox="0 0 80 80" enable-background="new 0 0 80 80" xml:space="preserve">
<linearGradient id="SVGID_1_" gradientUnits="userSpaceOnUse" x1="63.5141" y1="-0.7092" x2="16.2057" y2="81.2314">
	<stop  offset="4.262232e-07" style="stop-color:#00FF00"/>
	<stop  offset="0.5056" style="stop-color:#009245"/>
	<stop  offset="1" style="stop-color:#006837"/>
</linearGradient>
<path fill="url(#SVGID_1_)" d="M67,77.5H12.7c-6,0-10.8-4.9-10.8-10.8V13.8C1.9,7.9,6.7,3,12.7,3H67c6,0,10.8,4.9,10.8,10.8v52.9
	C77.9,72.7,73,77.5,67,77.5z"/>
<circle fill="#FFFFFF" cx="26.3" cy="24.8" r="6.2"/>
<path fill="#FFFFFF" d="M62.8,48.2c-2.5,5.8-7.2,10.2-13,12.6v3.9c0,5.3-4.5,9.6-10,9.6c-5.5,0-10-4.3-10-9.6v-3.9
	c-5.9-2.4-10.6-6.9-13-12.7c-0.6-1.5,0.1-3.3,1.6-3.9c0.4-0.2,0.8-0.2,1.2-0.2c1.2,0,2.3,0.7,2.8,1.9c2.8,6.7,9.6,11,17.5,11
	c7.7,0,14.5-4.3,17.4-11c0.7-1.5,2.4-2.2,3.9-1.6C62.8,44.9,63.5,46.7,62.8,48.2z"/>
<ellipse fill="#FFFFFF" cx="54.4" cy="24.8" rx="6.2" ry="2.2"/>
<g>
</g>
<g>
</g>
<g>
</g>
<g>
</g>
<g>
</g>
</svg>
