<?xml version="1.0" encoding="utf-8"?>
<!-- Generator: Adobe Illustrator 25.4.1, SVG Export Plug-In . SVG Version: 6.00 Build 0)  -->
<svg version="1.1" id="Слой_1" xmlns="http://www.w3.org/2000/svg" xmlns:xlink="http://www.w3.org/1999/xlink" x="0px" y="0px"
	 viewBox="0 0 80 80" enable-background="new 0 0 80 80" xml:space="preserve">
<linearGradient id="SVGID_1_" gradientUnits="userSpaceOnUse" x1="63.5141" y1="-0.9703" x2="16.2057" y2="80.9703">
	<stop  offset="3.303229e-07" style="stop-color:#FFCFBF"/>
	<stop  offset="0.1104" style="stop-color:#FFC8C5"/>
	<stop  offset="1" style="stop-color:#FF94F0"/>
</linearGradient>
<path fill="url(#SVGID_1_)" d="M67,77.3H12.7c-6,0-10.8-4.9-10.8-10.8V13.6c0-6,4.9-10.8,10.8-10.8H67c6,0,10.8,4.9,10.8,10.8v52.9
	C77.9,72.4,73,77.3,67,77.3z"/>
<path fill="#FFFFFF" d="M34.9,28.1c0,2.8-2.3,5.1-5.1,5.1c-2.8,0-5.1-2.3-5.1-5.1c0-2.8,2.3-5.1,5.1-5.1
	C32.6,22.9,34.9,25.2,34.9,28.1z"/>
<path fill="#FFFFFF" d="M56.8,42.3H27.6c-3.9,0-7,3.1-7,7v8.1c0,3.9,3.1,7,7,7h29.2c3.9,0,7-3.1,7-7v-8.1
	C63.8,45.4,60.6,42.3,56.8,42.3z M30.5,61.6h-4.4c-1.1-0.8-1.9-1.9-2.2-3.2V55h6.6V61.6z M30.5,51.7h-6.6v-3.4
	c0.4-1.3,1.2-2.4,2.2-3.2h4.4V51.7z M40.5,61.6h-6.6V55h6.6V61.6z M40.5,51.7h-6.6V45h6.6V51.7z M50.5,61.6h-6.6V55h6.6V61.6z
	 M50.5,51.7h-6.6V45h6.6V51.7z M60.4,58.4c-0.4,1.3-1.2,2.4-2.2,3.2h-4.4V55h6.6V58.4z M60.4,51.7h-6.6V45h4.4
	c1.1,0.8,1.9,1.9,2.2,3.2V51.7z"/>
<path fill="#FFFFFF" d="M77.9,42.9v3.5l-14.2-12c-2,2.3-4.9,3.8-8.2,3.8c-6,0-10.9-4.9-10.9-10.9c0-2.5,0.9-4.8,2.3-6.7L26.3,3h4.2
	l18.4,15.7c1.8-1.4,4.1-2.3,6.6-2.3c6,0,10.9,4.9,10.9,10.9c0,1.7-0.4,3.4-1.1,4.8L77.9,42.9z"/>
<g>
</g>
<g>
</g>
<g>
</g>
<g>
</g>
<g>
</g>
</svg>
