<?xml version="1.0" encoding="utf-8"?>
<!-- Generator: Adobe Illustrator 25.4.1, SVG Export Plug-In . SVG Version: 6.00 Build 0)  -->
<svg version="1.1" id="Слой_1" xmlns="http://www.w3.org/2000/svg" xmlns:xlink="http://www.w3.org/1999/xlink" x="0px" y="0px"
	 viewBox="0 0 80 80" enable-background="new 0 0 80 80" xml:space="preserve">
<linearGradient id="SVGID_1_" gradientUnits="userSpaceOnUse" x1="63.5141" y1="-0.7092" x2="16.2057" y2="81.2314">
	<stop  offset="4.315509e-07" style="stop-color:#D9B04F"/>
	<stop  offset="0.1982" style="stop-color:#DDA74D"/>
	<stop  offset="0.5237" style="stop-color:#E78E47"/>
	<stop  offset="0.9339" style="stop-color:#F8663D"/>
	<stop  offset="1" style="stop-color:#FB5F3B"/>
</linearGradient>
<path fill="url(#SVGID_1_)" d="M67,77.5H12.7c-6,0-10.8-4.9-10.8-10.8V13.8C1.9,7.9,6.7,3,12.7,3H67c6,0,10.8,4.9,10.8,10.8v52.9
	C77.9,72.7,73,77.5,67,77.5z"/>
<path fill="#FFFFFF" d="M33,21.6l-4,4.1l0.9,5.8c0.1,0.3-0.1,0.6-0.3,0.8c-0.2,0.1-0.3,0.2-0.5,0.2c-0.1,0-0.3,0-0.4-0.1l-4.9-2.7
	l-4.9,2.7c-0.3,0.2-0.6,0.1-0.9,0c-0.3-0.2-0.4-0.5-0.3-0.8l0.9-5.8l-4-4.1c-0.2-0.2-0.3-0.5-0.2-0.8c0.1-0.3,0.4-0.5,0.7-0.6
	l5.5-0.8l2.5-5.2c0.1-0.3,0.4-0.5,0.8-0.5s0.6,0.2,0.8,0.5l2.5,5.2l5.5,0.8c0.3,0,0.6,0.3,0.7,0.6C33.3,21,33.2,21.3,33,21.6z"/>
<path fill="#FFFFFF" d="M70.5,51.3c-5.1,11.8-17,19.4-30.4,19.4c-13.7,0-25.7-7.7-30.6-19.5c-0.2-0.5-0.2-1.1,0.2-1.6
	c0.3-0.5,0.8-0.7,1.4-0.7l57.9,0.1c0.6,0,1.1,0.3,1.4,0.8C70.7,50.1,70.7,50.7,70.5,51.3z"/>
<path fill="#FFFFFF" d="M66.5,21.6l-4,4.1l0.9,5.8c0.1,0.3-0.1,0.6-0.3,0.8c-0.1,0.1-0.3,0.2-0.5,0.2c-0.1,0-0.3,0-0.4-0.1l-4.9-2.7
	l-4.9,2.7c-0.3,0.2-0.6,0.1-0.9,0c-0.3-0.2-0.4-0.5-0.3-0.8l0.9-5.8l-4-4.1c-0.2-0.2-0.3-0.5-0.2-0.8s0.4-0.5,0.7-0.6l5.5-0.8
	l2.5-5.2c0.1-0.3,0.4-0.5,0.8-0.5c0.3,0,0.6,0.2,0.7,0.5l2.5,5.2l5.5,0.8c0.3,0,0.6,0.3,0.7,0.6C66.8,21,66.7,21.3,66.5,21.6z"/>
<g>
</g>
<g>
</g>
<g>
</g>
<g>
</g>
<g>
</g>
</svg>
