<?xml version="1.0" encoding="utf-8"?>
<!-- Generator: Adobe Illustrator 25.4.1, SVG Export Plug-In . SVG Version: 6.00 Build 0)  -->
<svg version="1.1" id="Слой_1" xmlns="http://www.w3.org/2000/svg" xmlns:xlink="http://www.w3.org/1999/xlink" x="0px" y="0px"
	 viewBox="0 0 80 80" enable-background="new 0 0 80 80" xml:space="preserve">
<linearGradient id="SVGID_1_" gradientUnits="userSpaceOnUse" x1="63.5141" y1="-0.7092" x2="16.2057" y2="81.2314">
	<stop  offset="5.327789e-07" style="stop-color:#AAFFC2"/>
	<stop  offset="1" style="stop-color:#3F87CF"/>
</linearGradient>
<path fill="url(#SVGID_1_)" d="M67,77.5H12.7c-6,0-10.8-4.9-10.8-10.8V13.8C1.9,7.9,6.7,3,12.7,3H67c6,0,10.8,4.9,10.8,10.8v52.9
	C77.9,72.7,73,77.5,67,77.5z"/>
<path fill="#FFFFFF" d="M24,27.3c0,1.9-1.5,3.4-3.4,3.4c-1.9,0-3.4-1.5-3.4-3.4s1.5-3.4,3.4-3.4C22.5,24,24,25.5,24,27.3z"/>
<path fill="#FFFFFF" d="M64,54c-4,9.3-13.5,15.4-24.1,15.4c-10.8,0-20.3-6.1-24.2-15.5c-0.7-1.6,0.1-3.4,1.7-4.1
	c0.4-0.2,0.8-0.2,1.2-0.2c1.2,0,2.4,0.7,2.9,1.9c2.9,7,10.1,11.6,18.4,11.6c8.1,0,15.3-4.5,18.3-11.6c0.7-1.6,2.5-2.3,4.1-1.6
	C64,50.6,64.7,52.4,64,54z"/>
<path fill="#FFFFFF" d="M65.5,17.9H51.9c-3.6,0-6.6,2.7-7.6,6.4h-8.8c-1-3.7-4-6.4-7.6-6.4H14.2c-4.4,0-8,4.1-8,9.2v0.4
	c0,5.1,3.6,9.2,8,9.2h13.6c4.3,0,7.9-4,8-9h8.1c0.1,5,3.6,9,8,9h13.6c4.4,0,8-4.1,8-9.2v-0.4C73.5,22,69.9,17.9,65.5,17.9z
	 M32.7,27.6c0,3.4-2.2,6.1-4.8,6.1H14.2c-2.7,0-4.8-2.7-4.8-6.1v-0.4c0-3.4,2.2-6.1,4.8-6.1h13.6c2.7,0,4.8,2.7,4.8,6.1V27.6z
	 M70.4,27.6c0,3.4-2.2,6.1-4.8,6.1H51.9c-2.7,0-4.8-2.7-4.8-6.1v-0.4c0-3.4,2.2-6.1,4.8-6.1h13.6c2.7,0,4.8,2.7,4.8,6.1V27.6z"/>
<path fill="#FFFFFF" d="M62.1,27.3c0,1.9-1.5,3.4-3.4,3.4c-1.9,0-3.4-1.5-3.4-3.4s1.5-3.4,3.4-3.4C60.6,24,62.1,25.5,62.1,27.3z"/>
<g>
</g>
<g>
</g>
<g>
</g>
<g>
</g>
<g>
</g>
</svg>
