<?xml version="1.0" encoding="utf-8"?>
<!-- Generator: Adobe Illustrator 25.4.1, SVG Export Plug-In . SVG Version: 6.00 Build 0)  -->
<svg version="1.1" xmlns="http://www.w3.org/2000/svg" xmlns:xlink="http://www.w3.org/1999/xlink" x="0px" y="0px"
	 viewBox="0 0 80 80" enable-background="new 0 0 80 80" xml:space="preserve">
<g id="Сло_2" display="none">
	<path d="M50.9,29.6c2.6,0,4.6-2,4.6-4.6c0-2.6-2-4.6-4.6-4.6c-2.6,0-4.6,2-4.6,4.6C46.3,27.6,48.3,29.6,50.9,29.6z"/>
	<path d="M72.7,60.1c-2.1-1.4-4.7-2.9-6.9-4.4c-1.9-2.9-3.7-5.8-5.6-8.8c-0.6-3.5-1.2-6.9-1.8-10.4c2-0.2,4-0.4,6-0.6
		c1.7,1.1,3.5,2.3,5.1,3.3c0.9,0.5,1.5,0.3,2.2-0.3c0,0,0,0,0,0c0.5-0.8,0.6-1.6-0.2-2.3c-1.4-1.3-3.1-2.8-4.6-4.1
		c-0.6-0.5-1-0.7-1.8-0.7c-3.7-0.2-7.7-0.4-11.4-0.7c-0.5,0-0.5,0-0.7,0s-0.3,0-0.5,0.1c-0.9,0.2-1.4,0.4-2.3,1
		c-2.7,1.7-5.6,3.5-8.4,5.1c-1.7-0.9-3.6-2.1-5.3-2.9c-1-0.5-1.7-0.1-2.4,0.6c0,0-0.1,0.1-0.1,0.1C34,35.5,33.8,36,34,36.4
		c0.2,0.5,0.3,0.8,0.8,1.1c2,1.2,4.3,2.6,6.3,3.7c1,0.6,1.6,0.6,2.7,0.2c1.7-0.5,3.6-1.4,5.3-2c0.6,2.4,1.2,4.8,1.8,7.2
		c-2.4,0-5.1-0.1-7.5,0c-1.2,0-1.9,0.4-2.6,1.2c-0.7,0.9-0.9,1.6-0.7,2.8c0.6,3.2,1.3,7,2,10.2c0.3,1.4,1.2,1.7,2.4,1.8
		c0,0,0.1,0,0.1,0c1.1-0.4,1.9-1,1.8-2.4c-0.1-2.3-0.5-4.9-0.6-7.3c3.5,0.1,7,0.2,10.5,0.3c1.6,1.6,3.3,3.4,4.9,4.9
		c0.9,0.8,1.3,1.2,2.4,1.8c2.3,1.2,4.9,2.8,7.2,3.9c1.3,0.6,2.1,0.1,2.9-0.8c0,0,0-0.1,0-0.1C73.9,61.8,73.9,60.9,72.7,60.1z"/>
</g>
<g id="Слой_1">
	<path fill="none" stroke="#000000" stroke-width="2" stroke-miterlimit="10" d="M67.2,77.5H12.8C6.8,77.5,2,72.7,2,66.7V13.8
		C2,7.9,6.8,3,12.8,3h54.3C73.2,3,78,7.9,78,13.8v52.9C78,72.7,73.2,77.5,67.2,77.5z"/>
	<g>
		<g>
			<path fill="#FF0000" stroke="#FFFFFF" stroke-miterlimit="10" d="M11,43.7c3-0.6,12.3,7.2,9.6,11c-1.8,2.5-11.4,3.9-12.6,2.1
				C6.4,54.6,8.6,44.2,11,43.7z"/>
		</g>
		<g>
			<path fill="#F7931E" stroke="#FFFFFF" stroke-miterlimit="10" d="M13,46.5c2-0.8,7,3.1,4.8,5.9c-1.5,1.9-7.9,4-8.5,3
				C8.7,54.2,11.5,47.1,13,46.5z"/>
		</g>
	</g>
	<g>
		<g>
			<path fill="#FF0000" stroke="#FFFFFF" stroke-miterlimit="10" d="M26.3,59.1c3-0.6,12.3,7.2,9.6,11c-1.8,2.5-11.4,3.9-12.6,2.1
				C21.8,70,24,59.5,26.3,59.1z"/>
		</g>
		<g>
			<path fill="#F7931E" stroke="#FFFFFF" stroke-miterlimit="10" d="M28.4,61.9c2-0.8,7,3.1,4.8,5.9c-1.5,1.9-7.9,4-8.5,3
				C24,69.6,26.8,62.5,28.4,61.9z"/>
		</g>
	</g>
	<g>
		<g>
			<path fill="#333333" stroke="#FFFFFF" stroke-miterlimit="10" d="M30.7,62.3L17.2,48.8c-0.3-0.3-0.3-0.8,0-1.1l32.5-32.5
				c0.3-0.3,0.8-0.3,1.1,0l13.4,13.4c0.3,0.3,0.3,0.8,0,1.1L31.8,62.3C31.5,62.6,31,62.6,30.7,62.3z"/>
			<path fill="#333333" stroke="#FFFFFF" stroke-miterlimit="10" d="M68.1,10.3c0.7-0.2,1.3,0.4,1.1,1.1l-2.1,8l-2.1,8
				c-0.2,0.7-1.1,0.9-1.6,0.4l-5.8-5.8l-5.8-5.8c-0.5-0.5-0.3-1.4,0.4-1.6l8-2.1L68.1,10.3z"/>
			<path fill="#333333" stroke="#FFFFFF" stroke-miterlimit="10" d="M41.5,52.3c0.7-0.2,1.3,0.4,1.2,1.1l-1.9,8l-1.9,8
				c-0.2,0.7-1,1-1.5,0.5l-6-5.7l-6-5.7c-0.5-0.5-0.3-1.4,0.4-1.6l7.9-2.4L41.5,52.3z"/>
			<path fill="#333333" stroke="#FFFFFF" stroke-miterlimit="10" d="M25.7,37.4c0.7-0.2,1.3,0.4,1.2,1.1l-1.9,8l-1.9,8
				c-0.2,0.7-1,1-1.5,0.5l-6-5.7l-6-5.7c-0.5-0.5-0.3-1.4,0.4-1.6l7.9-2.4L25.7,37.4z"/>
		</g>
		<path fill="#C1272D" stroke="#FFFFFF" stroke-miterlimit="10" d="M50.7,30.7l-0.9,2.8c-0.1,0.3,0,0.6,0.1,0.9l1.8,2.3
			c0.5,0.6,0,1.5-0.8,1.5l-2.9,0c-0.3,0-0.6,0.1-0.8,0.4l-1.7,2.4c-0.4,0.6-1.4,0.5-1.6-0.3L43,37.8c-0.1-0.3-0.3-0.5-0.6-0.6
			l-2.8-0.9c-0.7-0.2-0.9-1.2-0.3-1.6l2.4-1.7c0.3-0.2,0.4-0.5,0.4-0.8l0-2.9c0-0.8,0.9-1.2,1.5-0.8l2.3,1.8
			c0.2,0.2,0.6,0.2,0.9,0.1l2.8-0.9C50.3,29.3,51,30,50.7,30.7z"/>
	</g>
	<g>
		<g>
			<path fill="#FFFFFF" d="M71.7,55.9c6.4,0,6.4-10,0-10C65.2,45.9,65.2,55.9,71.7,55.9L71.7,55.9z"/>
		</g>
	</g>
	<g>
	</g>
	<g>
	</g>
	<g>
	</g>
	<g>
	</g>
	<g>
	</g>
</g>
</svg>
