<?xml version="1.0" encoding="utf-8"?>
<!-- Generator: Adobe Illustrator 25.4.1, SVG Export Plug-In . SVG Version: 6.00 Build 0)  -->
<svg version="1.1" xmlns="http://www.w3.org/2000/svg" xmlns:xlink="http://www.w3.org/1999/xlink" x="0px" y="0px"
	 viewBox="0 0 80 80" enable-background="new 0 0 80 80" xml:space="preserve">
<g id="Сло_2">
</g>
<g id="Слой_1">
	<linearGradient id="SVGID_1_" gradientUnits="userSpaceOnUse" x1="40" y1="77.8305" x2="40" y2="3.3082">
		<stop  offset="1.438503e-07" style="stop-color:#65C8FF"/>
		<stop  offset="1" style="stop-color:#ADC8D0"/>
	</linearGradient>
	
		<linearGradient id="SVGID_00000054258605916194938970000014519713943156178358_" gradientUnits="userSpaceOnUse" x1="40" y1="78.8305" x2="40" y2="2.3082">
		<stop  offset="1.438503e-07" style="stop-color:#65C8FF"/>
		<stop  offset="1" style="stop-color:#ADC8D0"/>
	</linearGradient>
	
		<path fill="url(#SVGID_1_)" stroke="url(#SVGID_00000054258605916194938970000014519713943156178358_)" stroke-width="2" stroke-miterlimit="10" d="
		M67.2,77.8H12.8C6.8,77.8,2,73,2,67V14.1c0-6,4.9-10.8,10.8-10.8h54.3c6,0,10.8,4.9,10.8,10.8V67C78,73,73.2,77.8,67.2,77.8z"/>
	<g>
		<path fill="none" stroke="#4D4D4D" stroke-miterlimit="10" d="M76.7,27.2"/>
		<path fill="none" stroke="#4D4D4D" stroke-miterlimit="10" d="M3.7,30.2"/>
		<path fill="none" stroke="#4D4D4D" stroke-miterlimit="10" d="M76.3,33.1"/>
		<path fill="none" stroke="#4D4D4D" stroke-miterlimit="10" d="M3.3,36"/>
		<path fill="none" stroke="#4D4D4D" stroke-miterlimit="10" d="M76.3,38.9"/>
		<path fill="none" stroke="#4D4D4D" stroke-miterlimit="10" d="M3.3,41.9"/>
		<path fill="none" stroke="#4D4D4D" stroke-miterlimit="10" d="M76.3,44.8"/>
		<path fill="none" stroke="#4D4D4D" stroke-miterlimit="10" d="M3.3,47.8"/>
		<path fill="none" stroke="#4D4D4D" stroke-miterlimit="10" d="M76.3,50.8"/>
		<path fill="none" stroke="#4D4D4D" stroke-miterlimit="10" d="M3.3,53.8"/>
	</g>
	<path fill="#CFFFB9" stroke="#006837" stroke-miterlimit="10" d="M13.9,63.7l0.5-0.6c0.7-0.9,0.6-2.1-0.3-2.9L10,56.9
		c-0.9-0.7-2.1-0.6-2.9,0.3l-0.5,0.6c-0.7,0.9-0.6,2.1,0.3,2.9l4.1,3.4C11.9,64.7,13.1,64.5,13.9,63.7z"/>
	<path fill="#CFFFB9" stroke="#006837" stroke-miterlimit="10" d="M23.6,67.2l0.2-0.7c0.4-1.1-0.2-2.2-1.3-2.6l-5-1.7
		c-1.1-0.4-2.2,0.2-2.6,1.3l-0.2,0.7c-0.4,1.1,0.2,2.2,1.3,2.6l5,1.7C22.1,68.8,23.2,68.2,23.6,67.2z"/>
	<path fill="#CFFFB9" stroke="#006837" stroke-miterlimit="10" d="M33.2,68.8l0.1-0.7c0.1-1.1-0.7-2.1-1.8-2.2l-5.3-0.6
		c-1.1-0.1-2.1,0.7-2.2,1.8l-0.1,0.7c-0.1,1.1,0.7,2.1,1.8,2.2l5.3,0.6C32,70.7,33,69.9,33.2,68.8z"/>
	<path fill="#CFFFB9" stroke="#006837" stroke-miterlimit="10" d="M42.6,71.7l0.2-0.7c0.3-1.1-0.4-2.2-1.5-2.5l-5.1-1.3
		c-1.1-0.3-2.2,0.4-2.5,1.5l-0.2,0.7c-0.3,1.1,0.4,2.2,1.5,2.5l5.1,1.3C41.3,73.4,42.4,72.8,42.6,71.7z"/>
	<path fill="#E8FFD4" stroke="#D9E021" stroke-miterlimit="10" d="M65.5,19l-0.5,0.6c-0.7,0.9-0.6,2.1,0.3,2.9l4.1,3.4
		c0.9,0.7,2.1,0.6,2.9-0.3l0.5-0.6c0.7-0.9,0.6-2.1-0.3-2.9l-4.1-3.4C67.5,18,66.3,18.1,65.5,19z"/>
	<path fill="#E8FFD4" stroke="#D9E021" stroke-miterlimit="10" d="M55.8,15.5l-0.2,0.7c-0.4,1.1,0.2,2.2,1.3,2.6l5,1.7
		c1.1,0.4,2.2-0.2,2.6-1.3l0.2-0.7c0.4-1.1-0.2-2.2-1.3-2.6l-5-1.7C57.3,13.8,56.2,14.4,55.8,15.5z"/>
	<path fill="#E8FFD4" stroke="#D9E021" stroke-miterlimit="10" d="M46.2,13.8l-0.1,0.7c-0.1,1.1,0.7,2.1,1.8,2.2l5.3,0.6
		c1.1,0.1,2.1-0.7,2.2-1.8l0.1-0.7c0.1-1.1-0.7-2.1-1.8-2.2L48.5,12C47.4,11.9,46.4,12.7,46.2,13.8z"/>
	<g>
		<path fill="#40FF35" stroke="#009245" stroke-miterlimit="10" d="M13.8,26.8L13.8,26.8c-0.9,3.6,1.3,7.3,4.9,8.2l14.7,3.7
			c3.6,0.9,7.3-1.3,8.2-4.9l0,0c0.9-3.6-1.3-7.3-4.9-8.2L22,21.9C18.4,21,14.7,23.2,13.8,26.8z"/>
		<line fill="#40FF35" stroke="#009245" stroke-linecap="round" stroke-miterlimit="10" x1="20.9" y1="18.6" x2="20.2" y2="21.5"/>
		<line fill="#40FF35" stroke="#009245" stroke-linecap="round" stroke-miterlimit="10" x1="15.4" y1="19.5" x2="17.1" y2="22"/>
		<line fill="#40FF35" stroke="#009245" stroke-linecap="round" stroke-miterlimit="10" x1="12.6" y1="23.5" x2="14.4" y2="25"/>
		<line fill="#40FF35" stroke="#009245" stroke-linecap="round" stroke-miterlimit="10" x1="13.2" y1="27.8" x2="10.2" y2="27.6"/>
		<line fill="#40FF35" stroke="#009245" stroke-linecap="round" stroke-miterlimit="10" x1="11.6" y1="33.4" x2="14.2" y2="31.9"/>
		<line fill="#40FF35" stroke="#009245" stroke-linecap="round" stroke-miterlimit="10" x1="24.5" y1="19.2" x2="23.8" y2="22.2"/>
		<line fill="#40FF35" stroke="#009245" stroke-linecap="round" stroke-miterlimit="10" x1="27.7" y1="20.2" x2="27" y2="23.1"/>
		<line fill="#40FF35" stroke="#009245" stroke-linecap="round" stroke-miterlimit="10" x1="30.5" y1="20.7" x2="29.8" y2="23.6"/>
		<line fill="#40FF35" stroke="#009245" stroke-linecap="round" stroke-miterlimit="10" x1="16.3" y1="34.3" x2="15.6" y2="37.2"/>
		<line fill="#40FF35" stroke="#009245" stroke-linecap="round" stroke-miterlimit="10" x1="19.2" y1="35.6" x2="18.5" y2="38.5"/>
		<line fill="#40FF35" stroke="#009245" stroke-linecap="round" stroke-miterlimit="10" x1="22.1" y1="36.3" x2="21.4" y2="39.2"/>
		<line fill="#40FF35" stroke="#009245" stroke-linecap="round" stroke-miterlimit="10" x1="25.5" y1="37.3" x2="24.8" y2="40.2"/>
		<line fill="#40FF35" stroke="#009245" stroke-linecap="round" stroke-miterlimit="10" x1="28.8" y1="38.1" x2="28.1" y2="41"/>
		<line fill="#40FF35" stroke="#009245" stroke-linecap="round" stroke-miterlimit="10" x1="31.3" y1="38.4" x2="30.6" y2="41.4"/>
		<line fill="#40FF35" stroke="#009245" stroke-linecap="round" stroke-miterlimit="10" x1="33.9" y1="39.3" x2="33.2" y2="42.2"/>
		<line fill="#40FF35" stroke="#009245" stroke-linecap="round" stroke-miterlimit="10" x1="36.1" y1="22.1" x2="35.4" y2="25.1"/>
		<line fill="#40FF35" stroke="#009245" stroke-linecap="round" stroke-miterlimit="10" x1="38.8" y1="22.8" x2="38.2" y2="25.7"/>
		<line fill="#40FF35" stroke="#009245" stroke-linecap="round" stroke-miterlimit="10" x1="42" y1="24.7" x2="39.9" y2="26.9"/>
		<line fill="#40FF35" stroke="#009245" stroke-linecap="round" stroke-miterlimit="10" x1="44.6" y1="28.2" x2="41.8" y2="29.1"/>
		<line fill="#40FF35" stroke="#009245" stroke-linecap="round" stroke-miterlimit="10" x1="42.2" y1="39.6" x2="39.8" y2="37.8"/>
		<line fill="#40FF35" stroke="#009245" stroke-linecap="round" stroke-miterlimit="10" x1="37.8" y1="41.9" x2="36.5" y2="39.2"/>
		<line fill="#40FF35" stroke="#009245" stroke-linecap="round" stroke-miterlimit="10" x1="45.1" y1="32.5" x2="42.1" y2="32.2"/>
		<line fill="#40FF35" stroke="#009245" stroke-linecap="round" stroke-miterlimit="10" x1="44.1" y1="37" x2="41.4" y2="35.7"/>
		<line fill="#40FF35" stroke="#009245" stroke-linecap="round" stroke-miterlimit="10" x1="33.9" y1="21.6" x2="33.2" y2="24.5"/>
		<circle fill="#40FF35" stroke="#009245" stroke-miterlimit="10" cx="22.7" cy="27.8" r="1"/>
		<circle fill="#40FF35" stroke="#009245" stroke-miterlimit="10" cx="30.2" cy="32.1" r="1.8"/>
		<circle fill="#40FF35" stroke="#009245" stroke-miterlimit="10" cx="37.4" cy="30.6" r="1.1"/>
		<circle fill="#40FF35" stroke="#009245" stroke-miterlimit="10" cx="18.8" cy="30.6" r="2.6"/>
		<circle fill="#40FF35" stroke="#009245" stroke-miterlimit="10" cx="21.4" cy="24.7" r="0.5"/>
		<circle fill="#40FF35" stroke="#009245" stroke-miterlimit="10" cx="34.7" cy="36.7" r="0.4"/>
		<circle fill="#40FF35" stroke="#009245" stroke-miterlimit="10" cx="31.4" cy="27.4" r="0.8"/>
	</g>
	<g>
		<path fill="#17D400" stroke="#006837" stroke-miterlimit="10" d="M54.5,61.9L54.5,61.9c3.4,1.6,7.4,0.1,8.9-3.3l6.3-13.8
			c1.6-3.4,0.1-7.4-3.3-8.9l0,0c-3.4-1.6-7.4-0.1-8.9,3.3L51.2,53C49.6,56.3,51.1,60.3,54.5,61.9z"/>
		<line fill="#17D400" stroke="#006837" stroke-linecap="round" stroke-miterlimit="10" x1="47.7" y1="53.4" x2="50.5" y2="54.6"/>
		<line fill="#17D400" stroke="#006837" stroke-linecap="round" stroke-miterlimit="10" x1="47.6" y1="59" x2="50.4" y2="57.8"/>
		<line fill="#17D400" stroke="#006837" stroke-linecap="round" stroke-miterlimit="10" x1="51.1" y1="62.5" x2="52.8" y2="61"/>
		<line fill="#17D400" stroke="#006837" stroke-linecap="round" stroke-miterlimit="10" x1="55.3" y1="62.7" x2="54.6" y2="65.7"/>
		<line fill="#17D400" stroke="#006837" stroke-linecap="round" stroke-miterlimit="10" x1="60.6" y1="65.3" x2="59.6" y2="62.5"/>
		<line fill="#17D400" stroke="#006837" stroke-linecap="round" stroke-miterlimit="10" x1="49" y1="50" x2="51.8" y2="51.2"/>
		<line fill="#17D400" stroke="#006837" stroke-linecap="round" stroke-miterlimit="10" x1="50.5" y1="47.1" x2="53.3" y2="48.3"/>
		<line fill="#17D400" stroke="#006837" stroke-linecap="round" stroke-miterlimit="10" x1="51.5" y1="44.4" x2="54.3" y2="45.6"/>
		<line fill="#17D400" stroke="#006837" stroke-linecap="round" stroke-miterlimit="10" x1="62.3" y1="60.9" x2="65.1" y2="62.1"/>
		<line fill="#17D400" stroke="#006837" stroke-linecap="round" stroke-miterlimit="10" x1="64.1" y1="58.3" x2="66.9" y2="59.5"/>
		<line fill="#17D400" stroke="#006837" stroke-linecap="round" stroke-miterlimit="10" x1="65.3" y1="55.5" x2="68.1" y2="56.7"/>
		<line fill="#17D400" stroke="#006837" stroke-linecap="round" stroke-miterlimit="10" x1="67" y1="52.4" x2="69.7" y2="53.6"/>
		<line fill="#17D400" stroke="#006837" stroke-linecap="round" stroke-miterlimit="10" x1="68.4" y1="49.3" x2="71.1" y2="50.5"/>
		<line fill="#17D400" stroke="#006837" stroke-linecap="round" stroke-miterlimit="10" x1="69.2" y1="46.8" x2="71.9" y2="48"/>
		<line fill="#17D400" stroke="#006837" stroke-linecap="round" stroke-miterlimit="10" x1="70.5" y1="44.5" x2="73.2" y2="45.7"/>
		<line fill="#17D400" stroke="#006837" stroke-linecap="round" stroke-miterlimit="10" x1="54" y1="39.1" x2="56.8" y2="40.3"/>
		<line fill="#17D400" stroke="#006837" stroke-linecap="round" stroke-miterlimit="10" x1="55.1" y1="36.6" x2="57.9" y2="37.8"/>
		<line fill="#17D400" stroke="#006837" stroke-linecap="round" stroke-miterlimit="10" x1="57.7" y1="33.8" x2="59.4" y2="36.3"/>
		<line fill="#17D400" stroke="#006837" stroke-linecap="round" stroke-miterlimit="10" x1="61.6" y1="31.9" x2="61.9" y2="34.9"/>
		<line fill="#17D400" stroke="#006837" stroke-linecap="round" stroke-miterlimit="10" x1="72.3" y1="36.4" x2="70" y2="38.4"/>
		<line fill="#17D400" stroke="#006837" stroke-linecap="round" stroke-miterlimit="10" x1="73.8" y1="41.1" x2="70.9" y2="41.9"/>
		<line fill="#17D400" stroke="#006837" stroke-linecap="round" stroke-miterlimit="10" x1="65.9" y1="32.2" x2="65" y2="35.1"/>
		<line fill="#17D400" stroke="#006837" stroke-linecap="round" stroke-miterlimit="10" x1="70" y1="34" x2="68.3" y2="36.4"/>
		<line fill="#17D400" stroke="#006837" stroke-linecap="round" stroke-miterlimit="10" x1="53.1" y1="41.3" x2="55.8" y2="42.5"/>
		<circle fill="#17D400" stroke="#006837" stroke-miterlimit="10" cx="59.5" cy="56.1" r="1"/>
		<circle fill="#17D400" stroke="#006837" stroke-miterlimit="10" cx="64.3" cy="42.5" r="1.8"/>
		<circle fill="#17D400" stroke="#006837" stroke-miterlimit="10" cx="57.4" cy="47.7" r="1.1"/>
		<circle fill="#17D400" stroke="#006837" stroke-miterlimit="10" cx="61.7" cy="50.4" r="2.6"/>
		<circle fill="#17D400" stroke="#006837" stroke-miterlimit="10" cx="54.5" cy="57.1" r="0.5"/>
		<circle fill="#17D400" stroke="#006837" stroke-miterlimit="10" cx="68.1" cy="43.2" r="0.4"/>
		<circle fill="#17D400" stroke="#006837" stroke-miterlimit="10" cx="62.9" cy="38.4" r="0.8"/>
	</g>
	<circle fill="#7FFFA7" stroke="#22B573" stroke-miterlimit="10" cx="37.4" cy="59.6" r="2.5"/>
	<circle fill="#00B500" cx="38.2" cy="60.3" r="0.7"/>
	<circle fill="#7FFFA7" stroke="#22B573" stroke-miterlimit="10" cx="27.7" cy="12.2" r="2.5"/>
	<circle fill="#00B500" cx="27.4" cy="11.8" r="0.7"/>
	<circle fill="#7FFFA7" stroke="#22B573" stroke-miterlimit="10" cx="69.7" cy="66.9" r="2.5"/>
	<circle fill="#00B500" cx="69.2" cy="67.2" r="0.7"/>
	<circle fill="#7FFFA7" stroke="#22B573" stroke-miterlimit="10" cx="12.9" cy="48.8" r="2.5"/>
	<circle fill="#00B500" cx="13.4" cy="48.1" r="0.7"/>
	<circle fill="#7FFFA7" stroke="#22B573" stroke-miterlimit="10" cx="67.6" cy="10" r="2.5"/>
	<circle fill="#00B500" cx="67.6" cy="10" r="0.7"/>
	<g>
	</g>
	<g>
	</g>
	<g>
	</g>
	<g>
	</g>
	<g>
	</g>
</g>
</svg>
