<?xml version="1.0" encoding="utf-8"?>
<!-- Generator: Adobe Illustrator 25.4.1, SVG Export Plug-In . SVG Version: 6.00 Build 0)  -->
<svg version="1.1" xmlns="http://www.w3.org/2000/svg" xmlns:xlink="http://www.w3.org/1999/xlink" x="0px" y="0px"
	 viewBox="0 0 80 80" enable-background="new 0 0 80 80" xml:space="preserve">
<g id="Сло_2">
</g>
<g id="Слой_1">
	<linearGradient id="SVGID_1_" gradientUnits="userSpaceOnUse" x1="40" y1="77.2611" x2="40" y2="2.7389">
		<stop  offset="2.770450e-07" style="stop-color:#7BE61C"/>
		<stop  offset="1" style="stop-color:#67D1FF"/>
	</linearGradient>
	
		<linearGradient id="SVGID_00000129164988570205494110000003767041299249873050_" gradientUnits="userSpaceOnUse" x1="40" y1="78.2611" x2="40" y2="1.7389">
		<stop  offset="2.770450e-07" style="stop-color:#7BE61C"/>
		<stop  offset="1" style="stop-color:#67D1FF"/>
	</linearGradient>
	
		<path fill="url(#SVGID_1_)" stroke="url(#SVGID_00000129164988570205494110000003767041299249873050_)" stroke-width="2" stroke-miterlimit="10" d="
		M67.2,77.3H12.8C6.8,77.3,2,72.4,2,66.4V13.6c0-6,4.9-10.8,10.8-10.8h54.3c6,0,10.8,4.9,10.8,10.8v52.9
		C78,72.4,73.2,77.3,67.2,77.3z"/>
	<g>
		<g>
			<g>
				<polyline fill="#470173" stroke="#000000" stroke-width="0.5" stroke-miterlimit="10" points="7.8,35 8.2,39.3 9.9,39.4 
					9.9,37.3 7.9,35 				"/>
				<path fill="#470173" stroke="#000000" stroke-width="0.5" stroke-miterlimit="10" d="M8.2,39.3L8.2,39.3
					c-0.8,0.6-0.9,1.2-0.1,1.7l1.9,0.1c0.9-0.6,0.9-1.2,0-1.8H8.2z"/>
				<path fill="#470173" stroke="#000000" stroke-width="0.5" stroke-miterlimit="10" d="M8.1,41.1c-0.5,0.8-0.4,1.3,0,1.8
					c0.7,0.5,1.3,0.5,1.8,0c0.6-0.5,0.6-1.1,0.1-1.7L8.1,41.1z"/>
			</g>
			<g>
				<path fill="#470173" stroke="#000000" stroke-width="0.5" stroke-miterlimit="10" d="M32.1,64.3l-0.2,4.5
					c-0.7,0.2-1.4,0.2-2.1,0l-0.2-4.5H32.1z"/>
				<path fill="#470173" stroke="#000000" stroke-width="0.5" stroke-miterlimit="10" d="M29.6,70.6c-0.8-0.7-0.5-1.3,0.2-1.9h2.1
					c0.8,0.6,0.8,1.3,0,1.9H29.6z"/>
				<path fill="#470173" stroke="#000000" stroke-width="0.5" stroke-miterlimit="10" d="M29.8,70.6c-0.5,0.4-0.7,0.9-0.1,1.6
					c0.6,0.5,1.3,0.4,2.1,0c0.5-0.4,0.5-0.9,0-1.6H29.8z"/>
			</g>
			<g>
				<path fill="#470173" stroke="#000000" stroke-width="0.5" stroke-miterlimit="10" d="M73.2,52.2l-2.9,0.5
					c0.1,1.2-0.2,3.2-0.6,5.3c0.4,0.1,0.8,0.2,1.3,0c0.4-1.3,1.1-2.2,1.7-3.1c0.1-0.2,0.2-0.4,0.2-0.6c0.1-0.3,0.2-0.7,0.2-1
					C73.3,52.9,73.3,52.5,73.2,52.2z"/>
				<path fill="#470173" stroke="#000000" stroke-width="0.5" stroke-miterlimit="10" d="M69.7,58c-1,0.4-1,1-0.3,1.6
					c0.6,0.2,1.2,0.2,1.6,0c0.8-0.5,0.8-1.1,0-1.6C70.7,58.2,70.2,58.2,69.7,58z"/>
				<path fill="#470173" stroke="#000000" stroke-width="0.5" stroke-miterlimit="10" d="M69.4,61.1c-0.5-0.4-0.4-0.9,0-1.4
					c0.6,0.1,1.1,0.2,1.5,0c0.4,0.5,0.4,1,0,1.3C70.5,61.4,70,61.3,69.4,61.1z"/>
			</g>
			<path fill="#470173" stroke="#000000" stroke-width="0.5" stroke-miterlimit="10" d="M72,52.5l2.8-0.8c0.1-2.3,0.1-4.4-0.3-6
				c-0.8-0.8-2.1-1.7-4-2.7c-0.4-2-0.3-4.5,0-7.4l-2.8,0.8l0.1,5.8L72,52.5z"/>
			<g>
				<path fill="#470173" stroke="#000000" stroke-width="0.5" stroke-miterlimit="10" d="M30.3,65.1l3.1-1.2
					c2.6-5.4,0.3-11.4-3.9-17.7l-2.2,0.5c0.7,0.4-0.5,3.1,0,4.7C27.9,53.6,31,58.7,30.3,65.1z"/>
				<path fill="#390254" stroke="#000000" stroke-width="0.5" stroke-miterlimit="10" d="M6.7,33.4l23.5,31.8
					c1.9-7.5-0.4-10.8-2.8-13.3c-0.4-0.4,0.3-4.2,0.1-4.8L6.4,24.4L6.7,33.4z"/>
			</g>
			<g>
				<path fill="#390254" stroke="#000000" stroke-width="0.5" stroke-miterlimit="10" d="M27.3,46.8l0.1-2.7
					C14.8,32.3,5.6,23.2,5.4,20.3v1.2C5.4,25.8,15.2,35.4,27.3,46.8z"/>
				<path fill="#470173" stroke="#000000" stroke-width="0.5" stroke-miterlimit="10" d="M70.9,33.4c-5.7-8-16.7-11.2-33-9.6
					c-11.3-6.1-21.7-10.7-28.3-8.2c-7.1,1.7-5.2,6.7,2.7,13.7L27,44.2L70.9,33.4z"/>
				<polygon fill="#470173" stroke="#000000" stroke-width="0.5" stroke-miterlimit="10" points="27.4,46.7 70.4,35.5 70.9,33.3 
					27.4,44 				"/>
			</g>
			<g>
				<path fill="#470173" stroke="#000000" stroke-width="0.5" stroke-miterlimit="10" d="M72.4,49L33.7,59.3c0,1.6-0.1,3.1-0.3,4.6
					L72,52.5C72.4,51.2,72.5,50,72.4,49z"/>
				<path fill="#470173" stroke="#000000" stroke-width="0.5" stroke-miterlimit="10" d="M29.5,51.9c0.2,0,38.2-9.7,38.2-9.7
					c-0.2-1.6-0.1-3.5,0-5.8l-38.2,9.8C29,48.5,29.1,50.3,29.5,51.9z"/>
				<path fill="#470173" stroke="#000000" stroke-width="0.5" stroke-miterlimit="10" d="M33.7,59.3c0.3-1,0.5-3-0.8-3.9
					c-1.4-0.9-3.4-3.3-3.3-3.5l38.2-9.7c1.1,1.7,2.7,3,4,4c0.8,0.7,0.8,1.8,0.6,2.7L33.7,59.3z"/>
			</g>
			<g>
				<path fill="#470173" stroke="#000000" stroke-width="0.5" stroke-miterlimit="10" d="M50.1,59l0.1,4.7c0.5,0.4,1.1,0.6,1.8,0.3
					c0.6-0.6,0.3-1.2-0.6-1.8c-0.3-1-0.3-2.2-0.2-3.5L50.1,59z"/>
				<path fill="#470173" stroke="#000000" stroke-width="0.5" stroke-miterlimit="10" d="M53.6,57.9c0.1,1.2,0.2,2.2,0.4,2.7
					c0.9,0.1,1.7,0.2,2.5,0.2c1,0.3,1.1,0.8,0.4,1.6c-0.8,0-1.6-0.1-2.2-0.5c-0.6-0.3-1.1-0.8-1.4-1.6l-0.2-2L53.6,57.9z"/>
				<polygon fill="#470173" stroke="#000000" stroke-width="0.5" stroke-miterlimit="10" points="53.1,59.7 53.2,60.5 51.2,61 
					51.1,60.2 				"/>
			</g>
		</g>
		<g>
			<path fill="#865A14" stroke="#000000" stroke-width="0.5" stroke-miterlimit="10" d="M45.6,41.4l0.9,0.2l1.2-1.5l0.5-4.6h-1.6
				l0.3,1c-0.7,0.6-1.1,1.4-0.5,3.3c-0.3,0-0.5,0.1-0.6,0.3c-0.2,0.2-0.4,0.6-0.4,0.9C45.4,41.3,45.5,41.4,45.6,41.4z"/>
			<path fill="#865A14" stroke="#000000" stroke-width="0.5" stroke-miterlimit="10" d="M54.7,42.5V41l-8.2,0.6l-0.9-0.1v1.5
				c1.1,1.2,3,1.5,5.4,1.3C52.8,43.9,54.1,43.4,54.7,42.5z"/>
			<path fill="#D89F0A" stroke="#000000" stroke-width="0.5" stroke-miterlimit="10" d="M46.5,41.6l6.8-1.3c0.8,0,1.3,0.1,1.4,0.5
				c0.1,0.2-0.1,0.6-0.6,1.1c-1.9,1.3-3.8,1.6-5.7,1.1C47.5,42.6,46.7,42.3,46.5,41.6z"/>
			<path fill="#D89F0A" stroke="#000000" stroke-width="0.5" stroke-miterlimit="10" d="M46.5,41.6l7-1.3c0.2-0.9-0.2-1.2-1.1-1.1
				c1.1-0.8,0.5-2.2-0.3-3.7l0.1,0.8c0.4,0.3,0.8,0.3,1.2-0.1l0.1-1.7c-0.6-0.9-1.3-1-2-0.7l-0.2,1.6c0.1-0.8,0.1-1.5,0-2.1
				c-0.3-0.4-0.7-0.3-1,0c-0.1,0.3-0.1,0.8,0,1.3c0-0.6-0.2-1.2-0.7-1.8c-0.5-0.2-0.9,0-1,0.5l0.5,1.4l-0.7-1.3c-0.7-0.3-1,0-1,0.7
				l0.7,0.8c-0.5-0.6-1.2-0.8-2.2-0.7c-0.7,0.3-1,1-0.6,2c0.4,0.4,0.9,0.5,1.4,0.4l0.7-0.4c0-0.3,0-0.5-0.4-0.6l0.6-0.2l0.1,0.6
				c-1.3,1.1-1,2.4-0.1,3.8C46.7,40.2,46.4,40.8,46.5,41.6z"/>
			<path fill="#470173" stroke="#000000" stroke-width="0.5" stroke-miterlimit="10" d="M49.2,36.6L49.2,36.6
				c0.2-0.5,0.8-0.6,1.1-0.2l0,0c0,0.5,0.1,0.6,0.5,0.3l0,0c0.5,0,0.8,0.6,0.5,1h0c-0.4,0.2-0.4,0.4-0.1,0.6v0
				c0.2,0.5-0.3,1-0.8,0.8l0,0c-0.3-0.6-0.5-0.3-0.6,0.1l0,0c-0.4,0.3-1,0-1-0.5l0,0c0.2-0.3,0.1-0.5-0.3-0.5l0,0
				c-0.4-0.3-0.3-1,0.2-1.1v0C49.2,37.2,49.4,37.1,49.2,36.6z"/>
		</g>
	</g>
	<g>
	</g>
	<g>
	</g>
	<g>
	</g>
	<g>
	</g>
	<g>
	</g>
</g>
</svg>
