<?xml version="1.0" encoding="utf-8"?>
<!-- Generator: Adobe Illustrator 25.4.1, SVG Export Plug-In . SVG Version: 6.00 Build 0)  -->
<svg version="1.1" id="Слой_1" xmlns="http://www.w3.org/2000/svg" xmlns:xlink="http://www.w3.org/1999/xlink" x="0px" y="0px"
	 viewBox="0 0 80 80" enable-background="new 0 0 80 80" xml:space="preserve">
<g id="Сло_2" display="none">
	<path display="inline" d="M50.9,29.6c2.6,0,4.6-2,4.6-4.6s-2-4.6-4.6-4.6s-4.6,2-4.6,4.6C46.3,27.6,48.3,29.6,50.9,29.6z"/>
	<path display="inline" d="M72.7,60.1c-2.1-1.4-4.7-2.9-6.9-4.4c-1.9-2.9-3.7-5.8-5.6-8.8c-0.6-3.5-1.2-6.9-1.8-10.4
		c2-0.2,4-0.4,6-0.6c1.7,1.1,3.5,2.3,5.1,3.3c0.9,0.5,1.5,0.3,2.2-0.3l0,0c0.5-0.8,0.6-1.6-0.2-2.3c-1.4-1.3-3.1-2.8-4.6-4.1
		c-0.6-0.5-1-0.7-1.8-0.7c-3.7-0.2-7.7-0.4-11.4-0.7c-0.5,0-0.5,0-0.7,0s-0.3,0-0.5,0.1c-0.9,0.2-1.4,0.4-2.3,1
		c-2.7,1.7-5.6,3.5-8.4,5.1c-1.7-0.9-3.6-2.1-5.3-2.9c-1-0.5-1.7-0.1-2.4,0.6L34,35.1c0,0.4-0.2,0.9,0,1.3c0.2,0.5,0.3,0.8,0.8,1.1
		c2,1.2,4.3,2.6,6.3,3.7c1,0.6,1.6,0.6,2.7,0.2c1.7-0.5,3.6-1.4,5.3-2c0.6,2.4,1.2,4.8,1.8,7.2c-2.4,0-5.1-0.1-7.5,0
		c-1.2,0-1.9,0.4-2.6,1.2c-0.7,0.9-0.9,1.6-0.7,2.8c0.6,3.2,1.3,7,2,10.2c0.3,1.4,1.2,1.7,2.4,1.8h0.1c1.1-0.4,1.9-1,1.8-2.4
		c-0.1-2.3-0.5-4.9-0.6-7.3c3.5,0.1,7,0.2,10.5,0.3c1.6,1.6,3.3,3.4,4.9,4.9c0.9,0.8,1.3,1.2,2.4,1.8c2.3,1.2,4.9,2.8,7.2,3.9
		c1.3,0.6,2.1,0.1,2.9-0.8v-0.1C73.9,61.8,73.9,60.9,72.7,60.1z"/>
</g>
<g id="Слой_1_00000058563192329992283280000004044796156013111720_">
	<path fill="none" stroke="#000000" stroke-width="2" stroke-miterlimit="10" d="M67.2,77.5H12.8C6.8,77.5,2,72.7,2,66.7V13.8
		C2,7.9,6.8,3,12.8,3h54.3C73.2,3,78,7.9,78,13.8v52.9C78,72.7,73.2,77.5,67.2,77.5z"/>
	<g>
		<g>
			<path fill="none" stroke="#000415" stroke-miterlimit="10" d="M33.9,50.8c0,5.9-1.1,10.6-2.6,10.6"/>
			<path fill="none" stroke="#000415" stroke-miterlimit="10" d="M34.9,50.8c0,5.9-1.1,10.6-2.6,10.6"/>
			<path fill="none" stroke="#000415" stroke-miterlimit="10" d="M35.6,50.8c0,5.9-1.1,10.6-2.6,10.6"/>
		</g>
		<path fill="none" stroke="#000415" stroke-miterlimit="10" d="M32.3,61.4c-1.4-0.2-2.7,0.7-2.9,2.1"/>
		<path fill="none" stroke="#000415" stroke-miterlimit="10" d="M33.7,61.4c-1.4-0.2-2.7,0.7-2.9,2.1"/>
		<path fill="none" stroke="#000415" stroke-miterlimit="10" d="M35,63.6c-0.2-1.4-1.4-2.4-2.8-2.2"/>
		<g>
			<g>
				<path fill="none" stroke="#000415" stroke-miterlimit="10" d="M46.6,50.8c0,5.9,1.1,10.6,2.6,10.6"/>
				<path fill="none" stroke="#000415" stroke-miterlimit="10" d="M45.7,50.8c0,5.9,1.1,10.6,2.6,10.6"/>
				<path fill="none" stroke="#000415" stroke-miterlimit="10" d="M45,50.8c0,5.9,1.1,10.6,2.6,10.6"/>
			</g>
			<path fill="none" stroke="#000415" stroke-miterlimit="10" d="M48.3,61.4c1.4-0.2,2.7,0.7,2.9,2.1"/>
			<path fill="none" stroke="#000415" stroke-miterlimit="10" d="M46.8,61.4c1.4-0.2,2.7,0.7,2.9,2.1"/>
			<path fill="none" stroke="#000415" stroke-miterlimit="10" d="M45.6,63.6c0.2-1.4,1.4-2.4,2.8-2.2"/>
		</g>
		<g>
			<path fill="#110035" stroke="#FFFFFF" stroke-miterlimit="10" d="M12.1,56.9c-7-4.6-9.5-38.1,3.2-40.4
				c8.4-1.5,29.8,14.3,28.5,20.2C42.6,44.2,17.7,60.5,12.1,56.9z"/>
		</g>
		<g>
			<path fill="#110035" stroke="#FFFFFF" stroke-miterlimit="10" d="M36.1,36.7C34.9,30.8,56.2,15,64.7,16.5
				c12.8,2.3,10.2,35.8,3.2,40.4C62.3,60.5,37.4,44.2,36.1,36.7z"/>
		</g>
		<g>
			<g>
				<path fill="#110035" stroke="#FFFFFF" stroke-miterlimit="10" d="M20,28.8c4.8-7.2,39-10.2,41.2,2.8c1.4,8.6-15,30.6-21,29.4
					C32.8,59.5,16.2,34.2,20,28.8z"/>
			</g>
		</g>
		<g>
			<path stroke="#FFFFFF" stroke-miterlimit="10" d="M36.7,47.2c0.8-2,7.1-2.8,7.6,0.8c0.3,2.4-2.8,8.4-3.9,8.1
				C39.1,55.7,36.1,48.7,36.7,47.2z"/>
		</g>
		<circle fill="#FFFFFF" stroke="#FFFFFF" stroke-miterlimit="10" cx="32.6" cy="35.4" r="4.1"/>
		<circle fill="#110035" stroke="#110035" stroke-miterlimit="10" cx="32.6" cy="35.9" r="2.1"/>
		<circle fill="#FFFFFF" stroke="#FFFFFF" stroke-miterlimit="10" cx="48" cy="35.4" r="4.1"/>
		<circle fill="#110035" stroke="#110035" stroke-miterlimit="10" cx="48" cy="35.9" r="2.1"/>
		<g>
			<path fill="none" stroke="#FFFFFF" stroke-miterlimit="10" d="M11.6,31.8c0,14.1,3.5,25.6,7.9,25.6"/>
			<path fill="none" stroke="#FFFFFF" stroke-miterlimit="10" d="M17.2,31.8c0,14.1,3.5,25.6,7.9,25.6"/>
		</g>
		<g>
			<path fill="none" stroke="#FFFFFF" stroke-miterlimit="10" d="M69.9,31.8c0,14.1-3.5,25.6-7.9,25.6"/>
			<path fill="none" stroke="#FFFFFF" stroke-miterlimit="10" d="M64.2,31.8c0,14.1-3.5,25.6-7.9,25.6"/>
		</g>
	</g>
</g>
</svg>
