<?xml version="1.0" encoding="utf-8"?>
<!-- Generator: Adobe Illustrator 25.4.1, SVG Export Plug-In . SVG Version: 6.00 Build 0)  -->
<svg version="1.1" xmlns="http://www.w3.org/2000/svg" xmlns:xlink="http://www.w3.org/1999/xlink" x="0px" y="0px"
	 viewBox="0 0 80 80" enable-background="new 0 0 80 80" xml:space="preserve">
<g id="Сло_2">
</g>
<g id="Слой_1">
	<path fill="none" stroke="#26532F" stroke-miterlimit="10" d="M67.2,77.5H12.8C6.8,77.5,2,72.7,2,66.7V13.8C2,7.9,6.8,3,12.8,3
		h54.3C73.2,3,78,7.9,78,13.8v52.9C78,72.7,73.2,77.5,67.2,77.5z"/>
	<rect x="23.3" y="60.1" fill="#42210B" stroke="#42210B" stroke-miterlimit="10" width="6.5" height="6.5"/>
	<polygon fill="#006837" stroke="#26532F" stroke-miterlimit="10" points="42.1,60.1 11.1,60.1 18.9,46.7 19.5,45.6 13.1,45.6 
		19.8,34 21.1,31.8 17.3,31.8 21.9,23.7 26.6,15.6 31.3,23.7 35.9,31.8 32.1,31.8 33.4,34 40.1,45.6 33.8,45.6 34.4,46.7 	"/>
	<g>
		<rect x="32.1" y="60.4" fill="#00FF00" width="9.4" height="7.9"/>
		<rect x="32.1" y="63.6" fill="#D9E021" width="9.4" height="1.4"/>
		
			<rect x="32.9" y="63.7" transform="matrix(-1.836970e-16 1 -1 -1.836970e-16 101.2358 27.5484)" fill="#D9E021" width="7.9" height="1.4"/>
		<g>
			<g>
				<path fill="#FBB03B" d="M36.8,60.4c-0.6,0-1.2,0.1-1.6,0.6c-0.1,0.1-0.2,0.2-0.2,0.4c-0.1,0.1-0.1,0.3-0.2,0.4
					c0-0.1,0,0.1,0,0.1c0,0,0,0,0,0.1c0-0.1,0,0,0,0c0,0-0.1,0.1,0,0c0,0-0.1,0-0.1,0c0,0-0.1,0-0.1,0c0,0,0,0-0.1,0c-0.1,0,0,0,0,0
					c-0.2,0-0.4,0.2-0.4,0.4c0,0.2,0.2,0.4,0.4,0.4c0.3,0,0.6-0.1,0.8-0.4c0.1-0.1,0.2-0.3,0.3-0.4c0-0.1,0.1-0.1,0.1-0.2
					c0,0,0,0,0-0.1c0,0.1,0-0.1,0-0.1c0,0,0-0.1,0-0.1c0,0,0.1-0.1,0,0c0,0,0.1-0.1,0.1-0.1c0,0,0.1-0.1,0,0c0,0,0,0,0.1,0
					c0.1,0,0.1-0.1,0.2-0.1c0.1,0-0.1,0,0.1,0c0,0,0.1,0,0.1,0c0.1,0,0.2,0,0.2,0c0.1,0,0.3,0,0.4,0c0.2,0,0.4-0.2,0.4-0.4
					C37.2,60.6,37,60.4,36.8,60.4L36.8,60.4z"/>
			</g>
		</g>
		<g>
			<g>
				<path fill="#FBB03B" d="M36.7,61.2c0.1,0,0.3,0,0.4,0c0,0,0.1,0,0.1,0c0,0,0,0,0,0c0,0-0.1,0-0.1-0.1c0,0,0,0,0,0c0,0,0,0,0,0.1
					c0.1,0.2,0.2,0.4,0.3,0.6c0.2,0.5,0.7,0.8,1.2,0.9c0.2,0,0.4-0.2,0.4-0.4c0-0.2-0.2-0.4-0.4-0.4c-0.1,0,0.1,0,0,0
					c0,0-0.1,0-0.1,0c0,0-0.1,0-0.1,0c-0.1,0,0.1,0,0,0c0,0-0.1-0.1-0.1-0.1c0,0,0,0,0,0c0,0,0,0-0.1-0.1c0,0,0,0-0.1-0.1
					c0,0,0,0,0,0c0,0-0.1-0.1-0.1-0.1C38,61.4,38,61.3,38,61.2c-0.1-0.2-0.2-0.5-0.3-0.6c-0.2-0.2-0.6-0.2-0.9-0.1
					c-0.2,0-0.4,0.2-0.4,0.4C36.3,61,36.5,61.2,36.7,61.2L36.7,61.2z"/>
			</g>
		</g>
		<g>
			<g>
				<path fill="#FBB03B" d="M36.3,60.4c-0.5,0.1-1-0.1-1.4-0.3c-0.1-0.1-0.2-0.1-0.3-0.2c0,0-0.1,0-0.1-0.1c0,0,0,0.1,0,0.1
					c0,0,0.2-0.1,0.2-0.1c0.1,0,0.2,0,0.3,0c0.5,0.1,0.8,0.5,1.1,0.8c0.4,0.3,0.8,0.6,1.3,0.7c0.2,0,0.4-0.1,0.5-0.3
					c0.1-0.2-0.1-0.4-0.3-0.5c-1-0.2-1.5-1.2-2.4-1.5c-0.5-0.1-1.1,0-1.3,0.5c-0.2,0.6,0.4,0.9,0.8,1.1c0.6,0.3,1.2,0.4,1.8,0.3
					c0.2,0,0.3-0.3,0.3-0.5C36.7,60.4,36.5,60.4,36.3,60.4L36.3,60.4z"/>
			</g>
		</g>
		<g>
			<g>
				<path fill="#FBB03B" d="M37,61.1c0.4-0.2,0.8-0.6,1.3-0.8c0.3-0.2,0.7-0.3,1,0c0-0.2,0-0.4,0-0.5c-0.2,0.1-0.4,0.2-0.7,0.3
					c-0.2,0.1-0.5,0.1-0.7,0.2c-0.6,0.1-1.1,0.1-1.7,0.1c-0.2,0-0.4,0.2-0.4,0.4c0,0.2,0.2,0.4,0.4,0.4c0.6,0,1.3,0,1.9-0.1
					c0.6-0.1,1.2-0.3,1.7-0.6c0.2-0.1,0.1-0.4,0-0.5c-0.5-0.4-1.1-0.5-1.6-0.2c-0.6,0.2-1,0.6-1.5,0.9C36.1,60.7,36.5,61.3,37,61.1
					L37,61.1z"/>
			</g>
		</g>
	</g>
	<g>
		<rect x="25.5" y="63.2" fill="#F15A24" width="9.4" height="7.9"/>
		<rect x="25.5" y="66.4" fill="#C1272D" width="9.4" height="1.4"/>
		
			<rect x="26.2" y="66.5" transform="matrix(-1.836970e-16 1 -1 -1.836970e-16 97.359 37.0105)" fill="#C1272D" width="7.9" height="1.4"/>
		<g>
			<g>
				<path fill="#C1272D" d="M30.1,62.9c-0.7,0-1.5,0.1-2,0.7c-0.2,0.3-0.3,0.6-0.5,0.9c-0.1,0.2-0.3,0.4-0.6,0.4
					c-0.2,0-0.4,0.2-0.4,0.4c0,0.2,0.2,0.4,0.4,0.4c0.4,0,0.7-0.2,0.9-0.4c0.2-0.3,0.3-0.6,0.5-0.9c0.3-0.6,1-0.7,1.6-0.7
					c0.2,0,0.4-0.2,0.4-0.4C30.5,63,30.3,62.9,30.1,62.9L30.1,62.9z"/>
			</g>
		</g>
		<g>
			<g>
				<path fill="#C1272D" d="M30,63.7c0.2,0,0.3,0,0.5,0c0,0,0.1,0,0.1,0c0.1,0,0,0,0,0c0,0,0,0,0,0c0,0,0,0.1,0,0.1
					c0.1,0.2,0.2,0.5,0.4,0.8c0.3,0.6,0.8,1,1.5,1c0.2,0,0.4-0.2,0.4-0.4c0-0.2-0.2-0.4-0.4-0.4c-0.2,0-0.4-0.1-0.6-0.3
					c-0.1-0.1-0.1-0.2-0.2-0.3c-0.1-0.1-0.1-0.3-0.2-0.4c-0.1-0.3-0.2-0.6-0.4-0.8c-0.2-0.1-0.4-0.1-0.6-0.1c-0.2,0-0.4,0-0.5,0
					c-0.2,0-0.4,0.2-0.4,0.4C29.6,63.5,29.8,63.7,30,63.7L30,63.7z"/>
			</g>
		</g>
		<g>
			<g>
				<path fill="#C1272D" d="M29.5,62.8c-0.6,0.1-1.3-0.2-1.8-0.4c-0.1-0.1-0.3-0.1-0.4-0.2c0,0-0.1-0.1-0.1-0.1c0,0,0,0,0,0
					c0.1-0.2,0.5-0.2,0.6-0.1c0.6,0.2,1,0.7,1.5,1c0.5,0.4,1,0.8,1.7,0.9c0.5,0.1,0.7-0.6,0.2-0.7c-0.6-0.1-1.1-0.5-1.6-0.9
					c-0.5-0.4-1-0.9-1.6-1.1c-0.6-0.1-1.4,0-1.6,0.6c-0.2,0.7,0.6,1,1.1,1.3c0.7,0.3,1.5,0.5,2.2,0.4c0.2,0,0.3-0.3,0.3-0.5
					C29.9,62.9,29.7,62.8,29.5,62.8L29.5,62.8z"/>
			</g>
		</g>
		<g>
			<g>
				<path fill="#C1272D" d="M30.3,63.6c0.6-0.3,1-0.7,1.6-1c0.4-0.2,1.1-0.3,1.5,0c0-0.2,0-0.4,0-0.5c-0.2,0.2-0.6,0.3-0.9,0.4
					c-0.3,0.1-0.6,0.2-0.9,0.2c-0.7,0.1-1.5,0.1-2.2,0.1c-0.5,0-0.5,0.8,0,0.8c0.8,0,1.6,0,2.5-0.2c0.7-0.1,1.5-0.3,2.1-0.8
					c0.2-0.1,0.1-0.4,0-0.5c-0.6-0.5-1.3-0.5-2-0.3c-0.7,0.3-1.3,0.8-2,1.1C29.5,63.1,29.8,63.8,30.3,63.6L30.3,63.6z"/>
			</g>
		</g>
	</g>
	<g>
		
			<rect x="13.5" y="62.5" transform="matrix(-1 -4.514135e-11 4.514135e-11 -1 33.5809 130.533)" fill="#662D91" width="6.6" height="5.6"/>
		
			<rect x="13.5" y="64.7" transform="matrix(-1 -4.486779e-11 4.486779e-11 -1 33.5809 130.4353)" fill="#D9E021" width="6.6" height="1"/>
		
			<rect x="14" y="64.8" transform="matrix(-4.503083e-11 1 -1 -4.503083e-11 82.057 48.476)" fill="#D9E021" width="5.6" height="1"/>
		<g>
			<g>
				<path fill="#FBB03B" d="M16.8,63.1c0,0,0.1,0,0.1,0c0,0,0.1,0,0.1,0c0,0-0.1,0,0,0c0,0,0,0,0,0c0,0,0,0,0.1,0c0,0,0,0,0.1,0
					c0.1,0,0,0,0,0c0,0,0.1,0,0.1,0.1c0,0,0,0,0.1,0c0,0,0,0,0,0c0,0,0,0,0,0c0,0,0.1,0.1,0.1,0.1c0,0,0-0.1,0,0c0,0,0,0,0,0.1
					c0,0,0,0.1,0,0c0-0.1,0,0,0,0c0,0,0,0.1,0,0.1c0.1,0.1,0.1,0.2,0.2,0.4c0.2,0.2,0.4,0.3,0.7,0.3c0.2,0,0.4-0.2,0.4-0.4
					c0-0.2-0.2-0.4-0.4-0.4c-0.1,0,0.1,0,0,0c0,0-0.1,0-0.1,0c0,0,0.1,0,0,0c0,0,0,0,0,0c0,0,0,0,0,0c0,0,0,0,0,0c0,0,0,0,0,0
					c0,0-0.1-0.1,0,0c0,0,0,0,0,0c0,0,0-0.1,0,0c0,0,0,0,0,0c0,0,0,0,0-0.1c0-0.1-0.1-0.1-0.1-0.2c0-0.1-0.1-0.2-0.2-0.3
					c-0.3-0.3-0.8-0.5-1.2-0.4c-0.2,0-0.4,0.2-0.4,0.4C16.5,62.9,16.6,63.1,16.8,63.1L16.8,63.1z"/>
			</g>
		</g>
		<g>
			<g>
				<path fill="#FBB03B" d="M16.9,62.4c-0.1,0-0.2,0-0.3,0c-0.2,0-0.3,0-0.4,0.1C16,62.6,16,62.8,15.9,63c0,0.1-0.1,0.1-0.1,0.2
					c0,0,0,0.1-0.1,0.1c0,0,0,0,0,0c0,0,0,0,0,0c0,0,0,0,0,0c0,0,0,0,0,0c0,0-0.1,0,0,0c0,0-0.1,0-0.1,0.1c-0.1,0,0.1,0,0,0
					c0,0,0,0-0.1,0c0,0,0,0-0.1,0c-0.1,0,0.1,0,0,0c-0.2,0-0.4,0.2-0.4,0.4c0,0.2,0.2,0.4,0.4,0.4c0.2,0,0.4-0.1,0.6-0.2
					c0.2-0.1,0.3-0.3,0.4-0.5c0.1-0.1,0.1-0.3,0.2-0.4c0,0,0,0,0,0c0,0,0,0,0,0c0,0,0,0,0,0c0,0-0.1,0-0.1,0.1c0,0,0,0-0.1,0
					c0,0,0.1,0,0.1,0c0.1,0,0.2,0,0.3,0c0.2,0,0.4-0.2,0.4-0.4C17.3,62.6,17.1,62.4,16.9,62.4L16.9,62.4z"/>
			</g>
		</g>
		<g>
			<g>
				<path fill="#FBB03B" d="M17,63.1c0.4,0.1,0.8,0,1.2-0.2c0.3-0.1,0.8-0.3,0.8-0.8c0-0.5-0.5-0.7-1-0.6c-0.4,0.1-0.7,0.3-1,0.6
					c-0.2,0.1-0.3,0.2-0.4,0.3c-0.1,0-0.2,0.1-0.2,0.1c-0.1,0,0,0,0,0c0,0,0,0-0.1,0c0,0-0.1,0-0.1,0c-0.2,0-0.3,0.3-0.3,0.5
					c0.1,0.2,0.3,0.3,0.5,0.3c0.4-0.1,0.7-0.3,1-0.5c0.1-0.1,0.3-0.2,0.4-0.4c0,0,0,0,0.1-0.1c0,0,0,0,0,0c0,0,0.1,0,0.1-0.1
					c0.1-0.1,0.1-0.1,0.2-0.1c0,0,0,0,0.1,0c0,0,0,0,0,0c0,0,0.1,0,0.1,0c0,0,0,0,0.1,0c0,0,0,0,0,0c0,0,0,0,0,0c0,0,0,0,0,0
					c0,0,0-0.1,0-0.1c0,0,0-0.1,0.1-0.1c0,0.1,0,0,0,0c-0.1,0-0.1,0.1-0.2,0.1c-0.2,0.1-0.3,0.1-0.5,0.2c0,0-0.1,0-0.1,0
					c-0.1,0,0,0-0.1,0c0,0-0.1,0-0.1,0c0,0-0.1,0-0.1,0c0,0-0.1,0,0,0c-0.2,0-0.4,0-0.5,0.3C16.7,62.8,16.8,63,17,63.1L17,63.1z"/>
			</g>
		</g>
		<g>
			<g>
				<path fill="#FBB03B" d="M17,62.4c-0.4-0.2-0.7-0.5-1.1-0.7c-0.4-0.2-0.9-0.1-1.3,0.2c-0.1,0.1-0.1,0.4,0,0.5
					c0.7,0.6,1.8,0.5,2.6,0.6c0.2,0,0.4-0.2,0.4-0.4c0-0.2-0.2-0.4-0.4-0.4c-0.4,0-0.8,0-1.2-0.1c0.1,0-0.1,0-0.1,0c0,0-0.1,0-0.1,0
					c-0.1,0-0.2,0-0.3-0.1c0,0-0.1,0-0.1,0c0,0-0.1,0-0.1,0c0,0-0.1,0-0.1-0.1c0,0-0.1-0.1-0.1,0c0,0.2,0,0.4,0,0.5c0,0,0,0,0,0
					c0,0,0,0,0,0c0,0,0,0,0.1,0c0,0,0.1,0,0.1,0c0,0,0.1,0,0.1,0c0,0,0.1,0,0.1,0c0,0,0.1,0,0.1,0c0.1,0,0.1,0,0.2,0.1
					c0.3,0.2,0.6,0.4,0.9,0.6c0.2,0.1,0.4,0.1,0.5-0.1C17.3,62.7,17.2,62.5,17,62.4L17,62.4z"/>
			</g>
		</g>
	</g>
	<g>
		
			<rect x="17.7" y="66.1" transform="matrix(-1 -4.486779e-11 4.486779e-11 -1 42.0253 137.7896)" fill="#9E005D" width="6.6" height="5.6"/>
		
			<rect x="17.7" y="68.4" transform="matrix(-1 -4.486779e-11 4.486779e-11 -1 42.0253 137.6919)" fill="#C1272D" width="6.6" height="1"/>
		
			<rect x="18.2" y="68.4" transform="matrix(-4.486829e-11 1 -1 -4.486829e-11 89.9074 47.8822)" fill="#C1272D" width="5.6" height="1"/>
		<g>
			<g>
				<path fill="#C1272D" d="M21.1,66.5c0.1,0,0.1,0,0.2,0c0,0,0.1,0,0.1,0c0,0,0.1,0,0,0c0.1,0,0.1,0,0.2,0c0,0,0.1,0,0.1,0
					c0,0,0,0,0,0c0,0,0.1,0,0.1,0.1c0,0,0.1,0.1,0,0c0,0,0,0,0,0c0,0,0.1,0.1,0.1,0.1c-0.1-0.1,0,0,0,0c0,0,0,0,0,0.1c0,0,0,0.1,0,0
					c0,0,0,0.1,0,0.1c0,0.1,0,0.1,0.1,0.2c0.1,0.1,0.1,0.3,0.2,0.4c0.2,0.2,0.5,0.3,0.8,0.4c0.2,0,0.4-0.2,0.4-0.4
					c0-0.2-0.2-0.4-0.4-0.4c-0.1,0,0,0,0,0c0,0-0.1,0-0.1,0c0.1,0,0,0,0,0c0,0,0,0-0.1,0c0.1,0,0,0,0,0c0,0,0,0,0,0c0.1,0.1,0,0,0,0
					c0,0,0,0,0-0.1c0-0.1,0,0.1,0,0c0,0,0,0,0-0.1c0-0.1-0.1-0.1-0.1-0.2c-0.1-0.1-0.1-0.2-0.2-0.3c-0.4-0.4-1-0.6-1.5-0.5
					c-0.2,0-0.4,0.2-0.4,0.4C20.7,66.3,20.8,66.5,21.1,66.5L21.1,66.5z"/>
			</g>
		</g>
		<g>
			<g>
				<path fill="#C1272D" d="M21.2,65.8c-0.1,0-0.2,0-0.4,0c-0.2,0-0.3,0-0.4,0.1c-0.2,0.1-0.3,0.4-0.4,0.6c0,0.1-0.1,0.2-0.1,0.3
					c0,0-0.1,0.1-0.1,0.1c0,0.1,0,0,0,0c0,0,0,0,0,0.1c0,0,0,0-0.1,0.1c0,0,0,0,0,0c0,0,0,0,0,0c0,0-0.1,0.1-0.1,0.1
					c-0.1,0,0.1,0,0,0c0,0,0,0-0.1,0c0,0-0.1,0-0.1,0c-0.1,0,0.1,0,0,0c-0.2,0-0.4,0.2-0.4,0.4c0,0.2,0.2,0.4,0.4,0.4
					c0.2,0,0.5-0.1,0.7-0.2c0.2-0.1,0.3-0.3,0.5-0.6c0.1-0.2,0.2-0.4,0.2-0.5c0,0,0,0,0-0.1c0,0,0,0,0,0c0,0,0,0,0,0
					c0,0-0.1,0-0.1,0c0,0,0.1,0,0.1,0c0.1,0,0.3,0,0.4,0c0.2,0,0.4-0.2,0.4-0.4C21.5,65.9,21.4,65.8,21.2,65.8L21.2,65.8z"/>
			</g>
		</g>
		<g>
			<g>
				<path fill="#C1272D" d="M21.3,66.4c0.5,0.1,1,0,1.5-0.2c0.4-0.2,1-0.4,1-0.9c0-0.6-0.6-0.8-1.1-0.7c-0.5,0.1-0.9,0.4-1.3,0.7
					c-0.4,0.3-0.7,0.6-1.2,0.7c-0.2,0-0.3,0.3-0.3,0.5c0.1,0.2,0.3,0.3,0.5,0.3c0.5-0.1,0.9-0.4,1.2-0.7c0.3-0.3,0.6-0.6,1-0.7
					c0.1,0,0.1,0,0.2,0c0,0,0.1,0,0.1,0c0,0,0,0,0,0c0,0,0,0,0-0.1c0,0,0-0.1,0-0.1c0,0,0,0-0.1,0c-0.1,0.1-0.2,0.1-0.3,0.2
					c-0.4,0.2-0.8,0.4-1.2,0.3c-0.2,0-0.4,0.1-0.5,0.3C21,66.1,21.1,66.4,21.3,66.4L21.3,66.4z"/>
			</g>
		</g>
		<g>
			<g>
				<path fill="#C1272D" d="M21.3,65.8c-0.5-0.3-0.9-0.6-1.4-0.8c-0.5-0.2-1.1-0.1-1.5,0.2c-0.1,0.1-0.1,0.4,0,0.5
					c0.4,0.3,1,0.5,1.6,0.6c0.6,0.1,1.2,0.1,1.8,0.1c0.2,0,0.4-0.2,0.4-0.4c0-0.2-0.2-0.4-0.4-0.4c-0.5,0-1,0-1.6-0.1
					c-0.2,0-0.4-0.1-0.6-0.1c-0.2-0.1-0.4-0.1-0.6-0.2c0,0.2,0,0.4,0,0.5c0.2-0.2,0.6-0.1,0.9,0c0.4,0.2,0.7,0.5,1.1,0.7
					c0.2,0.1,0.4,0,0.5-0.1C21.5,66.1,21.5,65.9,21.3,65.8L21.3,65.8z"/>
			</g>
		</g>
	</g>
	<polygon fill="#ED1C24" stroke="#C1272D" stroke-miterlimit="10" points="26.6,9.9 27.7,12.1 30.1,12.5 28.4,14.2 28.8,16.6 
		26.6,15.5 24.4,16.6 24.8,14.2 23.1,12.5 25.5,12.1 	"/>
	<g>
		<path fill="none" stroke="#F7931E" stroke-miterlimit="10" d="M32.1,24.4c0,3.4-6.5,6.2-14.5,6.2"/>
		<path fill="none" stroke="#F7931E" stroke-miterlimit="10" d="M17.6,30.6c0,5.6,8.9,10.1,19.9,10.1"/>
		<path fill="none" stroke="#F7931E" stroke-miterlimit="10" d="M37.5,40.6c0,8.8-10.9,16-24.4,16"/>
	</g>
	<g>
		<path fill="none" stroke="#FCEE21" stroke-miterlimit="10" d="M23.4,21.1c0,4.7,5.1,8.5,11.4,8.5"/>
		<path fill="none" stroke="#FCEE21" stroke-miterlimit="10" d="M34.9,29.5c0,5.9-8.3,10.7-18.7,10.7"/>
		<path fill="none" stroke="#FCEE21" stroke-miterlimit="10" d="M16.2,40.3c0,9,10.8,16.3,24.3,16.3"/>
	</g>
	<circle fill="#29ABE2" stroke="#0071BC" stroke-miterlimit="10" cx="27.2" cy="34.2" r="1.7"/>
	<circle fill="#C69C6D" stroke="#754C24" stroke-miterlimit="10" cx="17.6" cy="52.4" r="1.3"/>
	<circle fill="#2E3192" stroke="#1B1464" stroke-miterlimit="10" cx="26.6" cy="57.5" r="1.7"/>
	<circle fill="#ED1E79" stroke="#D4145A" stroke-miterlimit="10" cx="32.2" cy="45" r="1.3"/>
	<circle fill="#C7B299" stroke="#998675" stroke-miterlimit="10" cx="25.9" cy="46.3" r="1.3"/>
	<circle fill="#F7931E" stroke="#F15A24" stroke-miterlimit="10" cx="19.7" cy="42.9" r="1.7"/>
	<circle fill="#93278F" stroke="#662D91" stroke-miterlimit="10" cx="28.8" cy="23.6" r="1.7"/>
	<circle fill="#ED1C24" stroke="#C1272D" stroke-miterlimit="10" cx="21.4" cy="27.4" r="1.3"/>
	<g>
		<circle fill="#FFFFFF" stroke="#E6E6E6" stroke-width="0.5" stroke-miterlimit="10" cx="64" cy="36.8" r="1"/>
		<path fill="#ED1C24" stroke="#C1272D" stroke-miterlimit="10" d="M67.7,66.7H51.6V50.3c0-3.3,2.7-5.9,5.9-5.9h4.3
			c3.3,0,5.9,2.7,5.9,5.9V66.7z"/>
		<rect x="58.2" y="44.5" fill="#FFFFFF" stroke="#C1272D" stroke-miterlimit="10" width="2.9" height="22.2"/>
		<path fill="#ED1C24" stroke="#C1272D" stroke-miterlimit="10" d="M51.6,57.5L51.6,57.5c-1.7,0-3-1.3-3-3v-5.5c0-1.7,1.3-3,3-3h0
			c1.7,0,3,1.3,3,3v5.5C54.6,56.2,53.2,57.5,51.6,57.5z"/>
		<path fill="#ED1C24" stroke="#C1272D" stroke-miterlimit="10" d="M67.7,57.5L67.7,57.5c-1.7,0-3-1.3-3-3v-5.5c0-1.7,1.3-3,3-3l0,0
			c1.7,0,3,1.3,3,3v5.5C70.8,56.2,69.4,57.5,67.7,57.5z"/>
		<path fill="#ED1C24" stroke="#C1272D" stroke-miterlimit="10" d="M66.1,70.8h-2.7c-1.7,0-3-1.3-3-3v-4.1c0-1.7,1.3-3,3-3h2.7
			c1.7,0,3,1.3,3,3v4.1C69.1,69.5,67.8,70.8,66.1,70.8z"/>
		<path fill="#ED1C24" stroke="#C1272D" stroke-miterlimit="10" d="M66.9,60.6h-4.1c0,0-0.1,0-0.1-0.1l0,0c0-1.1,0.9-2.1,2.1-2.1h0
			C65.9,58.4,66.9,59.4,66.9,60.6L66.9,60.6z"/>
		<linearGradient id="SVGID_1_" gradientUnits="userSpaceOnUse" x1="51.2853" y1="41.5015" x2="51.2853" y2="69.5512">
			<stop  offset="0" style="stop-color:#3E00B9"/>
			<stop  offset="1" style="stop-color:#004EE7"/>
		</linearGradient>
		
			<line fill="#0000FF" stroke="url(#SVGID_1_)" stroke-width="1.5" stroke-linecap="round" stroke-linejoin="round" stroke-miterlimit="10" x1="49.2" y1="42.3" x2="53.4" y2="68.8"/>
		
			<path fill="#C7B299" stroke="#998675" stroke-width="0.5" stroke-linecap="round" stroke-linejoin="round" stroke-miterlimit="10" d="
			M61.1,45.4h-3c-1.1,0-2-0.9-2-2v-3c0-1.1,0.9-2,2-2h3c1.1,0,2,0.9,2,2v3C63.1,44.5,62.2,45.4,61.1,45.4z"/>
		<g>
			<path fill="#ED1C24" stroke="#C1272D" stroke-miterlimit="10" d="M55.3,38.5L55.3,38.5c0-0.9,0.8-1.7,1.7-1.7h5.2
				c0.9,0,1.7,0.8,1.7,1.7v1.3c0,0.2-0.2,0.5-0.5,0.5H57C56.1,40.2,55.3,39.4,55.3,38.5z"/>
		</g>
		<path fill="#FFFFFF" d="M59.6,49.9L59.6,49.9C59.6,49.9,59.6,49.9,59.6,49.9C59.6,49.9,59.6,49.9,59.6,49.9z"/>
		<path fill="#FFFFFF" d="M59.4,49.9C59.4,49.9,59.4,49.9,59.4,49.9L59.4,49.9C59.4,49.9,59.4,49.9,59.4,49.9z"/>
		<g>
			<path fill="#FFFFFF" stroke="#E6E6E6" stroke-width="0.25" stroke-miterlimit="10" d="M63.3,43.3c0,3.4-1.6,6.2-3.5,6.3
				c0,0,0,0,0,0h0c0,0,0,0,0,0c0,0,0,0,0,0h0c0,0,0,0,0,0c-2-0.1-3.5-2.9-3.5-6.3h0.4l0-0.2c2.8,0.7,3.6,0.7,6.5,0l0,0.2H63.3z"/>
		</g>
		<path fill="#998675" stroke="#998675" stroke-width="0.25" stroke-miterlimit="10" d="M58.4,42.6L58.4,42.6
			c-0.2,0.2-0.5,0.2-0.7,0l0,0c-0.2-0.2-0.2-0.5,0-0.7v0c0.2-0.2,0.5-0.2,0.7,0v0C58.6,42,58.6,42.4,58.4,42.6z"/>
		<path fill="#998675" stroke="#998675" stroke-width="0.25" stroke-miterlimit="10" d="M61.3,42.7L61.3,42.7
			c-0.3,0-0.5-0.2-0.5-0.5v0c0-0.3,0.2-0.5,0.5-0.5h0c0.3,0,0.5,0.2,0.5,0.5v0C61.9,42.5,61.6,42.7,61.3,42.7z"/>
		<polygon fill="#FCEE21" stroke="#FFFF00" stroke-miterlimit="10" points="48.3,37.2 49.3,38.6 51,38.6 50,40 50.6,41.7 48.9,41.1 
			47.5,42.2 47.5,40.4 46,39.4 47.7,38.9 		"/>
	</g>
	<g>
	</g>
	<g>
	</g>
	<g>
	</g>
	<g>
	</g>
	<g>
	</g>
</g>
</svg>
