<?xml version="1.0" encoding="utf-8"?>
<!-- Generator: Adobe Illustrator 25.4.1, SVG Export Plug-In . SVG Version: 6.00 Build 0)  -->
<svg version="1.1" xmlns="http://www.w3.org/2000/svg" xmlns:xlink="http://www.w3.org/1999/xlink" x="0px" y="0px"
	 viewBox="0 0 80 80" enable-background="new 0 0 80 80" xml:space="preserve">
<g id="Слой_2">
</g>
<g id="Слой_1">
	
		<radialGradient id="SVGID_1_" cx="40" cy="40.2611" r="37.6356" gradientTransform="matrix(1 0 0 4 0 -120.7834)" gradientUnits="userSpaceOnUse">
		<stop  offset="0" style="stop-color:#FFFFFF"/>
		<stop  offset="0.3726" style="stop-color:#FFFEFD"/>
		<stop  offset="0.5069" style="stop-color:#FDF9F6"/>
		<stop  offset="0.6026" style="stop-color:#FAF2EB"/>
		<stop  offset="0.68" style="stop-color:#F6E7DA"/>
		<stop  offset="0.7463" style="stop-color:#F0D9C4"/>
		<stop  offset="0.805" style="stop-color:#E9C7A8"/>
		<stop  offset="0.8581" style="stop-color:#E1B288"/>
		<stop  offset="0.9069" style="stop-color:#D89A62"/>
		<stop  offset="0.9523" style="stop-color:#CD7E37"/>
		<stop  offset="0.9926" style="stop-color:#C16009"/>
		<stop  offset="1" style="stop-color:#BF5A00"/>
	</radialGradient>
	
		<radialGradient id="SVGID_00000052064048836981114500000003498753870384628886_" cx="40" cy="40.2611" r="38.6356" gradientTransform="matrix(1 0 0 2 0 0)" gradientUnits="userSpaceOnUse">
		<stop  offset="0" style="stop-color:#FFFFFF"/>
		<stop  offset="0.3726" style="stop-color:#FFFEFD"/>
		<stop  offset="0.5069" style="stop-color:#FDF9F6"/>
		<stop  offset="0.6026" style="stop-color:#FAF2EB"/>
		<stop  offset="0.68" style="stop-color:#F6E7DA"/>
		<stop  offset="0.7463" style="stop-color:#F0D9C4"/>
		<stop  offset="0.805" style="stop-color:#E9C7A8"/>
		<stop  offset="0.8581" style="stop-color:#E1B288"/>
		<stop  offset="0.9069" style="stop-color:#D89A62"/>
		<stop  offset="0.9523" style="stop-color:#CD7E37"/>
		<stop  offset="0.9926" style="stop-color:#C16009"/>
		<stop  offset="1" style="stop-color:#BF5A00"/>
	</radialGradient>
	
		<path fill="url(#SVGID_1_)" stroke="url(#SVGID_00000052064048836981114500000003498753870384628886_)" stroke-width="2" stroke-miterlimit="10" d="
		M67.2,77.5H12.8C6.8,77.5,2,72.7,2,66.7V13.8C2,7.9,6.8,3,12.8,3h54.3C73.2,3,78,7.9,78,13.8v52.9C78,72.7,73.2,77.5,67.2,77.5z"/>
	<g>
		
			<linearGradient id="SVGID_00000090263577606949064540000012140741891147422366_" gradientUnits="userSpaceOnUse" x1="22.8891" y1="49.9101" x2="39.6262" y2="49.9101">
			<stop  offset="0" style="stop-color:#FF7300"/>
			<stop  offset="2.226436e-02" style="stop-color:#F97C01"/>
			<stop  offset="5.916939e-02" style="stop-color:#EA9602"/>
			<stop  offset="6.942856e-02" style="stop-color:#E59E03"/>
			<stop  offset="0.8652" style="stop-color:#E5C500"/>
			<stop  offset="0.9944" style="stop-color:#BF6F00"/>
		</linearGradient>
		
			<path fill="#FFFFFF" stroke="url(#SVGID_00000090263577606949064540000012140741891147422366_)" stroke-width="2" stroke-miterlimit="10" d="
			M23.8,28.5C39,66.3,24.4,78.1,39,66.3"/>
		
			<linearGradient id="SVGID_00000161616776585117353620000010428113451530598025_" gradientUnits="userSpaceOnUse" x1="41.5886" y1="38.1891" x2="68.0355" y2="38.1891">
			<stop  offset="0" style="stop-color:#FF7300"/>
			<stop  offset="2.226436e-02" style="stop-color:#F97C01"/>
			<stop  offset="5.916939e-02" style="stop-color:#EA9602"/>
			<stop  offset="6.942856e-02" style="stop-color:#E59E03"/>
			<stop  offset="0.8652" style="stop-color:#E5C500"/>
			<stop  offset="0.9944" style="stop-color:#BF6F00"/>
		</linearGradient>
		
			<path fill="#FFFFFF" stroke="url(#SVGID_00000161616776585117353620000010428113451530598025_)" stroke-width="2" stroke-miterlimit="10" d="
			M42.5,19.4C59.3,56.4,77.9,54,59.3,56.4"/>
		
			<linearGradient id="SVGID_00000169557498257068012320000010519276172465160593_" gradientUnits="userSpaceOnUse" x1="30.5841" y1="62.4049" x2="68.3423" y2="62.4049">
			<stop  offset="0" style="stop-color:#FF7300"/>
			<stop  offset="2.226436e-02" style="stop-color:#F97C01"/>
			<stop  offset="5.916939e-02" style="stop-color:#EA9602"/>
			<stop  offset="6.942856e-02" style="stop-color:#E59E03"/>
			<stop  offset="0.8652" style="stop-color:#E5C500"/>
			<stop  offset="0.9944" style="stop-color:#BF6F00"/>
		</linearGradient>
		
			<ellipse transform="matrix(0.9196 -0.3928 0.3928 0.9196 -20.5374 24.4458)" fill="#FFFFFF" stroke="url(#SVGID_00000169557498257068012320000010519276172465160593_)" stroke-width="2" stroke-miterlimit="10" cx="49.5" cy="62.4" rx="19.4" ry="4"/>
		<g>
			<path fill="#FF0000" stroke="#FFFFFF" stroke-miterlimit="10" d="M60.6,36.6c-7.2,4.5-5.9,1.8-0.8,5.3
				C43.2,44.6,44,32.2,30.5,31.7c0.2-2.5,0.2-5,0.5-7.4C51,24.8,43.4,36,60.6,36.6z"/>
		</g>
		<g>
			<path fill="#FF0000" stroke="#FFFFFF" stroke-miterlimit="10" d="M24,50.5c8.2-2.1,5.4-3,4.4,3.1c13.4-10.2,3.9-18.1,12.9-28.3
				c-1.9-1.6-3.7-3.3-5.7-4.8C22.2,35.5,35.4,37.8,24,50.5z"/>
		</g>
		<path fill="#C1272D" stroke="#FFFFFF" stroke-miterlimit="10" d="M29.4,24.2L15,22.5c-1.6-0.2-2.8,1.4-2.1,2.9l5.7,13.3
			c0.6,1.5,2.6,1.7,3.6,0.4l8.8-11.6C31.8,26.2,31,24.4,29.4,24.2z"/>
		<path fill="#C1272D" stroke="#FFFFFF" stroke-miterlimit="10" d="M37.1,20.9l8.8-11.6c1-1.3,2.9-1,3.6,0.4L55.1,23
			c0.6,1.5-0.6,3.1-2.1,2.9l-14.4-1.7C36.9,24,36.1,22.2,37.1,20.9z"/>
		<path fill="none" stroke="#000000" stroke-width="0.5" stroke-miterlimit="10" d="M62.5,34.8"/>
		<path fill="#C1272D" stroke="#FFFFFF" stroke-miterlimit="10" d="M40.2,28.9l-7.5,3.2c-2.1,0.9-4.4-0.1-5.3-2.1l-2.1-5
			c-0.9-2.1,0.1-4.4,2.1-5.3l7.5-3.2c2.1-0.9,4.4,0.1,5.3,2.1l2.1,5C43.3,25.6,42.3,28,40.2,28.9z"/>
		
			<linearGradient id="SVGID_00000039106594991696533380000015930295026028292781_" gradientUnits="userSpaceOnUse" x1="37.5905" y1="66.2979" x2="52.8917" y2="66.2979">
			<stop  offset="0" style="stop-color:#FF7300"/>
			<stop  offset="2.226436e-02" style="stop-color:#F97C01"/>
			<stop  offset="5.916939e-02" style="stop-color:#EA9602"/>
			<stop  offset="6.942856e-02" style="stop-color:#E59E03"/>
			<stop  offset="0.8652" style="stop-color:#E5C500"/>
			<stop  offset="0.9944" style="stop-color:#BF6F00"/>
		</linearGradient>
		<path fill="#FBB03B" stroke="url(#SVGID_00000039106594991696533380000015930295026028292781_)" stroke-miterlimit="10" d="M52,62
			c1.3,3.6-0.6,7.7-4.4,9.1c-3.7,1.4-7.9-0.4-9.2-4.1c-0.1-0.3-0.2-0.5-0.2-0.8l13.5-5C51.8,61.4,51.9,61.7,52,62z"/>
	</g>
	<g>
	</g>
	<g>
	</g>
	<g>
	</g>
	<g>
	</g>
	<g>
	</g>
</g>
</svg>
