<?xml version="1.0" encoding="utf-8"?>
<!-- Generator: Adobe Illustrator 25.4.1, SVG Export Plug-In . SVG Version: 6.00 Build 0)  -->
<svg version="1.1" xmlns="http://www.w3.org/2000/svg" xmlns:xlink="http://www.w3.org/1999/xlink" x="0px" y="0px"
	 viewBox="0 0 80 80" enable-background="new 0 0 80 80" xml:space="preserve">
<g id="Слой_2">
</g>
<g id="Слой_1">
	<radialGradient id="SVGID_1_" cx="40" cy="40.2611" r="37.6356" gradientUnits="userSpaceOnUse">
		<stop  offset="5.327789e-09" style="stop-color:#FF9D00"/>
		<stop  offset="0.1704" style="stop-color:#FF9901"/>
		<stop  offset="0.3423" style="stop-color:#FF8D05"/>
		<stop  offset="0.515" style="stop-color:#FF790B"/>
		<stop  offset="0.6883" style="stop-color:#FF5C13"/>
		<stop  offset="0.8603" style="stop-color:#FF381E"/>
		<stop  offset="1" style="stop-color:#FF1528"/>
	</radialGradient>
	<path fill="url(#SVGID_1_)" stroke="#FF1528" stroke-width="2" stroke-miterlimit="10" d="M67.2,77.5H12.8C6.8,77.5,2,72.7,2,66.7
		V13.8C2,7.9,6.8,3,12.8,3h54.3C73.2,3,78,7.9,78,13.8v52.9C78,72.7,73.2,77.5,67.2,77.5z"/>
	<circle fill="none" stroke="#FFFFFF" stroke-width="3" stroke-miterlimit="10" cx="40" cy="40" r="30.7"/>
	<line fill="none" stroke="#FFFFFF" stroke-width="3" stroke-miterlimit="10" x1="40" y1="11.8" x2="40" y2="16.7"/>
	<line fill="none" stroke="#FFFFFF" stroke-width="3" stroke-miterlimit="10" x1="19.8" y1="21" x2="23.3" y2="24.5"/>
	<line fill="none" stroke="#FFFFFF" stroke-width="3" stroke-miterlimit="10" x1="56" y1="57.2" x2="59.5" y2="60.6"/>
	<line fill="none" stroke="#FFFFFF" stroke-width="3" stroke-miterlimit="10" x1="59.5" y1="21" x2="56" y2="24.5"/>
	<line fill="none" stroke="#FFFFFF" stroke-width="3" stroke-miterlimit="10" x1="23.3" y1="57.2" x2="19.8" y2="60.6"/>
	<line fill="none" stroke="#FFFFFF" stroke-width="3" stroke-miterlimit="10" x1="40" y1="63.4" x2="40" y2="68.3"/>
	<line fill="none" stroke="#FFFFFF" stroke-width="3" stroke-miterlimit="10" x1="63.3" y1="40.3" x2="68.2" y2="40.3"/>
	<line fill="none" stroke="#FFFFFF" stroke-width="3" stroke-miterlimit="10" x1="12.1" y1="40.3" x2="16.9" y2="40.3"/>
	<line fill="none" stroke="#FFFFFF" stroke-width="3" stroke-miterlimit="10" x1="40" y1="19" x2="40" y2="40.3"/>
	<g>
		<path fill="#A0A8AF" stroke="#000000" stroke-width="0.25" stroke-miterlimit="10" d="M29.9,53.9l5.1-4.7l0-3.5l6-5.7l-0.8-0.8
			l-6,5.7l-3-0.1L26,49.5L29.9,53.9z M33.9,48.1l-0.1,1l-3.3,3.3L30,51.9L33.9,48.1z M33.2,46.6l0.5,0.5l-4.1,4.1l-0.7-0.7
			L33.2,46.6z M31.2,46.1l1,0.1l-4,4l-0.6-0.6L31.2,46.1z"/>
		<path fill="#2C2E2D" stroke="#000000" stroke-width="0.25" stroke-miterlimit="10" d="M43.5,35.1c0.7,0.2,1.2,0.7,1.3,1.3l-3,3
			L41,40l-0.8-0.8l0,0l0.3-0.9L43.5,35.1z"/>
	</g>
	<polygon display="none" fill="none" stroke="#000000" stroke-miterlimit="10" points="212.5,-4.8 211.8,19.7 209.1,16.2 
		209.1,-4.8 	"/>
	<polygon display="none" fill="none" stroke="#000000" stroke-miterlimit="10" points="220,-4.2 219,22.1 215.5,22.1 215.5,-4.2 	
		"/>
	<polygon display="none" fill="none" stroke="#000000" stroke-miterlimit="10" points="227.8,-4.8 227.1,17.7 223.8,20.6 
		223.8,-4.8 	"/>
	<polygon display="none" fill="none" stroke="#000000" stroke-miterlimit="10" points="212.5,-4.8 211.8,19.7 209.1,16.2 
		209.1,-4.8 	"/>
	<polygon display="none" fill="none" stroke="#000000" stroke-miterlimit="10" points="220,-4.2 219,22.1 215.5,22.1 215.5,-4.2 	
		"/>
	<polygon display="none" fill="none" stroke="#000000" stroke-miterlimit="10" points="227.8,-4.8 227.1,17.7 223.8,20.6 
		223.8,-4.8 	"/>
	<g>
		<line fill="none" stroke="#143073" stroke-miterlimit="10" x1="70.7" y1="7.4" x2="70.7" y2="17.1"/>
		<path fill="none" stroke="#143073" stroke-miterlimit="10" d="M67.3,14.5c2.3,2.9,4.6,3,6.8,0"/>
		<line fill="none" stroke="#143073" stroke-miterlimit="10" x1="69" y1="9.8" x2="72.5" y2="9.8"/>
		<circle fill="none" stroke="#143073" stroke-miterlimit="10" cx="70.7" cy="7" r="0.4"/>
	</g>
	<g>
		<line fill="none" stroke="#143073" stroke-miterlimit="10" x1="70.7" y1="64.3" x2="70.7" y2="74"/>
		<path fill="none" stroke="#143073" stroke-miterlimit="10" d="M67.3,71.4c2.3,2.9,4.6,3,6.8,0"/>
		<line fill="none" stroke="#143073" stroke-miterlimit="10" x1="69" y1="66.7" x2="72.5" y2="66.7"/>
		<circle fill="none" stroke="#143073" stroke-miterlimit="10" cx="70.7" cy="63.8" r="0.4"/>
	</g>
	<g>
		<line fill="none" stroke="#143073" stroke-miterlimit="10" x1="8.7" y1="64.3" x2="8.7" y2="74"/>
		<path fill="none" stroke="#143073" stroke-miterlimit="10" d="M5.3,71.4c2.3,2.9,4.6,3,6.8,0"/>
		<line fill="none" stroke="#143073" stroke-miterlimit="10" x1="7" y1="66.7" x2="10.5" y2="66.7"/>
		<circle fill="none" stroke="#143073" stroke-miterlimit="10" cx="8.7" cy="63.8" r="0.4"/>
	</g>
	<g>
		<line fill="none" stroke="#143073" stroke-miterlimit="10" x1="8.7" y1="7.9" x2="8.7" y2="17.5"/>
		<path fill="none" stroke="#143073" stroke-miterlimit="10" d="M5.3,15c2.3,2.9,4.6,3,6.8,0"/>
		<line fill="none" stroke="#143073" stroke-miterlimit="10" x1="7" y1="10.2" x2="10.5" y2="10.2"/>
		<circle fill="none" stroke="#143073" stroke-miterlimit="10" cx="8.7" cy="7.4" r="0.4"/>
	</g>
	<g>
	</g>
	<g>
	</g>
	<g>
	</g>
	<g>
	</g>
	<g>
	</g>
</g>
</svg>
