<?xml version="1.0" encoding="utf-8"?>
<!-- Generator: Adobe Illustrator 25.4.1, SVG Export Plug-In . SVG Version: 6.00 Build 0)  -->
<svg version="1.1" xmlns="http://www.w3.org/2000/svg" xmlns:xlink="http://www.w3.org/1999/xlink" x="0px" y="0px"
	 viewBox="0 0 300 300" style="enable-background:new 0 0 300 300;" xml:space="preserve">
<style type="text/css">
	.st0{fill:#575756;}
</style>
<g id="Слой_1">
</g>
<g id="Слой_2">
</g>
<g id="Слой_3">
	<g>
		<path class="st0" d="M184.66,115.39v17.95c0,6.81-2.42,13.06-6.45,17.92c-0.58,0.7-1.18,1.36-1.82,2c-0.64,0.63-1.3,1.24-2,1.82
			c-1.04,0.85-2.14,1.63-3.29,2.34c-0.01,0-0.02,0-0.02,0.01c-0.77,0.46-1.56,0.89-2.38,1.29c-0.41,0.2-0.83,0.39-1.26,0.57
			c-0.85,0.35-1.71,0.67-2.59,0.94c-0.43,0.13-0.86,0.26-1.3,0.37c1.84-2.17,2.6-4.22,2.6-6.82c0-1.38-0.25-2.72-0.75-4
			c6-3.06,10.11-9.31,10.11-16.5v-18.15c0-9.9-7.78-18-17.57-18.5c-0.28-0.01-0.56-0.02-0.84-0.02h-18.15
			c-0.32,0-0.64,0.01-0.95,0.02c-9.79,0.5-17.57,8.6-17.57,18.5v18.15c0,7.47,4.43,13.92,10.81,16.84
			c-1.14,2.35-1.32,4.45-1.46,6.34h8.43c-0.01,0.06-0.01,0.11-0.01,0.17c0,1.77,0.47,3.44,1.31,4.87h-0.06
			c-2.91,0-5.72-0.44-8.36-1.27c-0.88-0.27-1.74-0.59-2.59-0.94c-0.43-0.18-0.85-0.37-1.26-0.57c-0.82-0.4-1.61-0.83-2.38-1.29
			c0,0-0.01,0-0.02-0.01c-1.15-0.71-2.25-1.49-3.29-2.34c-0.7-0.57-1.36-1.17-2-1.82c-5.11-5.09-8.27-12.14-8.27-19.92v-17.95
			c0-9.23,4.45-17.43,11.32-22.57c0-0.01,0.01-0.01,0.02-0.01c0.42-0.31,0.84-0.61,1.28-0.9c0.43-0.29,0.88-0.56,1.33-0.83
			c0.67-0.39,1.37-0.76,2.08-1.1c0.24-0.11,0.48-0.22,0.72-0.33c0.33-0.17,0.67-0.31,1.02-0.43c0.67-0.28,1.35-0.52,2.04-0.73
			c1.01-0.32,2.05-0.58,3.11-0.77c0.72-0.15,1.46-0.26,2.2-0.33c1-0.11,2.02-0.17,3.05-0.17h17.03c1.03,0,2.05,0.06,3.06,0.17
			c0.74,0.07,1.48,0.18,2.2,0.33c1.06,0.19,2.1,0.45,3.11,0.77c0.69,0.21,1.37,0.45,2.04,0.73c0.35,0.13,0.69,0.27,1.02,0.43
			c0.24,0.11,0.48,0.22,0.72,0.33c0.71,0.34,1.41,0.71,2.08,1.1c0.45,0.27,0.9,0.54,1.33,0.83c0.44,0.29,0.86,0.59,1.28,0.9
			c0.01,0.01,0.02,0.01,0.02,0.01c0.43,0.32,0.85,0.66,1.26,1c0.41,0.35,0.81,0.7,1.19,1.07
			C181.25,100.02,184.66,107.31,184.66,115.39z"/>
	</g>
	<g>
		<path class="st0" d="M148.54,36c30.67,21.13,64.05,35.35,101.26,43.11c1.05,49.21-7.3,89.95-24.88,121.28
			c-16.9,30.12-42.2,52.25-77.21,67.46c-35.4-14.46-60.87-37.28-77.72-69.55c-16.15-30.94-24.18-71.05-23.95-119.4
			C79.16,71.11,116.88,58.94,148.54,36 M147.98,9.58C115.7,38.09,71.03,52.46,25.43,61.94c-4.78,117.26,33.1,196.11,122.55,228.52
			c83.6-32.79,129.71-103.65,122.1-229.03C221.12,53.99,181.42,35.51,147.98,9.58L147.98,9.58z"/>
	</g>
	<g>
		<path class="st0" d="M186.14,130.1h-76.32c-4.4,0-8,3.6-8,8v54.07c0,4.4,3.6,8,8,8h76.32c4.4,0,8-3.6,8-8V138.1
			C194.14,133.7,190.54,130.1,186.14,130.1z M147.61,192.59c-3.91,0-7.07-3.17-7.07-7.07c0-3.9,3.16-7.06,7.07-7.06
			c3.9,0,7.06,3.16,7.06,7.06C154.67,189.42,151.51,192.59,147.61,192.59z M158.24,165.36c-4.42,3.37-5.98,4.86-5.98,8.6v1.18
			h-10.09v-3.61c0-3.49,1.19-6.1,5.05-9.15c4.85-3.87,7.34-5.73,7.34-8.41c0-3.67-4.79-3.92-6.28-3.92c-4.98,0-6.87,2.89-7.57,6.41
			h-10.93c0.14-1.89,0.32-3.99,1.46-6.34c0.36-0.75,0.82-1.52,1.41-2.32c4.42-6.1,11.95-7.03,16.12-7.03
			c8.86,0,14.66,3.93,16.63,9.01c0.5,1.28,0.75,2.62,0.75,4c0,2.6-0.76,4.65-2.6,6.82C162.3,162.06,160.57,163.58,158.24,165.36z"/>
	</g>
</g>
</svg>
