<?xml version="1.0" encoding="utf-8"?>
<!-- Generator: Adobe Illustrator 25.4.1, SVG Export Plug-In . SVG Version: 6.00 Build 0)  -->
<svg version="1.1" id="Слой_1" xmlns="http://www.w3.org/2000/svg" xmlns:xlink="http://www.w3.org/1999/xlink" x="0px" y="0px"
	 viewBox="0 0 80 80" enable-background="new 0 0 80 80" xml:space="preserve">
<radialGradient id="SVGID_1_" cx="39.8599" cy="40.2611" r="37.6356" gradientUnits="userSpaceOnUse">
	<stop  offset="0" style="stop-color:#0000FF"/>
	<stop  offset="1" style="stop-color:#00096A"/>
</radialGradient>
<radialGradient id="SVGID_00000173152170101274086730000016929380254139935673_" cx="39.8599" cy="40.2611" r="38.6356" gradientUnits="userSpaceOnUse">
	<stop  offset="0" style="stop-color:#0000FF"/>
	<stop  offset="1" style="stop-color:#00096A"/>
</radialGradient>
<path fill="url(#SVGID_1_)" stroke="url(#SVGID_00000173152170101274086730000016929380254139935673_)" stroke-width="2" stroke-miterlimit="10" d="
	M67,77.5H12.7c-6,0-10.8-4.9-10.8-10.8V13.8C1.9,7.9,6.7,3,12.7,3H67c6,0,10.8,4.9,10.8,10.8v52.9C77.9,72.7,73,77.5,67,77.5z"/>
<g>
	<path fill="#FFFFFF" d="M16.9,48.3l12.2-15.8c0.7-0.9,1.3-1.8,1.7-2.8c0.4-1,0.6-1.9,0.6-2.7v0c0-1.4-0.4-2.4-1.2-3.2
		c-0.8-0.7-2-1.1-3.5-1.1c-1.4,0-2.6,0.4-3.5,1.2s-1.4,2-1.6,3.5v0h-5.1v0c0.3-1.9,0.9-3.6,1.8-5c0.9-1.4,2-2.4,3.5-3.2
		c1.4-0.7,3-1.1,4.9-1.1c2.1,0,3.9,0.3,5.4,1c1.5,0.7,2.6,1.7,3.4,3c0.8,1.3,1.2,2.9,1.2,4.8v0c0,1.2-0.3,2.5-0.8,3.8
		c-0.5,1.3-1.2,2.6-2.1,3.8L23.4,47.9h13.3v4.5H16.9V48.3z"/>
	<path fill="#FFFFFF" d="M48,51.8c-1.4-0.7-2.5-1.6-3.4-2.9c-0.9-1.3-1.4-2.8-1.7-4.6v0h4.9v0c0.2,1.2,0.7,2.2,1.5,2.9
		c0.9,0.7,2,1,3.3,1c1.6,0,2.8-0.5,3.7-1.5c0.9-1,1.3-2.5,1.3-4.3v-2.9c0-1.8-0.4-3.3-1.3-4.3c-0.9-1-2.1-1.5-3.7-1.5
		c-0.9,0-1.7,0.2-2.5,0.7c-0.8,0.5-1.5,1.1-2.1,2h-4.5V18.4h17.9V23h-13v7.6c0.6-0.5,1.3-0.9,2.1-1.1c0.8-0.3,1.5-0.4,2.3-0.4
		c2,0,3.8,0.4,5.2,1.2c1.4,0.8,2.5,2,3.3,3.6c0.7,1.6,1.1,3.4,1.1,5.6v2.9c0,2.2-0.4,4.1-1.2,5.6c-0.8,1.6-1.9,2.7-3.4,3.6
		s-3.3,1.2-5.3,1.2C51,52.8,49.4,52.5,48,51.8z"/>
</g>
<g>
	<g>
		<path fill="#FF0000" d="M17.6,66.5c13.1-7.6,28.5-11.3,43.6-9.5c4.1,0.5,8.1,1.4,12,2.8c1.8,0.6,2.6-2.3,0.8-2.9
			c-14.7-5-30.9-4.1-45.3,1.1c-4.4,1.6-8.6,3.6-12.6,5.9C14.4,64.8,15.9,67.4,17.6,66.5L17.6,66.5z"/>
	</g>
</g>
<g>
	<g>
		<path fill="#FF0000" d="M27.7,70.1c11.1-6.8,24.8-9.5,37.4-5.4c1.8,0.6,2.6-2.3,0.8-2.9c-13.3-4.4-27.9-1.5-39.7,5.7
			C24.6,68.5,26.1,71.1,27.7,70.1L27.7,70.1z"/>
	</g>
</g>
<g>
</g>
<g>
</g>
<g>
</g>
<g>
</g>
<g>
</g>
</svg>
