<?xml version="1.0" encoding="utf-8"?>
<!-- Generator: Adobe Illustrator 25.4.1, SVG Export Plug-In . SVG Version: 6.00 Build 0)  -->
<svg version="1.1" xmlns="http://www.w3.org/2000/svg" xmlns:xlink="http://www.w3.org/1999/xlink" x="0px" y="0px"
	 viewBox="0 0 80 80" enable-background="new 0 0 80 80" xml:space="preserve">
<g id="Сло_2" display="none">
	<path d="M50.9,29.6c2.6,0,4.6-2,4.6-4.6c0-2.6-2-4.6-4.6-4.6c-2.6,0-4.6,2-4.6,4.6C46.3,27.6,48.3,29.6,50.9,29.6z"/>
	<path d="M72.7,60.1c-2.1-1.4-4.7-2.9-6.9-4.4c-1.9-2.9-3.7-5.8-5.6-8.8c-0.6-3.5-1.2-6.9-1.8-10.4c2-0.2,4-0.4,6-0.6
		c1.7,1.1,3.5,2.3,5.1,3.3c0.9,0.5,1.5,0.3,2.2-0.3c0,0,0,0,0,0c0.5-0.8,0.6-1.6-0.2-2.3c-1.4-1.3-3.1-2.8-4.6-4.1
		c-0.6-0.5-1-0.7-1.8-0.7c-3.7-0.2-7.7-0.4-11.4-0.7c-0.5,0-0.5,0-0.7,0s-0.3,0-0.5,0.1c-0.9,0.2-1.4,0.4-2.3,1
		c-2.7,1.7-5.6,3.5-8.4,5.1c-1.7-0.9-3.6-2.1-5.3-2.9c-1-0.5-1.7-0.1-2.4,0.6c0,0-0.1,0.1-0.1,0.1C34,35.5,33.8,36,34,36.4
		c0.2,0.5,0.3,0.8,0.8,1.1c2,1.2,4.3,2.6,6.3,3.7c1,0.6,1.6,0.6,2.7,0.2c1.7-0.5,3.6-1.4,5.3-2c0.6,2.4,1.2,4.8,1.8,7.2
		c-2.4,0-5.1-0.1-7.5,0c-1.2,0-1.9,0.4-2.6,1.2c-0.7,0.9-0.9,1.6-0.7,2.8c0.6,3.2,1.3,7,2,10.2c0.3,1.4,1.2,1.7,2.4,1.8
		c0,0,0.1,0,0.1,0c1.1-0.4,1.9-1,1.8-2.4c-0.1-2.3-0.5-4.9-0.6-7.3c3.5,0.1,7,0.2,10.5,0.3c1.6,1.6,3.3,3.4,4.9,4.9
		c0.9,0.8,1.3,1.2,2.4,1.8c2.3,1.2,4.9,2.8,7.2,3.9c1.3,0.6,2.1,0.1,2.9-0.8c0,0,0-0.1,0-0.1C73.9,61.8,73.9,60.9,72.7,60.1z"/>
</g>
<g id="Слой_1">
	<linearGradient id="SVGID_1_" gradientUnits="userSpaceOnUse" x1="40" y1="3" x2="40" y2="77.5223">
		<stop  offset="3.729453e-08" style="stop-color:#24429F"/>
		<stop  offset="0.9955" style="stop-color:#7AAED0"/>
	</linearGradient>
	
		<linearGradient id="SVGID_00000124852561934785269870000017175424682918582421_" gradientUnits="userSpaceOnUse" x1="40" y1="2" x2="40" y2="78.5223">
		<stop  offset="3.729453e-08" style="stop-color:#24429F"/>
		<stop  offset="0.9955" style="stop-color:#7AAED0"/>
	</linearGradient>
	
		<path fill="url(#SVGID_1_)" stroke="url(#SVGID_00000124852561934785269870000017175424682918582421_)" stroke-width="2" stroke-miterlimit="10" d="
		M67.2,77.5H12.8C6.8,77.5,2,72.7,2,66.7V13.8C2,7.9,6.8,3,12.8,3h54.3C73.2,3,78,7.9,78,13.8v52.9C78,72.7,73.2,77.5,67.2,77.5z"/>
	<g>
		<polygon fill="#7D691C" stroke="#000000" stroke-width="0.25" stroke-miterlimit="10" points="28.3,54.1 29,54.4 30.7,52 
			38.6,45.3 38.3,45 30.4,51.7 29.1,53.7 		"/>
		<path fill="#7D691C" stroke="#000000" stroke-width="0.25" stroke-miterlimit="10" d="M57.1,30.7c0.1,0.2,4.6,11.1,4.6,11.1
			l-0.5,0.1l-4.6-11.2H57.1z"/>
		<polygon fill="#7D691C" stroke="#000000" stroke-width="0.25" stroke-miterlimit="10" points="56.8,41.9 56.7,30.3 57.1,30.3 
			57.3,42 		"/>
		<polygon fill="#7D691C" stroke="#000000" stroke-width="0.25" stroke-miterlimit="10" points="43.6,21.4 54.5,27.6 54.3,27.7 
			43.4,21.9 		"/>
		<polygon fill="#7D691C" stroke="#000000" stroke-width="0.25" stroke-miterlimit="10" points="42.9,26.1 54.5,27.9 54.5,28.4 
			42.5,26.6 		"/>
		<polygon fill="#7D691C" stroke="#000000" stroke-width="0.25" stroke-miterlimit="10" points="43.8,31.8 54.2,28.4 54.5,28.9 
			44,32.4 		"/>
		<polygon fill="#7D691C" stroke="#000000" stroke-width="0.25" stroke-miterlimit="10" points="50.1,40 56.2,30.1 56.6,30.3 
			50.7,40.3 		"/>
		<path fill="#DC703D" stroke="#000000" stroke-width="0.1" stroke-miterlimit="10" d="M46.1,17.7l-2,4.3c0,0-0.8,4.6-0.7,4.6
			s0.9,5.7,0.9,5.7l2.4,4.7l4,2.8l6.4,1.6l4.3-0.2l4.6-1.1l9,10.2c0,0-9.2,2.9-9,2.9c0.2,0-8.4,1.2-8.4,1.2l-14.2-3.8l-6.6-5.3
			l-5-8.6l-1.5-11.7l2.7-9.6l3.8-7.7L46.1,17.7z"/>
		<polygon fill="#7D691C" stroke="#000000" stroke-width="0.25" stroke-miterlimit="10" points="74.9,50 74.4,50.6 55.8,29.6 
			56.4,29.1 		"/>
		<polygon fill="#7D691C" stroke="#000000" stroke-width="0.25" stroke-miterlimit="10" points="75.4,50 74.9,50 56.4,29.1 
			56.6,28.9 		"/>
		<polygon fill="#7D691C" stroke="#000000" stroke-width="0.25" stroke-miterlimit="10" points="29,54.1 27.4,60.6 26.7,60.4 
			28.8,53.8 		"/>
		<polygon fill="#7D691C" stroke="#000000" stroke-width="0.25" stroke-miterlimit="10" points="28.5,53.9 23.8,59.2 24.3,59.7 
			28.9,54.1 		"/>
		<polygon fill="#7D691C" stroke="#000000" stroke-width="0.25" stroke-miterlimit="10" points="20.4,52.2 26.6,52.2 26.9,51.8 
			20.5,51.6 		"/>
		<polygon fill="#7D691C" stroke="#000000" stroke-width="0.25" stroke-miterlimit="10" points="20.5,54.6 26.7,52.1 26.5,52.7 
			20.8,55.3 		"/>
		<polygon fill="#7D691C" stroke="#000000" stroke-width="0.25" stroke-miterlimit="10" points="37.3,7.3 55.6,28.2 54.9,28.7 
			36.5,7.9 		"/>
		<path fill="#7D691C" stroke="#000000" stroke-width="0.25" stroke-miterlimit="10" d="M55.9,27.9C55.9,27.8,37.9,7.4,37.9,7.4
			l-0.6-0.1l18.3,20.9L55.9,27.9z"/>
		<polygon fill="#7D691C" stroke="#000000" stroke-width="0.25" stroke-miterlimit="10" points="11.7,67.5 12.6,67.5 21.4,60.1 
			20.8,59.6 		"/>
		<polygon fill="#7D691C" stroke="#000000" stroke-width="0.25" stroke-miterlimit="10" points="74.4,50.6 74.9,50.6 75.4,50 
			74.9,50 		"/>
		<polygon fill="#DC703D" stroke="#000000" stroke-width="0.1" stroke-miterlimit="10" points="22.2,48.3 20.6,52 20.8,55.2 
			22.2,57.2 24.2,59.3 27.3,60.3 30.7,59.4 32.6,65 26.4,65.4 21.1,63.3 18.2,60.9 16,57.5 14.7,52.4 16.7,45.7 		"/>
		<polygon fill="#7D691C" stroke="#000000" stroke-width="0.25" stroke-miterlimit="10" points="29,52.9 33,65 32.4,65 28.4,53.1 		
			"/>
		<polygon fill="#7D691C" stroke="#000000" stroke-width="0.25" stroke-miterlimit="10" points="27.8,51.4 16.9,45.4 16.5,45.9 
			27.4,52 		"/>
		<path fill="#7D691C" stroke="#000000" stroke-width="0.25" stroke-miterlimit="10" d="M60.4,23.9l1.2,1.3c0,0-3.7,3-3.6,3
			c0.1,0-1.3,2.1-1.3,2.1c0,0-2.6,1.1-2.6,1.1S30.4,51.7,30.4,51.7l-1.4,2l-2.8,1.2L11.7,67.5l-1.2-1.3l14.7-12.5l1.9-2.6l1.9-0.8
			l24-20.1l1.5-2.4l2.2-0.9L60.4,23.9z"/>
		<polygon fill="#7D691C" stroke="#000000" stroke-width="0.25" stroke-miterlimit="10" points="57.1,30.1 57.5,29.9 58.1,28.6 
			62.1,25.3 61.5,25.1 58,28.2 56.8,30.1 		"/>
		<polygon fill="#7D691C" stroke="#000000" stroke-width="0.25" stroke-miterlimit="10" points="60.4,23.9 61,24 62.1,25.3 
			61.5,25.1 		"/>
		<line fill="none" stroke="#000000" stroke-width="0.1" stroke-miterlimit="10" x1="36.9" y1="13.4" x2="42.9" y2="18"/>
		<line fill="none" stroke="#000000" stroke-width="0.1" stroke-miterlimit="10" x1="35.3" y1="16.5" x2="40.6" y2="19.5"/>
		<line fill="none" stroke="#000000" stroke-width="0.1" stroke-miterlimit="10" x1="34.4" y1="20.4" x2="40" y2="22.4"/>
		<line fill="none" stroke="#000000" stroke-width="0.1" stroke-miterlimit="10" x1="33.7" y1="24.6" x2="39.5" y2="25.5"/>
		<line fill="none" stroke="#000000" stroke-width="0.1" stroke-miterlimit="10" x1="33.1" y1="30.1" x2="39.5" y2="29.8"/>
		<line fill="none" stroke="#000000" stroke-width="0.1" stroke-miterlimit="10" x1="34.6" y1="35" x2="40.4" y2="33.4"/>
		<line fill="none" stroke="#000000" stroke-width="0.1" stroke-miterlimit="10" x1="37" y1="39.9" x2="41.9" y2="37"/>
		<line fill="none" stroke="#000000" stroke-width="0.1" stroke-miterlimit="10" x1="43.2" y1="46.3" x2="46.1" y2="42.1"/>
		<line fill="none" stroke="#000000" stroke-width="0.1" stroke-miterlimit="10" x1="47.1" y1="49.7" x2="48.9" y2="43.7"/>
		<line fill="none" stroke="#000000" stroke-width="0.1" stroke-miterlimit="10" x1="53.9" y1="50.6" x2="53.3" y2="44.2"/>
		<line fill="none" stroke="#000000" stroke-width="0.1" stroke-miterlimit="10" x1="58.3" y1="51.4" x2="57.7" y2="45.2"/>
		<line fill="none" stroke="#000000" stroke-width="0.1" stroke-miterlimit="10" x1="62.4" y1="51.8" x2="60.8" y2="45.7"/>
		<line fill="none" stroke="#000000" stroke-width="0.1" stroke-miterlimit="10" x1="65.3" y1="51.2" x2="63" y2="45.2"/>
		<line fill="none" stroke="#000000" stroke-width="0.1" stroke-miterlimit="10" x1="69.5" y1="49.3" x2="65.9" y2="44.2"/>
		<line fill="none" stroke="#000000" stroke-width="0.1" stroke-miterlimit="10" x1="19.7" y1="49.4" x2="17.3" y2="48.7"/>
		<line fill="none" stroke="#000000" stroke-width="0.1" stroke-miterlimit="10" x1="19.2" y1="51.3" x2="16.4" y2="50.9"/>
		<line fill="none" stroke="#000000" stroke-width="0.1" stroke-miterlimit="10" x1="18.9" y1="53.4" x2="15.9" y2="53.4"/>
		<line fill="none" stroke="#000000" stroke-width="0.1" stroke-miterlimit="10" x1="19.5" y1="55.5" x2="16.8" y2="56.2"/>
		<line fill="none" stroke="#000000" stroke-width="0.1" stroke-miterlimit="10" x1="19.8" y1="57" x2="17.2" y2="58.1"/>
		<line fill="none" stroke="#000000" stroke-width="0.1" stroke-miterlimit="10" x1="22.2" y1="59.9" x2="20.8" y2="61.4"/>
		<line fill="none" stroke="#000000" stroke-width="0.1" stroke-miterlimit="10" x1="23.4" y1="60.6" x2="22" y2="62.4"/>
		<line fill="none" stroke="#000000" stroke-width="0.1" stroke-miterlimit="10" x1="25.2" y1="61.5" x2="24" y2="63.5"/>
		<line fill="none" stroke="#000000" stroke-width="0.1" stroke-miterlimit="10" x1="27.1" y1="62" x2="26.6" y2="64.4"/>
		<line fill="none" stroke="#000000" stroke-width="0.1" stroke-miterlimit="10" x1="29.4" y1="61.8" x2="29.6" y2="64.6"/>
	</g>
	<g>
	</g>
	<g>
	</g>
	<g>
	</g>
	<g>
	</g>
	<g>
	</g>
</g>
</svg>
