<?xml version="1.0" encoding="utf-8"?>
<!-- Generator: Adobe Illustrator 25.4.1, SVG Export Plug-In . SVG Version: 6.00 Build 0)  -->
<svg version="1.1" xmlns="http://www.w3.org/2000/svg" xmlns:xlink="http://www.w3.org/1999/xlink" x="0px" y="0px"
	 viewBox="0 0 80 80" enable-background="new 0 0 80 80" xml:space="preserve">
<g id="Сло_2">
</g>
<g id="Слой_1">
	<radialGradient id="SVGID_1_" cx="40" cy="40.2611" r="37.6356" gradientUnits="userSpaceOnUse">
		<stop  offset="0" style="stop-color:#D4145A"/>
		<stop  offset="1" style="stop-color:#ED1E79"/>
	</radialGradient>
	
		<radialGradient id="SVGID_00000051354240659229986860000016441171955655877761_" cx="40" cy="40.2611" r="38.6356" gradientUnits="userSpaceOnUse">
		<stop  offset="0" style="stop-color:#D4145A"/>
		<stop  offset="1" style="stop-color:#ED1E79"/>
	</radialGradient>
	
		<path fill="url(#SVGID_1_)" stroke="url(#SVGID_00000051354240659229986860000016441171955655877761_)" stroke-width="2" stroke-miterlimit="10" d="
		M67.2,77.5H12.8C6.8,77.5,2,72.7,2,66.7V13.8C2,7.9,6.8,3,12.8,3h54.3C73.2,3,78,7.9,78,13.8v52.9C78,72.7,73.2,77.5,67.2,77.5z"/>
	<g>
		<g>
			
				<radialGradient id="SVGID_00000021815316414288914570000007293325916872491443_" cx="40" cy="40" r="27.5257" gradientUnits="userSpaceOnUse">
				<stop  offset="4.469488e-03" style="stop-color:#B07D53"/>
				<stop  offset="1" style="stop-color:#EAC799"/>
			</radialGradient>
			<path fill="url(#SVGID_00000021815316414288914570000007293325916872491443_)" stroke="#000000" stroke-miterlimit="10" d="
				M67.4,42.9c0.2-2.2-0.1-3.9-0.7-5.3c0.1-1.5-1.2-3.1-1.8-3.8c0,0-0.1,0-0.1-0.1c-0.3-0.3-0.2-0.3,0.1,0.1c0.5,0-0.6-5.8-1.8-6.5
				l-3-5.3c-1.4-1.4-3.2-3.1-5.3-5.2c-1.5-0.8-3.5-1.8-7-3.6l-6.2-0.7c-2.9,0.1-5.2,0.4-7.3,0.8c-4.1,1.6-8.7,3.1-10.5,5.5l-2.2,1.6
				l-6.9,9.1c-0.8,0.3-1.5,2.3-2.1,8.7c-0.3,3.5-0.1,6.5,0.8,8.6c2.2,4.2,3.3,7.1,3.2,8.7l4.5,6c3.4,3,6.2,4.3,8.3,3.6
				c2.8,0.8,6.3,1.7,10.1,2.7c4.2-1.3,7.9-1.9,10.8-1.5c2.2-0.2,4-2.1,5.7-4.2c1-1.9,2.6-3.2,4.7-4.1c0.2,0.6,3.7-4.7,4.4-5
				C65.9,52.5,67.9,42.9,67.4,42.9z M47.1,43.6c-0.2,0.1-1.2,1.6-1.2,1.4c-0.6,0.3-1,0.6-1.3,1.2c-0.5,0.6-1,1.1-1.6,1.2
				c-0.8-0.1-1.9,0-3,0.4c-1.1-0.3-2.1-0.5-2.9-0.7c-0.6,0.2-1.4-0.2-2.3-1l-1.3-1.7c0-0.4-0.3-1.3-0.9-2.4
				c-0.3-0.6-0.3-1.4-0.2-2.4c0.2-1.8,0.4-2.4,0.6-2.4l1.9-2.6l0.6-0.5c0.5-0.7,1.8-1.1,3-1.5c0.6-0.1,1.3-0.2,2.1-0.2l1.7,0.2
				c1,0.5,1.5,0.8,2,1c0.6,0.6,1.1,1.1,1.5,1.5l0.8,1.5c0.3,0.2,0.6,1.8,0.5,1.8c0.1,0.2,0.5,0.6,0.5,1.1c0.2,0.4,0.3,0.9,0.2,1.5
				C47.8,40.8,47.3,43.5,47.1,43.6z"/>
			
				<radialGradient id="SVGID_00000155130069019133029680000016001868315516626105_" cx="40.579" cy="40.9008" r="26.6973" gradientUnits="userSpaceOnUse">
				<stop  offset="2.077838e-07" style="stop-color:#CA3482"/>
				<stop  offset="0.3313" style="stop-color:#ED589E"/>
				<stop  offset="0.6441" style="stop-color:#F184B4"/>
				<stop  offset="1" style="stop-color:#EFA7C8"/>
			</radialGradient>
			<path fill="url(#SVGID_00000155130069019133029680000016001868315516626105_)" stroke="#000000" stroke-miterlimit="10" d="
				M65.7,39.2L65.7,39.2c0.1-0.4,0.1-0.8,0-1.2l-0.2-0.6c-0.1-0.3-0.1-0.6-0.1-0.9l0.4-2.9c0.1-0.4,0-0.9-0.2-1.2
				c-0.5-1-1.5-2.2-2.8-3.5c-0.3-0.3-0.6-0.8-0.6-1.2c-0.2-1.5-0.7-3.2-1.7-5.2c-0.2-0.4-0.4-0.7-0.8-0.9c-1.4-0.9-2.8-1.5-4.3-2
				c-0.2-0.1-0.4-0.2-0.6-0.3l-2.1-1.5c-0.3-0.2-0.6-0.3-0.9-0.4c-0.3-0.1-0.8-0.2-1.3-0.3c-0.4-0.1-0.8-0.3-1.1-0.7
				c-0.7-1-2.1-1.5-3.8-1.7c-0.1,0-0.2,0-0.3,0c-1.6-0.1-3.6,0.2-6,0.8c-0.4,0.1-0.8,0.1-1.1,0c-2.5-0.7-4.8-1-6.9-0.8
				c-0.4,0-0.9,0.2-1.2,0.5c-2.4,2-4.2,3.8-5.6,5.4c-0.4,0.4-0.9,0.7-1.5,0.8c-3.7,0.4-6.4,1.8-7.6,4.5c-0.9,2.5-1.1,5.4-0.3,9
				c0.1,0.5,0.1,1-0.1,1.5c-0.8,1.8-1.3,3.1-1.5,4c-0.1,0.5,0,1,0.2,1.5l1.8,3.5c0.1,0.2,0.2,0.4,0.2,0.6l0.4,2.3
				c0,0.3,0.1,0.5,0.3,0.8l1.5,2.5c0.1,0.1,0.1,0.3,0.2,0.4l1.4,4.1c0.1,0.4,0.4,0.8,0.8,1.1l3.5,2.6c0.2,0.2,0.4,0.4,0.6,0.7
				c0.9,1.7,2.2,3.4,3.7,5.2c0.4,0.5,1,0.8,1.6,0.8c2.4,0,5.1-0.3,8.3-1c0.6-0.1,1.2,0,1.7,0.3c2.2,1.5,4.3,2.1,6.3,2
				c0.3,0,0.6-0.1,0.9-0.3c1.6-0.9,2.8-1.9,3.4-3.1c0.3-0.5,0.7-0.9,1.3-1l2.3-0.7c0.5-0.2,1-0.5,1.2-0.9l0.8-1.2
				c0.6-0.8,1.4-1.3,2.3-1.6c0.7-0.2,1.3-0.7,1.6-1.5c0.4-1.3,0.9-2.3,1.4-2.9h0.9l1.4-3.5c0.1-0.3,0.3-0.5,0.5-0.7
				c1.4-1.4,2.6-2.7,3.1-4.1c0.2-0.4,0.2-0.9,0.1-1.3c-0.4-1.4-0.8-2.6-1.4-3.6C65.7,40.4,65.6,39.8,65.7,39.2z M49.6,42.6
				c-0.7,1-2.6,6.8-5,6.1c-2.3,2.1-4.3,2.7-6,1.5c-0.4-0.3-0.9-0.5-1.4-0.4c-2.3,0.1-3.9-0.5-4.4-2c-0.2-0.6-0.5-1-1-1.3
				c-1.5-1-2-3-1.8-5.8c0-0.2,0-0.5-0.1-0.7c-0.7-2.7-0.1-5.2,2.7-7.2c0.4-1.7,1.6-2.6,4.1-2c0.4,0.1,0.8,0.1,1.2,0
				c2.4-0.7,4.4-0.6,5.9,0.2c2.9,0.9,4.5,2.5,4.9,4.7C49.6,35.1,50.3,41.5,49.6,42.6z"/>
		</g>
		<path fill="#40C9F7" stroke="#000000" stroke-width="0.25" stroke-miterlimit="10" d="M20.1,25.1c0.6-0.7,1.4-0.9,3-1
			c0.5,0.2,0.5,0.4,0.2,0.6c-1.6,0.2-2.3,0.5-2.9,1.1C20,25.7,20,25.5,20.1,25.1z"/>
		<path fill="#40C9F7" stroke="#000000" stroke-width="0.25" stroke-miterlimit="10" d="M20.8,53.5c0.8,0.2,1.5,0.8,2.3,2.1
			c0.1,0.5-0.2,0.6-0.4,0.5c-1-1.3-1.6-1.7-2.4-2C20.3,53.7,20.4,53.6,20.8,53.5z"/>
		<path fill="#40C9F7" stroke="#000000" stroke-width="0.25" stroke-miterlimit="10" d="M48.4,60.6c0.8-0.3,1.7-0.1,3.1,0.5
			c0.3,0.4,0.2,0.6-0.1,0.6c-1.6-0.6-2.2-0.6-3.1-0.3C48,61.1,48.1,60.9,48.4,60.6z"/>
		<path fill="#40C9F7" stroke="#000000" stroke-width="0.25" stroke-miterlimit="10" d="M58.3,41.5c-0.6-0.7-1.4-0.9-3-1
			c-0.5,0.2-0.5,0.4-0.2,0.6c1.6,0.2,2.3,0.5,2.9,1.1C58.4,42.1,58.4,41.9,58.3,41.5z"/>
		<path fill="#40C9F7" stroke="#000000" stroke-width="0.25" stroke-miterlimit="10" d="M48.6,26c0.8-0.2,1.7,0.1,3,0.9
			c0.3,0.4,0.1,0.6-0.1,0.6c-1.5-0.7-2.2-0.8-3-0.7C48.2,26.5,48.2,26.3,48.6,26z"/>
		<path fill="#40C9F7" stroke="#000000" stroke-width="0.25" stroke-miterlimit="10" d="M35,50.7c0.8-0.1,1.7,0.2,2.9,1.2
			c0.3,0.5,0.1,0.6-0.2,0.6c-1.4-0.9-2.1-1-3-1C34.6,51.1,34.7,51,35,50.7z"/>
		<path fill="#40C9F7" stroke="#000000" stroke-width="0.25" stroke-miterlimit="10" d="M34.7,27.7c0.6-0.7,1.4-0.9,3-1
			c0.5,0.2,0.5,0.4,0.2,0.6c-1.6,0.2-2.3,0.5-2.9,1.1C34.7,28.3,34.6,28.1,34.7,27.7z"/>
		<path fill="#F31B2C" stroke="#000000" stroke-width="0.25" stroke-miterlimit="10" d="M17.5,48.1c-0.3-0.8-0.1-1.7,0.6-3.1
			c0.4-0.3,0.6-0.2,0.6,0.1c-0.6,1.6-0.6,2.2-0.4,3.1C18,48.5,17.9,48.4,17.5,48.1z"/>
		<path fill="#F31B2C" stroke="#000000" stroke-width="0.25" stroke-miterlimit="10" d="M41.6,63.9c0.5-0.7,1.4-0.9,3-1
			c0.5,0.2,0.5,0.4,0.2,0.6c-1.6,0.3-2.3,0.5-2.9,1.2C41.6,64.5,41.5,64.3,41.6,63.9z"/>
		<path fill="#F31B2C" stroke="#000000" stroke-width="0.25" stroke-miterlimit="10" d="M59.6,46c0.1-0.8,0.7-1.5,2-2.5
			c0.5-0.1,0.6,0.1,0.5,0.4c-1.2,1.1-1.6,1.7-1.8,2.5C59.9,46.6,59.8,46.4,59.6,46z"/>
		<path fill="#F31B2C" stroke="#000000" stroke-width="0.25" stroke-miterlimit="10" d="M45.6,20.7c-0.8,0.2-1.5,0.8-2.3,2.2
			c-0.1,0.5,0.2,0.6,0.4,0.5c1-1.3,1.6-1.7,2.4-2C46.2,20.9,46.1,20.8,45.6,20.7z"/>
		<path fill="#F31B2C" stroke="#000000" stroke-width="0.25" stroke-miterlimit="10" d="M30.9,19.4c0.2-0.8,0.9-1.4,2.2-2.2
			c0.5,0,0.6,0.2,0.5,0.4c-1.4,0.9-1.8,1.5-2.1,2.3C31.1,20,31,19.8,30.9,19.4z"/>
		<path fill="#F31B2C" stroke="#000000" stroke-width="0.25" stroke-miterlimit="10" d="M47.1,54.2c0.3-0.8,1-1.3,2.4-2
			c0.5,0,0.6,0.2,0.4,0.5c-1.4,0.8-1.9,1.3-2.3,2.1C47.2,54.8,47.1,54.6,47.1,54.2z"/>
		<path fill="#F31B2C" stroke="#000000" stroke-width="0.25" stroke-miterlimit="10" d="M25.8,39.3c-0.3-0.8-0.1-1.7,0.6-3.1
			c0.4-0.3,0.6-0.2,0.6,0.1c-0.6,1.6-0.6,2.2-0.4,3.1C26.3,39.6,26.1,39.6,25.8,39.3z"/>
		<path fill="#40C9F7" stroke="#000000" stroke-width="0.25" stroke-miterlimit="10" d="M29.7,63.9c0.6-0.7,1.4-0.9,3-1
			c0.5,0.2,0.5,0.4,0.2,0.6c-1.6,0.2-2.3,0.5-2.9,1.1C29.6,64.5,29.6,64.3,29.7,63.9z"/>
		<path fill="#40C9F7" stroke="#000000" stroke-width="0.25" stroke-miterlimit="10" d="M60.5,32.9c0.6-0.7,1.4-0.9,3-1
			c0.5,0.2,0.5,0.4,0.2,0.6c-1.6,0.2-2.3,0.5-2.9,1.1C60.4,33.5,60.4,33.3,60.5,32.9z"/>
		<path fill="#F31B2C" stroke="#000000" stroke-width="0.25" stroke-miterlimit="10" d="M53.6,28.1c0.2-0.8,0.9-1.4,2.2-2.2
			c0.5,0,0.6,0.2,0.5,0.4c-1.4,0.9-1.8,1.5-2.1,2.3C53.9,28.7,53.7,28.5,53.6,28.1z"/>
		<path fill="#F31B2C" stroke="#000000" stroke-width="0.25" stroke-miterlimit="10" d="M17.2,32.5c-0.3-0.8-0.1-1.7,0.6-3.1
			c0.4-0.3,0.6-0.2,0.6,0.1c-0.6,1.6-0.6,2.2-0.4,3.1C17.7,32.9,17.5,32.8,17.2,32.5z"/>
		<path fill="#E5E5E5" stroke="#000000" stroke-width="0.25" stroke-miterlimit="10" d="M23.9,52.8c0.6-0.7,1.4-0.9,3-1
			c0.5,0.2,0.5,0.4,0.2,0.6c-1.6,0.2-2.3,0.5-2.9,1.1C23.8,53.5,23.8,53.3,23.9,52.8z"/>
		<path fill="#E5E5E5" stroke="#000000" stroke-width="0.25" stroke-miterlimit="10" d="M53.7,32.9c0.6-0.7,1.4-0.9,3-1
			c0.5,0.2,0.5,0.4,0.2,0.6c-1.6,0.2-2.3,0.5-2.9,1.1C53.6,33.5,53.6,33.3,53.7,32.9z"/>
		<path fill="#0C9E60" stroke="#000000" stroke-width="0.25" stroke-miterlimit="10" d="M36.6,59.1c-0.5-0.7-1.4-0.9-3-1
			c-0.5,0.2-0.5,0.4-0.2,0.6c1.6,0.3,2.3,0.5,2.9,1.2C36.7,59.7,36.7,59.5,36.6,59.1z"/>
		<path fill="#0C9E60" stroke="#000000" stroke-width="0.25" stroke-miterlimit="10" d="M51.4,19.4c-0.2-0.8-0.9-1.4-2.2-2.2
			c-0.5,0-0.6,0.2-0.5,0.4c1.4,0.9,1.8,1.5,2.1,2.3C51.2,20,51.3,19.8,51.4,19.4z"/>
		<path fill="#0C9E60" stroke="#000000" stroke-width="0.25" stroke-miterlimit="10" d="M29.3,48.6c-0.3-0.8-1-1.3-2.4-2
			c-0.5,0-0.6,0.2-0.4,0.5c1.4,0.8,1.9,1.3,2.3,2.1C29.1,49.2,29.2,49.1,29.3,48.6z"/>
		<path fill="#0C9E60" stroke="#000000" stroke-width="0.25" stroke-miterlimit="10" d="M54.4,48c-0.6-0.7-1.4-0.9-3-1
			c-0.5,0.2-0.5,0.4-0.2,0.6c1.6,0.2,2.3,0.5,2.9,1.1C54.4,48.6,54.5,48.5,54.4,48z"/>
		<path fill="#0C9E60" stroke="#000000" stroke-width="0.25" stroke-miterlimit="10" d="M29.5,24.2c-0.6-0.7-1.4-0.9-3-1
			c-0.5,0.2-0.5,0.4-0.2,0.6c1.6,0.2,2.3,0.5,2.9,1.1C29.5,24.9,29.6,24.7,29.5,24.2z"/>
		<path fill="#E5E5E5" stroke="#000000" stroke-width="0.25" stroke-miterlimit="10" d="M24.1,32.4c0.2-0.8,0.9-1.4,2.2-2.2
			c0.5,0,0.6,0.2,0.5,0.4c-1.4,0.9-1.8,1.5-2.1,2.3C24.4,33,24.3,32.9,24.1,32.4z"/>
		<path fill="#E5E5E5" stroke="#000000" stroke-width="0.25" stroke-miterlimit="10" d="M55.9,55.8c-0.3-0.8-0.1-1.7,0.6-3.1
			c0.4-0.3,0.6-0.2,0.6,0.1c-0.6,1.6-0.6,2.2-0.4,3.1C56.4,56.1,56.2,56.1,55.9,55.8z"/>
		<path fill="#F2E367" stroke="#000000" stroke-width="0.25" stroke-miterlimit="10" d="M60.8,43.8c-0.2-0.8-0.8-1.5-2.2-2.3
			c-0.5-0.1-0.6,0.2-0.5,0.4c1.3,1,1.7,1.6,2,2.4C60.5,44.4,60.7,44.2,60.8,43.8z"/>
		<path fill="#F2E367" stroke="#000000" stroke-width="0.25" stroke-miterlimit="10" d="M62.1,29.1c0.8,0.2,1.4,0.9,2.2,2.2
			c0,0.5-0.2,0.6-0.4,0.5c-0.9-1.4-1.5-1.8-2.3-2.1C61.5,29.3,61.6,29.2,62.1,29.1z"/>
		<path fill="#F2E367" stroke="#000000" stroke-width="0.25" stroke-miterlimit="10" d="M42.2,23.9c0.8-0.3,1.7-0.1,3.1,0.6
			c0.3,0.4,0.2,0.6-0.1,0.6c-1.6-0.6-2.2-0.6-3.1-0.4C41.8,24.5,41.9,24.3,42.2,23.9z"/>
		<path fill="#F2E367" stroke="#000000" stroke-width="0.25" stroke-miterlimit="10" d="M17.6,27.8c0.7,0.6,0.9,1.4,1,3
			c-0.2,0.5-0.4,0.5-0.6,0.2c-0.2-1.6-0.5-2.3-1.1-2.9C16.9,27.8,17.1,27.7,17.6,27.8z"/>
		<path fill="#F2E367" stroke="#000000" stroke-width="0.25" stroke-miterlimit="10" d="M48.6,51.9c0.7,0.6,0.9,1.4,1,3
			c-0.2,0.5-0.4,0.5-0.6,0.2c-0.2-1.6-0.5-2.3-1.1-2.9C48,51.8,48.1,51.7,48.6,51.9z"/>
		<path fill="#F2E367" stroke="#000000" stroke-width="0.25" stroke-miterlimit="10" d="M25.7,54c0.8-0.3,1.7-0.1,3.1,0.6
			c0.3,0.4,0.2,0.6-0.1,0.6c-1.6-0.6-2.2-0.6-3.1-0.4C25.4,54.6,25.4,54.4,25.7,54z"/>
	</g>
	<g>
	</g>
	<g>
	</g>
	<g>
	</g>
	<g>
	</g>
	<g>
	</g>
</g>
</svg>
