<?xml version="1.0" encoding="utf-8"?>
<!-- Generator: Adobe Illustrator 25.4.1, SVG Export Plug-In . SVG Version: 6.00 Build 0)  -->
<svg version="1.1" id="Слой_1" xmlns="http://www.w3.org/2000/svg" xmlns:xlink="http://www.w3.org/1999/xlink" x="0px" y="0px"
	 viewBox="0 0 80 80" style="enable-background:new 0 0 80 80;" xml:space="preserve">
<style type="text/css">
	.st0{display:none;}
	.st1{display:inline;}
	.st2{fill:#190F30;}
	.st3{fill:#110035;stroke:#FFFFFF;stroke-miterlimit:10;}
	.st4{fill:#FFFFFF;stroke:#FFFFFF;stroke-miterlimit:10;}
	.st5{fill:#110035;stroke:#110035;stroke-miterlimit:10;}
</style>
<g id="Сло_2" class="st0">
	<path class="st1" d="M50.9,29.6c2.6,0,4.6-2,4.6-4.6s-2-4.6-4.6-4.6s-4.6,2-4.6,4.6C46.3,27.6,48.3,29.6,50.9,29.6z"/>
	<path class="st1" d="M72.7,60.1c-2.1-1.4-4.7-2.9-6.9-4.4c-1.9-2.9-3.7-5.8-5.6-8.8c-0.6-3.5-1.2-6.9-1.8-10.4c2-0.2,4-0.4,6-0.6
		c1.7,1.1,3.5,2.3,5.1,3.3c0.9,0.5,1.5,0.3,2.2-0.3l0,0c0.5-0.8,0.6-1.6-0.2-2.3c-1.4-1.3-3.1-2.8-4.6-4.1c-0.6-0.5-1-0.7-1.8-0.7
		c-3.7-0.2-7.7-0.4-11.4-0.7c-0.5,0-0.5,0-0.7,0s-0.3,0-0.5,0.1c-0.9,0.2-1.4,0.4-2.3,1c-2.7,1.7-5.6,3.5-8.4,5.1
		c-1.7-0.9-3.6-2.1-5.3-2.9c-1-0.5-1.7-0.1-2.4,0.6L34,35.1c0,0.4-0.2,0.9,0,1.3c0.2,0.5,0.3,0.8,0.8,1.1c2,1.2,4.3,2.6,6.3,3.7
		c1,0.6,1.6,0.6,2.7,0.2c1.7-0.5,3.6-1.4,5.3-2c0.6,2.4,1.2,4.8,1.8,7.2c-2.4,0-5.1-0.1-7.5,0c-1.2,0-1.9,0.4-2.6,1.2
		c-0.7,0.9-0.9,1.6-0.7,2.8c0.6,3.2,1.3,7,2,10.2c0.3,1.4,1.2,1.7,2.4,1.8h0.1c1.1-0.4,1.9-1,1.8-2.4c-0.1-2.3-0.5-4.9-0.6-7.3
		c3.5,0.1,7,0.2,10.5,0.3c1.6,1.6,3.3,3.4,4.9,4.9c0.9,0.8,1.3,1.2,2.4,1.8c2.3,1.2,4.9,2.8,7.2,3.9c1.3,0.6,2.1,0.1,2.9-0.8v-0.1
		C73.9,61.8,73.9,60.9,72.7,60.1z"/>
</g>
<path class="st2" d="M67.2,77.5H12.8C6.8,77.5,2,72.7,2,66.7V13.8C2,7.9,6.8,3,12.8,3h54.3C73.2,3,78,7.9,78,13.8v52.9
	C78,72.7,73.2,77.5,67.2,77.5z"/>
<g>
	<g>
		<path class="st3" d="M35.1,53.4c1.1-2.8,9.8-3.9,10.5,1.1c0.4,3.3-3.9,11.6-5.4,11.2C38.4,65.1,34.3,55.4,35.1,53.4z"/>
	</g>
	<ellipse class="st4" cx="19" cy="30" rx="11.2" ry="17.5"/>
	<ellipse class="st5" cx="19" cy="32.2" rx="5.7" ry="9"/>
	<ellipse class="st4" cx="61" cy="30" rx="11.2" ry="17.5"/>
	<ellipse class="st5" cx="61" cy="32.2" rx="5.7" ry="9"/>
</g>
</svg>
