<?xml version="1.0" encoding="utf-8"?>
<!-- Generator: Adobe Illustrator 25.4.1, SVG Export Plug-In . SVG Version: 6.00 Build 0)  -->
<svg version="1.1" id="Слой_1" xmlns="http://www.w3.org/2000/svg" xmlns:xlink="http://www.w3.org/1999/xlink" x="0px" y="0px"
	 viewBox="0 0 80 80" enable-background="new 0 0 80 80" xml:space="preserve">
<g id="Сло_2" display="none">
	<path display="inline" d="M50.9,29.6c2.6,0,4.6-2,4.6-4.6s-2-4.6-4.6-4.6s-4.6,2-4.6,4.6C46.3,27.6,48.3,29.6,50.9,29.6z"/>
	<path display="inline" d="M72.7,60.1c-2.1-1.4-4.7-2.9-6.9-4.4c-1.9-2.9-3.7-5.8-5.6-8.8c-0.6-3.5-1.2-6.9-1.8-10.4
		c2-0.2,4-0.4,6-0.6c1.7,1.1,3.5,2.3,5.1,3.3c0.9,0.5,1.5,0.3,2.2-0.3l0,0c0.5-0.8,0.6-1.6-0.2-2.3c-1.4-1.3-3.1-2.8-4.6-4.1
		c-0.6-0.5-1-0.7-1.8-0.7c-3.7-0.2-7.7-0.4-11.4-0.7c-0.5,0-0.5,0-0.7,0s-0.3,0-0.5,0.1c-0.9,0.2-1.4,0.4-2.3,1
		c-2.7,1.7-5.6,3.5-8.4,5.1c-1.7-0.9-3.6-2.1-5.3-2.9c-1-0.5-1.7-0.1-2.4,0.6L34,35.1c0,0.4-0.2,0.9,0,1.3c0.2,0.5,0.3,0.8,0.8,1.1
		c2,1.2,4.3,2.6,6.3,3.7c1,0.6,1.6,0.6,2.7,0.2c1.7-0.5,3.6-1.4,5.3-2c0.6,2.4,1.2,4.8,1.8,7.2c-2.4,0-5.1-0.1-7.5,0
		c-1.2,0-1.9,0.4-2.6,1.2c-0.7,0.9-0.9,1.6-0.7,2.8c0.6,3.2,1.3,7,2,10.2c0.3,1.4,1.2,1.7,2.4,1.8h0.1c1.1-0.4,1.9-1,1.8-2.4
		c-0.1-2.3-0.5-4.9-0.6-7.3c3.5,0.1,7,0.2,10.5,0.3c1.6,1.6,3.3,3.4,4.9,4.9c0.9,0.8,1.3,1.2,2.4,1.8c2.3,1.2,4.9,2.8,7.2,3.9
		c1.3,0.6,2.1,0.1,2.9-0.8v-0.1C73.9,61.8,73.9,60.9,72.7,60.1z"/>
</g>
<g id="Слой_1_00000058563192329992283280000004044796156013111720_">
	<linearGradient id="SVGID_1_" gradientUnits="userSpaceOnUse" x1="40" y1="3" x2="40" y2="77.5">
		<stop  offset="0" style="stop-color:#D9A624"/>
		<stop  offset="0.5" style="stop-color:#D9A424"/>
		<stop  offset="0.6801" style="stop-color:#D99D24"/>
		<stop  offset="0.8085" style="stop-color:#DA9224"/>
		<stop  offset="0.9115" style="stop-color:#DB8125"/>
		<stop  offset="1" style="stop-color:#DC6B25"/>
	</linearGradient>
	
		<linearGradient id="SVGID_00000164505168834930749720000015065117551096442249_" gradientUnits="userSpaceOnUse" x1="40" y1="2.5" x2="40" y2="78">
		<stop  offset="0" style="stop-color:#D9A624"/>
		<stop  offset="0.3636" style="stop-color:#D9A424"/>
		<stop  offset="0.5431" style="stop-color:#D99C24"/>
		<stop  offset="0.6823" style="stop-color:#DA8F24"/>
		<stop  offset="0.8008" style="stop-color:#DA7C24"/>
		<stop  offset="0.905" style="stop-color:#DB6425"/>
		<stop  offset="1" style="stop-color:#DC4725"/>
	</linearGradient>
	<path fill="url(#SVGID_1_)" stroke="url(#SVGID_00000164505168834930749720000015065117551096442249_)" stroke-miterlimit="10" d="
		M67.2,77.5H12.8C6.8,77.5,2,72.7,2,66.7V13.8C2,7.9,6.8,3,12.8,3h54.3C73.2,3,78,7.9,78,13.8v52.9C78,72.7,73.2,77.5,67.2,77.5z"/>
</g>
<g>
	
		<linearGradient id="SVGID_00000180325303704575517160000016372005377248573375_" gradientUnits="userSpaceOnUse" x1="41.8991" y1="16.0289" x2="63.1457" y2="16.0289" gradientTransform="matrix(-0.7485 -1 -1 -4.489700e-11 109.9373 85.8217)">
		<stop  offset="0" style="stop-color:#D9A624"/>
		<stop  offset="2.539992e-03" style="stop-color:#D9A524"/>
		<stop  offset="0.1925" style="stop-color:#DA8424"/>
		<stop  offset="0.3851" style="stop-color:#DB6925"/>
		<stop  offset="0.5822" style="stop-color:#DC5625"/>
		<stop  offset="0.7845" style="stop-color:#DC4B25"/>
		<stop  offset="1" style="stop-color:#DC4725"/>
	</linearGradient>
	
		<linearGradient id="SVGID_00000091699492465248419140000005475990989774145685_" gradientUnits="userSpaceOnUse" x1="49.6639" y1="34.1769" x2="59.5317" y2="32.4215">
		<stop  offset="5.327789e-09" style="stop-color:#999999"/>
		<stop  offset="0.1753" style="stop-color:#888888;stop-opacity:0.8597"/>
		<stop  offset="0.439" style="stop-color:#757575;stop-opacity:0.6488"/>
		<stop  offset="0.7106" style="stop-color:#6A6A6A;stop-opacity:0.4315"/>
		<stop  offset="1" style="stop-color:#666666;stop-opacity:0.2"/>
	</linearGradient>
	
		<polygon fill="url(#SVGID_00000180325303704575517160000016372005377248573375_)" stroke="url(#SVGID_00000091699492465248419140000005475990989774145685_)" stroke-miterlimit="10" points="
		48.3,22.7 57.1,43.9 60.9,43.9 52.1,22.7 	"/>
	
		<linearGradient id="SVGID_00000084513675980226296230000014334728872004076691_" gradientUnits="userSpaceOnUse" x1="41.8991" y1="22.3486" x2="63.1457" y2="22.3486" gradientTransform="matrix(-0.7485 -1 -1 -4.489700e-11 109.9373 85.8217)">
		<stop  offset="0" style="stop-color:#D9A624"/>
		<stop  offset="2.539992e-03" style="stop-color:#D9A524"/>
		<stop  offset="0.1925" style="stop-color:#DA8424"/>
		<stop  offset="0.3851" style="stop-color:#DB6925"/>
		<stop  offset="0.5822" style="stop-color:#DC5625"/>
		<stop  offset="0.7845" style="stop-color:#DC4B25"/>
		<stop  offset="1" style="stop-color:#DC4725"/>
	</linearGradient>
	
		<linearGradient id="SVGID_00000091736230729483392400000000911199968294416779_" gradientUnits="userSpaceOnUse" x1="43.3441" y1="34.1769" x2="53.2119" y2="32.4215">
		<stop  offset="5.327789e-09" style="stop-color:#999999"/>
		<stop  offset="0.1753" style="stop-color:#888888;stop-opacity:0.8597"/>
		<stop  offset="0.439" style="stop-color:#757575;stop-opacity:0.6488"/>
		<stop  offset="0.7106" style="stop-color:#6A6A6A;stop-opacity:0.4315"/>
		<stop  offset="1" style="stop-color:#666666;stop-opacity:0.2"/>
	</linearGradient>
	
		<polygon fill="url(#SVGID_00000084513675980226296230000014334728872004076691_)" stroke="url(#SVGID_00000091736230729483392400000000911199968294416779_)" stroke-miterlimit="10" points="
		42,22.7 50.8,43.9 54.6,43.9 45.8,22.7 	"/>
	
		<linearGradient id="SVGID_00000067943435143593609550000003383949943719567789_" gradientUnits="userSpaceOnUse" x1="48.7887" y1="43.5393" x2="33.4613" y2="23.0607">
		<stop  offset="0" style="stop-color:#D9A624"/>
		<stop  offset="2.539992e-03" style="stop-color:#D9A524"/>
		<stop  offset="0.1925" style="stop-color:#DA8424"/>
		<stop  offset="0.3851" style="stop-color:#DB6925"/>
		<stop  offset="0.5822" style="stop-color:#DC5625"/>
		<stop  offset="0.7845" style="stop-color:#DC4B25"/>
		<stop  offset="1" style="stop-color:#DC4725"/>
	</linearGradient>
	
		<linearGradient id="SVGID_00000037657271419328505310000003359013772272258177_" gradientUnits="userSpaceOnUse" x1="33.2206" y1="33.3" x2="49.0294" y2="33.3">
		<stop  offset="5.327789e-09" style="stop-color:#999999"/>
		<stop  offset="0.1753" style="stop-color:#888888;stop-opacity:0.8597"/>
		<stop  offset="0.439" style="stop-color:#757575;stop-opacity:0.6488"/>
		<stop  offset="0.7106" style="stop-color:#6A6A6A;stop-opacity:0.4315"/>
		<stop  offset="1" style="stop-color:#666666;stop-opacity:0.2"/>
	</linearGradient>
	
		<polygon fill="url(#SVGID_00000067943435143593609550000003383949943719567789_)" stroke="url(#SVGID_00000037657271419328505310000003359013772272258177_)" stroke-miterlimit="10" points="
		48.3,43.9 42.8,43.9 34,22.7 39.5,22.7 	"/>
	
		<linearGradient id="SVGID_00000124139220619170252240000008451756962539653761_" gradientUnits="userSpaceOnUse" x1="39.8436" y1="44.2541" x2="23.4464" y2="22.3459">
		<stop  offset="0" style="stop-color:#D9A624"/>
		<stop  offset="2.539992e-03" style="stop-color:#D9A524"/>
		<stop  offset="0.1925" style="stop-color:#DA8424"/>
		<stop  offset="0.3851" style="stop-color:#DB6925"/>
		<stop  offset="0.5822" style="stop-color:#DC5625"/>
		<stop  offset="0.7845" style="stop-color:#DC4B25"/>
		<stop  offset="1" style="stop-color:#DC4725"/>
	</linearGradient>
	
		<linearGradient id="SVGID_00000096044620624827580900000014130613660876127367_" gradientUnits="userSpaceOnUse" x1="22.251" y1="33.3" x2="41.039" y2="33.3">
		<stop  offset="5.327789e-09" style="stop-color:#999999"/>
		<stop  offset="0.1753" style="stop-color:#888888;stop-opacity:0.8597"/>
		<stop  offset="0.439" style="stop-color:#757575;stop-opacity:0.6488"/>
		<stop  offset="0.7106" style="stop-color:#6A6A6A;stop-opacity:0.4315"/>
		<stop  offset="1" style="stop-color:#666666;stop-opacity:0.2"/>
	</linearGradient>
	
		<polygon fill="url(#SVGID_00000124139220619170252240000008451756962539653761_)" stroke="url(#SVGID_00000096044620624827580900000014130613660876127367_)" stroke-miterlimit="10" points="
		40.3,43.9 31.8,43.9 23,22.7 31.5,22.7 	"/>
	
		<linearGradient id="SVGID_00000076566160413982486560000002030196594337899443_" gradientUnits="userSpaceOnUse" x1="-14.5631" y1="72.2063" x2="63.2923" y2="72.2063" gradientTransform="matrix(-0.2231 -0.5302 -0.2409 0.1014 40.2873 37.7836)">
		<stop  offset="0" style="stop-color:#D9A624"/>
		<stop  offset="2.539992e-03" style="stop-color:#D9A524"/>
		<stop  offset="0.1925" style="stop-color:#DA8424"/>
		<stop  offset="0.3851" style="stop-color:#DB6925"/>
		<stop  offset="0.5822" style="stop-color:#DC5625"/>
		<stop  offset="0.7845" style="stop-color:#DC4B25"/>
		<stop  offset="1" style="stop-color:#DC4725"/>
	</linearGradient>
	
		<linearGradient id="SVGID_00000120560422127400122780000001838452761114228647_" gradientUnits="userSpaceOnUse" x1="10.1903" y1="31.8671" x2="29.3358" y2="28.4612">
		<stop  offset="5.327789e-09" style="stop-color:#999999"/>
		<stop  offset="0.1753" style="stop-color:#888888;stop-opacity:0.8597"/>
		<stop  offset="0.439" style="stop-color:#757575;stop-opacity:0.6488"/>
		<stop  offset="0.7106" style="stop-color:#6A6A6A;stop-opacity:0.4315"/>
		<stop  offset="1" style="stop-color:#666666;stop-opacity:0.2"/>
	</linearGradient>
	
		<polygon fill="url(#SVGID_00000076566160413982486560000002030196594337899443_)" stroke="url(#SVGID_00000120560422127400122780000001838452761114228647_)" stroke-miterlimit="10" points="
		23.6,29.6 14.9,8.9 13.1,21.9 11.3,34.8 21.8,42.5 32.3,50.2 	"/>
</g>
<g>
	
		<linearGradient id="SVGID_00000061451893126132622200000004677657382957858439_" gradientUnits="userSpaceOnUse" x1="9.9859" y1="80.1053" x2="19.605" y2="80.1053" gradientTransform="matrix(0.1358 0.9915 0.9845 -0.1751 -60.9989 63.7451)">
		<stop  offset="0" style="stop-color:#D9A624"/>
		<stop  offset="2.539992e-03" style="stop-color:#D9A524"/>
		<stop  offset="0.1925" style="stop-color:#DA8424"/>
		<stop  offset="0.3851" style="stop-color:#DB6925"/>
		<stop  offset="0.5822" style="stop-color:#DC5625"/>
		<stop  offset="0.7845" style="stop-color:#DC4B25"/>
		<stop  offset="1" style="stop-color:#DC4725"/>
	</linearGradient>
	
		<linearGradient id="SVGID_00000150092536997190970450000009398949452418426783_" gradientUnits="userSpaceOnUse" x1="17.1445" y1="64.3852" x2="22.6094" y2="64.3852">
		<stop  offset="5.327789e-09" style="stop-color:#999999"/>
		<stop  offset="0.1753" style="stop-color:#888888;stop-opacity:0.8597"/>
		<stop  offset="0.439" style="stop-color:#757575;stop-opacity:0.6488"/>
		<stop  offset="0.7106" style="stop-color:#6A6A6A;stop-opacity:0.4315"/>
		<stop  offset="1" style="stop-color:#666666;stop-opacity:0.2"/>
	</linearGradient>
	
		<polygon fill="url(#SVGID_00000061451893126132622200000004677657382957858439_)" stroke="url(#SVGID_00000150092536997190970450000009398949452418426783_)" stroke-miterlimit="10" points="
		20.1,69.2 22,59.1 19.6,59.5 17.8,69.6 	"/>
	
		<linearGradient id="SVGID_00000129924234993819481220000004501944155637303984_" gradientUnits="userSpaceOnUse" x1="9.9859" y1="83.6708" x2="19.605" y2="83.6708" gradientTransform="matrix(0.1358 0.9915 0.9845 -0.1751 -60.9989 63.7451)">
		<stop  offset="0" style="stop-color:#D9A624"/>
		<stop  offset="2.539992e-03" style="stop-color:#D9A524"/>
		<stop  offset="0.1925" style="stop-color:#DA8424"/>
		<stop  offset="0.3851" style="stop-color:#DB6925"/>
		<stop  offset="0.5822" style="stop-color:#DC5625"/>
		<stop  offset="0.7845" style="stop-color:#DC4B25"/>
		<stop  offset="1" style="stop-color:#DC4725"/>
	</linearGradient>
	
		<linearGradient id="SVGID_00000121265679963621571700000002227832988595799474_" gradientUnits="userSpaceOnUse" x1="20.6549" y1="63.7607" x2="26.1198" y2="63.7607">
		<stop  offset="5.327789e-09" style="stop-color:#999999"/>
		<stop  offset="0.1753" style="stop-color:#888888;stop-opacity:0.8597"/>
		<stop  offset="0.439" style="stop-color:#757575;stop-opacity:0.6488"/>
		<stop  offset="0.7106" style="stop-color:#6A6A6A;stop-opacity:0.4315"/>
		<stop  offset="1" style="stop-color:#666666;stop-opacity:0.2"/>
	</linearGradient>
	
		<polygon fill="url(#SVGID_00000129924234993819481220000004501944155637303984_)" stroke="url(#SVGID_00000121265679963621571700000002227832988595799474_)" stroke-miterlimit="10" points="
		23.6,68.6 25.5,58.5 23.2,58.9 21.3,69 	"/>
	
		<linearGradient id="SVGID_00000070106063963964980990000013859929429823173007_" gradientUnits="userSpaceOnUse" x1="9.9859" y1="87.0455" x2="19.605" y2="87.0455" gradientTransform="matrix(0.1358 0.9915 0.9845 -0.1751 -60.9989 63.7451)">
		<stop  offset="0" style="stop-color:#D9A624"/>
		<stop  offset="2.539992e-03" style="stop-color:#D9A524"/>
		<stop  offset="0.1925" style="stop-color:#DA8424"/>
		<stop  offset="0.3851" style="stop-color:#DB6925"/>
		<stop  offset="0.5822" style="stop-color:#DC5625"/>
		<stop  offset="0.7845" style="stop-color:#DC4B25"/>
		<stop  offset="1" style="stop-color:#DC4725"/>
	</linearGradient>
	
		<linearGradient id="SVGID_00000146501977687698187040000012618177265836726406_" gradientUnits="userSpaceOnUse" x1="23.9775" y1="63.1696" x2="29.4424" y2="63.1696">
		<stop  offset="5.327789e-09" style="stop-color:#999999"/>
		<stop  offset="0.1753" style="stop-color:#888888;stop-opacity:0.8597"/>
		<stop  offset="0.439" style="stop-color:#757575;stop-opacity:0.6488"/>
		<stop  offset="0.7106" style="stop-color:#6A6A6A;stop-opacity:0.4315"/>
		<stop  offset="1" style="stop-color:#666666;stop-opacity:0.2"/>
	</linearGradient>
	
		<polygon fill="url(#SVGID_00000070106063963964980990000013859929429823173007_)" stroke="url(#SVGID_00000146501977687698187040000012618177265836726406_)" stroke-miterlimit="10" points="
		26.9,68 28.8,57.9 26.5,58.3 24.6,68.4 	"/>
	
		<linearGradient id="SVGID_00000116214897585422578660000010224562351093520822_" gradientUnits="userSpaceOnUse" x1="9.9859" y1="90.4681" x2="19.605" y2="90.4681" gradientTransform="matrix(0.1358 0.9915 0.9845 -0.1751 -60.9989 63.7451)">
		<stop  offset="0" style="stop-color:#D9A624"/>
		<stop  offset="2.539992e-03" style="stop-color:#D9A524"/>
		<stop  offset="0.1925" style="stop-color:#DA8424"/>
		<stop  offset="0.3851" style="stop-color:#DB6925"/>
		<stop  offset="0.5822" style="stop-color:#DC5625"/>
		<stop  offset="0.7845" style="stop-color:#DC4B25"/>
		<stop  offset="1" style="stop-color:#DC4725"/>
	</linearGradient>
	
		<linearGradient id="SVGID_00000043459088241707188560000002988859608464105903_" gradientUnits="userSpaceOnUse" x1="27.3471" y1="62.5702" x2="32.8121" y2="62.5702">
		<stop  offset="5.327789e-09" style="stop-color:#999999"/>
		<stop  offset="0.1753" style="stop-color:#888888;stop-opacity:0.8597"/>
		<stop  offset="0.439" style="stop-color:#757575;stop-opacity:0.6488"/>
		<stop  offset="0.7106" style="stop-color:#6A6A6A;stop-opacity:0.4315"/>
		<stop  offset="1" style="stop-color:#666666;stop-opacity:0.2"/>
	</linearGradient>
	
		<polygon fill="url(#SVGID_00000116214897585422578660000010224562351093520822_)" stroke="url(#SVGID_00000043459088241707188560000002988859608464105903_)" stroke-miterlimit="10" points="
		30.3,67.4 32.2,57.3 29.9,57.7 28,67.8 	"/>
	
		<linearGradient id="SVGID_00000142886455375049431770000017632358039812451211_" gradientUnits="userSpaceOnUse" x1="32.3964" y1="61.6732" x2="70.43" y2="61.6732" gradientTransform="matrix(0.9845 -0.1751 0.1751 0.9845 -10.8656 6.2176)">
		<stop  offset="0" style="stop-color:#D9A624"/>
		<stop  offset="2.539992e-03" style="stop-color:#D9A524"/>
		<stop  offset="0.1925" style="stop-color:#DA8424"/>
		<stop  offset="0.3851" style="stop-color:#DB6925"/>
		<stop  offset="0.5822" style="stop-color:#DC5625"/>
		<stop  offset="0.7845" style="stop-color:#DC4B25"/>
		<stop  offset="1" style="stop-color:#DC4725"/>
	</linearGradient>
	
		<linearGradient id="SVGID_00000031184898266434462620000016403237292585442467_" gradientUnits="userSpaceOnUse" x1="32.2216" y1="58.2041" x2="70.1326" y2="58.2041">
		<stop  offset="5.327789e-09" style="stop-color:#999999"/>
		<stop  offset="0.1753" style="stop-color:#888888;stop-opacity:0.8597"/>
		<stop  offset="0.439" style="stop-color:#757575;stop-opacity:0.6488"/>
		<stop  offset="0.7106" style="stop-color:#6A6A6A;stop-opacity:0.4315"/>
		<stop  offset="1" style="stop-color:#666666;stop-opacity:0.2"/>
	</linearGradient>
	
		<polygon fill="url(#SVGID_00000142886455375049431770000017632358039812451211_)" stroke="url(#SVGID_00000031184898266434462620000016403237292585442467_)" stroke-miterlimit="10" points="
		69.3,54.6 65.2,58.7 61.1,62.9 60.9,62 32.8,67 34.7,56.9 59.2,52.5 58.7,49.7 64,52.1 	"/>
</g>
</svg>
