<?xml version="1.0" encoding="utf-8"?>
<!-- Generator: Adobe Illustrator 25.4.1, SVG Export Plug-In . SVG Version: 6.00 Build 0)  -->
<svg version="1.1" id="Слой_1" xmlns="http://www.w3.org/2000/svg" xmlns:xlink="http://www.w3.org/1999/xlink" x="0px" y="0px"
	 viewBox="0 0 80 80" style="enable-background:new 0 0 80 80;" xml:space="preserve">
<style type="text/css">
	.st0{fill:#026634;stroke:#336733;stroke-miterlimit:10;}
	.st1{opacity:0.29;fill:#29ABE2;stroke:#0071BC;stroke-miterlimit:10;}
	.st2{opacity:0.29;fill:#C69C6D;stroke:#754C24;stroke-miterlimit:10;}
	.st3{opacity:0.29;fill:#2E3192;stroke:#1B1464;stroke-miterlimit:10;}
	.st4{opacity:0.29;fill:#ED1E79;stroke:#D4145A;stroke-miterlimit:10;}
	.st5{opacity:0.29;fill:#C7B299;stroke:#998675;stroke-miterlimit:10;}
	.st6{opacity:0.29;fill:#F7931E;stroke:#F15A24;stroke-miterlimit:10;}
	.st7{opacity:0.29;fill:#93278F;stroke:#662D91;stroke-miterlimit:10;}
	.st8{opacity:0.29;fill:#ED1C24;stroke:#C1272D;stroke-miterlimit:10;}
	.st9{fill:#9E005D;}
	.st10{fill:#C1272D;}
	.st11{fill:#00FF00;}
	.st12{fill:#D9E021;}
	.st13{fill:#FBB03B;}
	.st14{fill:#F15A24;}
	.st15{fill:#662D91;}
	.st16{fill:none;stroke:#F7931E;stroke-miterlimit:10;}
	.st17{fill:none;stroke:#FCEE21;stroke-miterlimit:10;}
	.st18{fill:#29ABE2;stroke:#0071BC;stroke-miterlimit:10;}
	.st19{fill:#C69C6D;stroke:#754C24;stroke-miterlimit:10;}
	.st20{fill:#2E3192;stroke:#1B1464;stroke-miterlimit:10;}
	.st21{fill:#ED1E79;stroke:#D4145A;stroke-miterlimit:10;}
	.st22{fill:#C7B299;stroke:#998675;stroke-miterlimit:10;}
	.st23{fill:#F7931E;stroke:#F15A24;stroke-miterlimit:10;}
	.st24{fill:#93278F;stroke:#662D91;stroke-miterlimit:10;}
	.st25{fill:#ED1C24;stroke:#C1272D;stroke-miterlimit:10;}
	.st26{fill:#FCEE21;stroke:#FFFF00;stroke-miterlimit:10;}
</style>
<g id="Сло_2">
</g>
<path class="st0" d="M67.2,77.5H12.8C6.8,77.5,2,72.7,2,66.7V13.8C2,7.9,6.8,3,12.8,3h54.3C73.2,3,78,7.9,78,13.8v52.9
	C78,72.7,73.2,77.5,67.2,77.5z"/>
<circle class="st1" cx="74.7" cy="27.6" r="1.7"/>
<circle class="st2" cx="74.2" cy="43.3" r="1.3"/>
<circle class="st3" cx="42.5" cy="29.4" r="1.7"/>
<circle class="st4" cx="14.4" cy="22" r="1.3"/>
<circle class="st5" cx="27.1" cy="37.2" r="1.3"/>
<circle class="st6" cx="13.9" cy="47.4" r="1.7"/>
<circle class="st7" cx="55.8" cy="17.3" r="2.1"/>
<circle class="st8" cx="71.9" cy="14.4" r="1.5"/>
<g>
	<rect x="13" y="51" class="st9" width="15.9" height="13.5"/>
	<rect x="13" y="56.3" class="st10" width="15.9" height="2.4"/>
	<rect x="19.7" y="51" class="st10" width="2.4" height="13.5"/>
	<g>
		<g>
			<path class="st10" d="M21.2,52c0.2,0,0.2,0,0.5,0h0.2c0,0,0.2,0,0,0c0.2,0,0.2,0,0.5,0h0.2l0,0c0,0,0.2,0,0.2,0.2
				c0,0,0.2,0.2,0,0l0,0l0.2,0.2c-0.2-0.2,0,0,0,0s0,0,0,0.2c0,0,0,0.2,0,0V53c0,0.2,0,0.2,0.2,0.5c0.2,0.2,0.2,0.7,0.5,1
				c0.5,0.5,1.2,0.7,1.9,1c0.5,0,1-0.5,1-1s-0.5-1-1-1c-0.2,0,0,0,0,0h-0.2c0.2,0,0,0,0,0s0,0-0.2,0c0.2,0,0,0,0,0l0,0
				c0.2,0.2,0,0,0,0s0,0,0-0.2s0,0.2,0,0c0,0,0,0,0-0.2S25,52.7,25,52.5c-0.2-0.2-0.2-0.5-0.5-0.7c-1-1-2.4-1.4-3.6-1.2
				c-0.5,0-1,0.5-1,1C20.2,51.5,20.5,52,21.2,52L21.2,52z"/>
		</g>
	</g>
	<g>
		<g>
			<path class="st10" d="M21.4,50.3c-0.2,0-0.5,0-1,0s-0.7,0-1,0.2c-0.5,0.2-0.7,1-1,1.4c0,0.2-0.2,0.5-0.2,0.7L18,53c0,0.2,0,0,0,0
				s0,0,0,0.2c0,0,0,0-0.2,0.2l0,0l0,0l-0.2,0.2c-0.2,0,0.2,0,0,0c0,0,0,0-0.2,0h-0.2c-0.2,0,0.2,0,0,0c-0.5,0-1,0.5-1,1s0.5,1,1,1
				s1.2-0.2,1.7-0.5c0.5-0.2,0.7-0.7,1.2-1.4c0.2-0.5,0.5-1,0.5-1.2c0,0,0,0,0-0.2l0,0l0,0h-0.2h0.2c0.2,0,0.7,0,1,0
				c0.5,0,1-0.5,1-1C22.1,50.6,21.9,50.3,21.4,50.3L21.4,50.3z"/>
		</g>
	</g>
	<g>
		<g>
			<path class="st10" d="M21.7,51.8c1.2,0.2,2.4,0,3.6-0.5c1-0.5,2.4-1,2.4-2.2c0-1.4-1.4-1.9-2.7-1.7c-1.2,0.2-2.2,1-3.1,1.7
				c-1,0.7-1.7,1.4-2.9,1.7c-0.5,0-0.7,0.7-0.7,1.2c0.2,0.5,0.7,0.7,1.2,0.7c1.2-0.2,2.2-1,2.9-1.7c0.7-0.7,1.4-1.4,2.4-1.7
				c0.2,0,0.2,0,0.5,0h0.2l0,0c0,0,0,0,0-0.2v-0.2c0,0,0,0-0.2,0c-0.2,0.2-0.5,0.2-0.7,0.5c-1,0.5-1.9,1-2.9,0.7
				c-0.5,0-1,0.2-1.2,0.7C20.9,51,21.2,51.8,21.7,51.8L21.7,51.8z"/>
		</g>
	</g>
	<g>
		<g>
			<path class="st10" d="M21.7,50.3c-1.2-0.7-2.2-1.4-3.4-1.9c-1.2-0.5-2.7-0.2-3.6,0.5c-0.2,0.2-0.2,1,0,1.2c1,0.7,2.4,1.2,3.9,1.4
				c1.4,0.2,2.9,0.2,4.3,0.2c0.5,0,1-0.5,1-1s-0.5-1-1-1c-1.2,0-2.4,0-3.9-0.2c-0.5,0-1-0.2-1.4-0.2c-0.5-0.2-1-0.2-1.4-0.5
				c0,0.5,0,1,0,1.2c0.5-0.5,1.4-0.2,2.2,0c1,0.5,1.7,1.2,2.7,1.7c0.5,0.2,1,0,1.2-0.2C22.1,51,22.1,50.6,21.7,50.3L21.7,50.3z"/>
		</g>
	</g>
</g>
<g>
	<rect x="25.1" y="56.8" class="st11" width="22.7" height="19.1"/>
	<rect x="25.1" y="64.5" class="st12" width="22.7" height="3.4"/>
	<rect x="34.9" y="56.9" class="st12" width="3.4" height="19.1"/>
	<g>
		<g>
			<path class="st13" d="M36.5,56.8c-1.4,0-2.9,0.2-3.9,1.4c-0.2,0.2-0.5,0.5-0.5,1c-0.2,0.2-0.2,0.7-0.5,1c0-0.2,0,0.2,0,0.2
				s0,0,0,0.2c0-0.2,0,0,0,0s-0.2,0.2,0,0h-0.2h-0.2c0,0,0,0-0.2,0s0,0,0,0c-0.5,0-1,0.5-1,1s0.5,1,1,1c0.7,0,1.4-0.2,1.9-1
				c0.2-0.2,0.5-0.7,0.7-1c0-0.2,0.2-0.2,0.2-0.5c0,0,0,0,0-0.2c0,0.2,0-0.2,0-0.2v-0.2c0,0,0.2-0.2,0,0l0.2-0.2c0,0,0.2-0.2,0,0
				c0,0,0,0,0.2,0s0.2-0.2,0.5-0.2c0.2,0-0.2,0,0.2,0h0.2c0.2,0,0.5,0,0.5,0c0.2,0,0.7,0,1,0c0.5,0,1-0.5,1-1
				C37.4,57.3,36.9,56.8,36.5,56.8L36.5,56.8z"/>
		</g>
	</g>
	<g>
		<g>
			<path class="st13" d="M36.2,58.7c0.2,0,0.7,0,1,0h0.2l0,0c0,0-0.2,0-0.2-0.2l0,0c0,0,0,0,0,0.2c0.2,0.5,0.5,1,0.7,1.4
				c0.5,1.2,1.7,1.9,2.9,2.2c0.5,0,1-0.5,1-1s-0.5-1-1-1c-0.2,0,0.2,0,0,0h-0.2h-0.2c-0.2,0,0.2,0,0,0l-0.2-0.2l0,0c0,0,0,0-0.2-0.2
				c0,0,0,0-0.2-0.2l0,0l-0.2-0.2c0-0.2,0-0.5,0-0.7c-0.2-0.5-0.5-1.2-0.7-1.4c-0.5-0.5-1.4-0.5-2.2-0.2c-0.5,0-1,0.5-1,1
				C35.3,58.2,35.7,58.7,36.2,58.7L36.2,58.7z"/>
		</g>
	</g>
	<g>
		<g>
			<path class="st13" d="M35.3,56.8c-1.2,0.2-2.4-0.2-3.4-0.7c-0.2-0.2-0.5-0.2-0.7-0.5c0,0-0.2,0-0.2-0.2v0.2l0.5-0.2
				c0.2,0,0.5,0,0.7,0c1.2,0.2,1.9,1.2,2.7,1.9c1,0.7,1.9,1.4,3.1,1.7c0.5,0,1-0.2,1.2-0.7s-0.2-1-0.7-1.2c-2.4-0.5-3.6-2.9-5.8-3.6
				c-1.2-0.2-2.7,0-3.1,1.2c-0.5,1.4,1,2.2,1.9,2.7c1.4,0.7,2.9,1,4.3,0.7c0.5,0,0.7-0.7,0.7-1.2C36.2,56.8,35.7,56.8,35.3,56.8
				L35.3,56.8z"/>
		</g>
	</g>
	<g>
		<g>
			<path class="st13" d="M36.9,58.5c1-0.5,1.9-1.4,3.1-1.9c0.7-0.5,1.7-0.7,2.4,0c0-0.5,0-1,0-1.2c-0.5,0.2-1,0.5-1.7,0.7
				c-0.5,0.2-1.2,0.2-1.7,0.5c-1.4,0.2-2.7,0.2-4.1,0.2c-0.5,0-1,0.5-1,1s0.5,1,1,1c1.4,0,3.1,0,4.6-0.2c1.4-0.2,2.9-0.7,4.1-1.4
				c0.5-0.2,0.2-1,0-1.2c-1.2-1-2.7-1.2-3.9-0.5c-1.4,0.5-2.4,1.4-3.6,2.2C34.8,57.5,35.7,59,36.9,58.5L36.9,58.5z"/>
		</g>
	</g>
</g>
<g>
	<rect x="50.1" y="51.6" class="st14" width="22.7" height="19.1"/>
	<rect x="50.1" y="59.4" class="st10" width="22.7" height="3.4"/>
	<rect x="59.7" y="51.7" class="st10" width="3.4" height="19.1"/>
	<g>
		<g>
			<path class="st10" d="M61.2,50.9c-1.7,0-3.6,0.2-4.8,1.7c-0.5,0.7-0.7,1.4-1.2,2.2c-0.2,0.5-0.7,1-1.4,1c-0.5,0-1,0.5-1,1
				s0.5,1,1,1c1,0,1.7-0.5,2.2-1c0.5-0.7,0.7-1.4,1.2-2.2c0.7-1.4,2.4-1.7,3.9-1.7c0.5,0,1-0.5,1-1C62.2,51.1,61.7,50.9,61.2,50.9
				L61.2,50.9z"/>
		</g>
	</g>
	<g>
		<g>
			<path class="st10" d="M61,52.8c0.5,0,0.7,0,1.2,0h0.2c0.2,0,0,0,0,0l0,0V53c0.2,0.5,0.5,1.2,1,1.9c0.7,1.4,1.9,2.4,3.6,2.4
				c0.5,0,1-0.5,1-1s-0.5-1-1-1s-1-0.2-1.4-0.7c-0.2-0.2-0.2-0.5-0.5-0.7c-0.2-0.2-0.2-0.7-0.5-1c-0.2-0.7-0.5-1.4-1-1.9
				c-0.5-0.2-1-0.2-1.4-0.2s-1,0-1.2,0c-0.5,0-1,0.5-1,1C60,52.4,60.5,52.8,61,52.8L61,52.8z"/>
		</g>
	</g>
	<g>
		<g>
			<path class="st10" d="M59.8,50.7c-1.4,0.2-3.1-0.5-4.3-1c-0.2-0.2-0.7-0.2-1-0.5L54.2,49l0,0c0.2-0.5,1.2-0.5,1.4-0.2
				c1.4,0.5,2.4,1.7,3.6,2.4c1.2,1,2.4,1.9,4.1,2.2c1.2,0.2,1.7-1.4,0.5-1.7c-1.4-0.2-2.7-1.2-3.9-2.2s-2.4-2.2-3.9-2.7
				c-1.4-0.2-3.4,0-3.9,1.4c-0.5,1.7,1.4,2.4,2.7,3.1c1.7,0.7,3.6,1.2,5.3,1c0.5,0,0.7-0.7,0.7-1.2C60.7,50.9,60.2,50.7,59.8,50.7
				L59.8,50.7z"/>
		</g>
	</g>
	<g>
		<g>
			<path class="st10" d="M61.7,52.6c1.4-0.7,2.4-1.7,3.9-2.4c1-0.5,2.7-0.7,3.6,0c0-0.5,0-1,0-1.2c-0.5,0.5-1.4,0.7-2.2,1
				c-0.7,0.2-1.4,0.5-2.2,0.5c-1.7,0.2-3.6,0.2-5.3,0.2c-1.2,0-1.2,1.9,0,1.9c1.9,0,3.9,0,6-0.5c1.7-0.2,3.6-0.7,5.1-1.9
				c0.5-0.2,0.2-1,0-1.2c-1.4-1.2-3.1-1.2-4.8-0.7C64.1,49,62.7,50.2,61,51C59.8,51.4,60.5,53.1,61.7,52.6L61.7,52.6z"/>
		</g>
	</g>
</g>
<g>
	<rect x="6.2" y="58" class="st15" width="15.9" height="13.5"/>
	<rect x="6.2" y="63.5" class="st12" width="15.9" height="2.4"/>
	<rect x="12.9" y="58.1" class="st12" width="2.4" height="13.5"/>
	<g>
		<g>
			<path class="st13" d="M14.2,59.6h0.2h0.2c0,0-0.2,0,0,0l0,0c0,0,0,0,0.2,0c0,0,0,0,0.2,0s0,0,0,0s0.2,0,0.2,0.2c0,0,0,0,0.2,0
				l0,0l0,0l0.2,0.2c0,0,0-0.2,0,0c0,0,0,0,0,0.2c0,0,0,0.2,0,0s0,0,0,0v0.2c0.2,0.2,0.2,0.5,0.5,1c0.5,0.5,1,0.7,1.7,0.7
				c0.5,0,1-0.5,1-1s-0.5-1-1-1c-0.2,0,0.2,0,0,0h-0.2c0,0,0.2,0,0,0l0,0l0,0l0,0l0,0c0,0-0.2-0.2,0,0l0,0c0,0,0-0.2,0,0l0,0
				c0,0,0,0,0-0.2s-0.2-0.2-0.2-0.5c0-0.2-0.2-0.5-0.5-0.7c-0.7-0.7-1.9-1.2-2.9-1c-0.5,0-1,0.5-1,1C13.5,59.1,13.8,59.6,14.2,59.6
				L14.2,59.6z"/>
		</g>
	</g>
	<g>
		<g>
			<path class="st13" d="M14.5,57.9c-0.2,0-0.5,0-0.7,0c-0.5,0-0.7,0-1,0.2c-0.5,0.2-0.5,0.7-0.7,1.2c0,0.2-0.2,0.2-0.2,0.5
				c0,0,0,0.2-0.2,0.2l0,0l0,0l0,0l0,0c0,0-0.2,0,0,0c0,0-0.2,0-0.2,0.2c-0.2,0,0.2,0,0,0c0,0,0,0-0.2,0c0,0,0,0-0.2,0s0.2,0,0,0
				c-0.5,0-1,0.5-1,1s0.5,1,1,1s1-0.2,1.4-0.5c0.5-0.2,0.7-0.7,1-1.2c0.2-0.2,0.2-0.7,0.5-1l0,0l0,0l0,0c0,0-0.2,0-0.2,0.2
				c0,0,0,0-0.2,0h0.2c0.2,0,0.5,0,0.7,0c0.5,0,1-0.5,1-1C15.5,58.4,15,57.9,14.5,57.9L14.5,57.9z"/>
		</g>
	</g>
	<g>
		<g>
			<path class="st13" d="M14.7,59.6c1,0.2,1.9,0,2.9-0.5c0.7-0.2,1.9-0.7,1.9-1.9s-1.2-1.7-2.4-1.4c-1,0.2-1.7,0.7-2.4,1.4
				c-0.5,0.2-0.7,0.5-1,0.7c-0.2,0-0.5,0.2-0.5,0.2c-0.2,0,0,0,0,0s0,0-0.2,0h-0.2c-0.5,0-0.7,0.7-0.7,1.2c0.2,0.5,0.7,0.7,1.2,0.7
				c1-0.2,1.7-0.7,2.4-1.2c0.2-0.2,0.7-0.5,1-1c0,0,0,0,0.2-0.2l0,0c0,0,0.2,0,0.2-0.2c0.2-0.2,0.2-0.2,0.5-0.2c0,0,0,0,0.2,0l0,0
				H18c0,0,0,0,0.2,0l0,0l0,0l0,0V57c0,0,0-0.2,0.2-0.2c0,0.2,0,0,0,0c-0.2,0-0.2,0.2-0.5,0.2c-0.5,0.2-0.7,0.2-1.2,0.5h-0.2
				c-0.2,0,0,0-0.2,0h-0.2h-0.2c0,0-0.2,0,0,0c-0.5,0-1,0-1.2,0.7C14,58.9,14.2,59.3,14.7,59.6L14.7,59.6z"/>
		</g>
	</g>
	<g>
		<g>
			<path class="st13" d="M14.7,57.9c-1-0.5-1.7-1.2-2.7-1.7S9.9,56,8.9,56.7c-0.2,0.2-0.2,1,0,1.2c1.7,1.4,4.3,1.2,6.3,1.4
				c0.5,0,1-0.5,1-1s-0.5-1-1-1c-1,0-1.9,0-2.9-0.2c0.2,0-0.2,0-0.2,0h-0.2c-0.2,0-0.5,0-0.7-0.2H11h-0.2c0,0-0.2,0-0.2-0.2
				c0,0-0.2-0.2-0.2,0c0,0.5,0,1,0,1.2l0,0l0,0c0,0,0,0,0.2,0h0.2H11h0.2h0.2c0.2,0,0.2,0,0.5,0.2c0.7,0.5,1.4,1,2.2,1.4
				c0.5,0.2,1,0.2,1.2-0.2C15.5,58.6,15.2,58.1,14.7,57.9L14.7,57.9z"/>
		</g>
	</g>
</g>
<g>
	<path class="st16" d="M21,2.4c0,3.7-8,6.7-17.9,6.7"/>
	<path class="st16" d="M3.3,8.6c0,5.6,10.3,10.1,23.1,10.1"/>
	<path class="st16" d="M26.4,18.6c0,8.8-10.9,16-24.4,16"/>
</g>
<g>
	<path class="st17" d="M62,2.4c0,4.6,7.1,8.4,16,8.4"/>
	<path class="st17" d="M77.6,10.8c0,5.9-10.1,10.7-22.7,10.7"/>
	<path class="st17" d="M54.8,21.6c0,9,10.8,16.3,24.3,16.3"/>
</g>
<circle class="st18" cx="67.4" cy="19.8" r="1.7"/>
<circle class="st19" cx="67" cy="35.5" r="1.3"/>
<circle class="st20" cx="35.2" cy="21.6" r="1.7"/>
<circle class="st21" cx="7.1" cy="14.2" r="1.3"/>
<circle class="st22" cx="19.9" cy="29.4" r="1.3"/>
<circle class="st23" cx="6.7" cy="39.6" r="1.7"/>
<circle class="st24" cx="48.6" cy="9.5" r="2.1"/>
<circle class="st25" cx="64.7" cy="6.6" r="1.5"/>
<polygon class="st26" points="35.1,30.7 36.5,31.7 38.1,31.2 37.6,32.8 38.8,34.3 36.9,34.2 36,35.7 35.4,34 33.7,33.6 35.1,32.5 
	"/>
<polygon class="st26" points="47.7,18.3 47.8,20 49.2,21 47.6,21.6 47.2,23.4 46.1,21.9 44.3,22.1 45.3,20.6 44.6,18.9 46.3,19.4 
	"/>
<polygon class="st26" points="27.5,6.1 27.6,7.8 29,8.7 27.4,9.4 27,11.1 25.9,9.7 24.1,9.9 25.1,8.4 24.3,6.7 26,7.2 "/>
</svg>
