<?xml version="1.0" encoding="utf-8"?>
<!-- Generator: Adobe Illustrator 25.4.1, SVG Export Plug-In . SVG Version: 6.00 Build 0)  -->
<svg version="1.1" xmlns="http://www.w3.org/2000/svg" xmlns:xlink="http://www.w3.org/1999/xlink" x="0px" y="0px"
	 viewBox="0 0 80 80" enable-background="new 0 0 80 80" xml:space="preserve">
<g id="Сло_2">
</g>
<g id="Слой_1">
	<linearGradient id="SVGID_1_" gradientUnits="userSpaceOnUse" x1="1.9936" y1="40.2611" x2="78.0064" y2="40.2611">
		<stop  offset="4.469914e-03" style="stop-color:#78C0FF"/>
		<stop  offset="1" style="stop-color:#05244A"/>
	</linearGradient>
	<path fill="url(#SVGID_1_)" d="M67.2,77.5H12.8C6.8,77.5,2,72.7,2,66.7V13.8C2,7.9,6.8,3,12.8,3h54.3C73.2,3,78,7.9,78,13.8v52.9
		C78,72.7,73.2,77.5,67.2,77.5z"/>
	<g>
		<path fill="#ED1C24" d="M40.9,7.8l9.5,19.9c0.1,0.3,0.4,0.5,0.8,0.6l21.2,3.2c0.8,0.1,1.2,1.2,0.6,1.8L57.6,48.7
			c-0.2,0.2-0.4,0.6-0.3,0.9l3.6,21.8c0.1,0.9-0.7,1.5-1.5,1.1L40.5,62.3c-0.3-0.2-0.7-0.2-1,0L20.6,72.6c-0.8,0.4-1.6-0.3-1.5-1.1
			l3.6-21.8c0.1-0.3-0.1-0.7-0.3-0.9L7.1,33.3c-0.6-0.6-0.3-1.7,0.6-1.8l21.2-3.2c0.3-0.1,0.6-0.3,0.8-0.6l9.5-19.9
			C39.5,7,40.5,7,40.9,7.8z"/>
		<path fill="#C1272D" d="M40.7,17.5l7.1,14.8c0.1,0.2,0.3,0.4,0.6,0.4l15.8,2.4c0.6,0.1,0.9,0.9,0.4,1.4L53.1,47.9
			c-0.2,0.2-0.3,0.4-0.2,0.7l2.7,16.3c0.1,0.6-0.5,1.1-1.1,0.8L40.4,58c-0.2-0.1-0.5-0.1-0.7,0l-14.1,7.7c-0.6,0.3-1.2-0.2-1.1-0.8
			l2.7-16.3c0-0.3,0-0.5-0.2-0.7L15.5,36.4c-0.5-0.5-0.2-1.3,0.4-1.4l15.8-2.4c0.2,0,0.5-0.2,0.6-0.4l7.1-14.8
			C39.6,16.9,40.4,16.9,40.7,17.5z"/>
	</g>
	<g>
		<polygon fill="#BDE1FE" points="50.5,38.3 50.5,38.5 50.3,38.3 		"/>
		<polygon fill="#152557" points="50.5,38.3 50.3,38.3 50.5,38.5 50.5,38.3 		"/>
	</g>
	<g>
		<g>
			<polygon fill="#BDE1FE" points="20.1,42.4 15.3,37.4 64.8,37.4 60.1,42.4 			"/>
			<path fill="#152557" d="M64.2,37.7L60,42.1H20.2l-4.3-4.4H64.2 M65.4,37.2H14.8l5.2,5.4h40.2L65.4,37.2L65.4,37.2z"/>
		</g>
		<g>
			<polygon fill="#BDE1FE" points="24.3,47 19.5,42.1 60.3,42.1 55.6,47 			"/>
			<path fill="#152557" d="M59.7,42.3l-4.3,4.4H24.4l-4.3-4.4H59.7 M60.9,41.8H19l5.2,5.4h31.5L60.9,41.8L60.9,41.8z"/>
		</g>
		<g>
			<polygon fill="#BDE1FE" points="29,51.7 24.2,46.8 55.6,46.8 50.8,51.7 			"/>
			<path fill="#152557" d="M55,47l-4.3,4.4H29.1L24.8,47H55 M56.2,46.5H23.6l5.3,5.4h22.3L51,51.9L56.2,46.5L56.2,46.5z"/>
		</g>
		<g>
			<path fill="#FF0000" stroke="#152557" stroke-width="0.5" stroke-miterlimit="10" d="M48.7,44.5c0,5.9-3.6,10.7-8.1,10.7
				s-8.1-4.8-8.1-10.7c0-3.3,1.1-6.2,2.8-8.2c1.4-1.6,3.2-2.6,5.2-2.6c2,0,3.8,1,5.3,2.6C47.6,38.3,48.7,41.2,48.7,44.5z"/>
			<path d="M45.6,36.3c-1.4,1.6-3.3,2.6-5.3,2.6s-3.8-1-5.2-2.6c1.4-1.6,3.2-2.6,5.2-2.6S44.2,34.7,45.6,36.3z"/>
			<polyline fill="none" stroke="#000000" stroke-width="0.75" stroke-miterlimit="10" points="40.3,55.1 40.3,39.2 46,36.7 
				40.7,39.6 34.8,36.5 			"/>
			<ellipse cx="35.9" cy="41.6" rx="1" ry="1"/>
			<ellipse cx="44.3" cy="41.6" rx="1" ry="1"/>
			<ellipse cx="44.3" cy="46.4" rx="1" ry="1"/>
			<ellipse cx="35.9" cy="46.4" rx="1" ry="1"/>
			<ellipse cx="36.9" cy="51.5" rx="1" ry="1"/>
			<ellipse cx="43" cy="51.5" rx="1" ry="1"/>
		</g>
	</g>
	<g>
	</g>
	<g>
	</g>
	<g>
	</g>
	<g>
	</g>
	<g>
	</g>
</g>
</svg>
