<?xml version="1.0" encoding="utf-8"?>
<!-- Generator: Adobe Illustrator 25.4.1, SVG Export Plug-In . SVG Version: 6.00 Build 0)  -->
<svg version="1.1" id="Слой_1" xmlns="http://www.w3.org/2000/svg" xmlns:xlink="http://www.w3.org/1999/xlink" x="0px" y="0px"
	 viewBox="0 0 80 80" style="enable-background:new 0 0 80 80;" xml:space="preserve">
<style type="text/css">
	.st0{fill:url(#SVGID_1_);}
	.st1{fill:#474747;stroke:#000000;stroke-width:0.5;stroke-miterlimit:10;}
	.st2{stroke:#000000;stroke-width:0.5;stroke-miterlimit:10;}
	.st3{fill:#918F90;stroke:#000000;stroke-width:0.5;stroke-miterlimit:10;}
	.st4{fill:#B8EF32;stroke:#000000;stroke-width:0.5;stroke-miterlimit:10;}
	.st5{fill:#666465;stroke:#000000;stroke-width:0.5;stroke-miterlimit:10;}
	.st6{fill:#B6EC3F;stroke:#000000;stroke-width:0.5;stroke-miterlimit:10;}
</style>
<linearGradient id="SVGID_1_" gradientUnits="userSpaceOnUse" x1="39.8599" y1="3" x2="39.8599" y2="77.5223">
	<stop  offset="0" style="stop-color:#3BAD4A"/>
	<stop  offset="0.98" style="stop-color:#C7D120"/>
</linearGradient>
<path class="st0" d="M67,77.5H12.7c-6,0-10.8-4.9-10.8-10.8V13.8C1.9,7.9,6.7,3,12.7,3H67c6,0,10.8,4.9,10.8,10.8v52.9
	C77.9,72.7,73,77.5,67,77.5z"/>
<g>
	<g>
		<circle class="st1" cx="40" cy="40" r="31.8"/>
		<circle class="st2" cx="40" cy="40" r="26.6"/>
		<circle class="st3" cx="40.1" cy="40" r="23.8"/>
		<path class="st4" d="M55.5,55.7c-4,4-9.5,6.4-15.5,6.4s-11.5-2.4-15.5-6.4c0.3,0.2,0.6,0.4,1,0.6L37.3,40L25.4,23.4
			c3.9-3.4,9-5.5,14.6-5.5c6,0,11.4,2.4,15.3,6.2c-0.2-0.2-0.4-0.4-0.7-0.6L42.7,40.1l11.9,16.2C54.9,56.3,55.2,56,55.5,55.7z"/>
		<path class="st5" d="M25.4,23.4L37.3,40L25.4,56.3c-0.4-0.1-0.7-0.3-1-0.6c-0.1-0.1-0.2-0.2-0.3-0.3c-3.9-4-6.3-9.4-6.3-15.4
			c0-5.9,2.3-11.2,6-15.2C24.4,24.3,24.9,23.9,25.4,23.4z"/>
		<path class="st5" d="M62.1,40c0,5.8-2.2,11.1-5.9,15c-0.2,0.2-0.4,0.4-0.5,0.6c0,0,0,0-0.1,0.1c-0.4,0.3-0.6,0.6-0.9,0.7
			L42.7,40.1l11.9-16.5c0.3,0.2,0.5,0.4,0.7,0.6c0.3,0.3,0.6,0.6,0.9,0.9C59.8,28.9,62.1,34.2,62.1,40z"/>
		<path class="st2" d="M37.3,40L25.4,56.3c-0.4-0.1-0.7-0.3-1-0.6c-0.1-0.1-0.2-0.2-0.3-0.3c-0.3-0.4-0.5-0.8-0.7-1.2l10.5-14.3
			L23.9,25.4c-0.1-0.2-0.1-0.4,0.1-0.6c0.2-0.4,0.8-0.8,1.5-1.4l0,0L37.3,40z"/>
		<path class="st2" d="M56.5,54.3c0,0.3-0.2,0.5-0.4,0.8c-0.2,0.2-0.4,0.4-0.5,0.6c0,0,0,0-0.1,0.1c-0.4,0.3-0.6,0.6-0.9,0.7
			L42.7,40.1l11.9-16.5c0.3,0.2,0.5,0.4,0.7,0.6c0.5,0.4,0.8,0.7,0.9,0.9c0.1,0.2,0,0.4,0,0.6L46.1,40L56.5,54.3z"/>
	</g>
	<g>
		<circle class="st1" cx="12.4" cy="39.8" r="3.9"/>
		<ellipse class="st6" cx="11.4" cy="39.8" rx="2.8" ry="2.4"/>
	</g>
	<g>
		<circle class="st1" cx="67.8" cy="39.8" r="3.9"/>
		<ellipse class="st6" cx="68.9" cy="39.8" rx="2.8" ry="2.4"/>
	</g>
	<g>
		<circle class="st1" cx="40.1" cy="67.5" r="3.9"/>
		<ellipse class="st6" cx="40.1" cy="68.6" rx="2.4" ry="2.8"/>
	</g>
	<g>
		<circle class="st1" cx="40.1" cy="12.1" r="3.9"/>
		<ellipse class="st6" cx="40.1" cy="11" rx="2.4" ry="2.8"/>
	</g>
</g>
<g>
</g>
<g>
</g>
<g>
</g>
<g>
</g>
<g>
</g>
</svg>
