<?xml version="1.0" encoding="utf-8"?>
<!-- Generator: Adobe Illustrator 25.4.1, SVG Export Plug-In . SVG Version: 6.00 Build 0)  -->
<svg version="1.1" xmlns="http://www.w3.org/2000/svg" xmlns:xlink="http://www.w3.org/1999/xlink" x="0px" y="0px"
	 viewBox="0 0 80 80" style="enable-background:new 0 0 80 80;" xml:space="preserve">
<style type="text/css">
	.st0{fill:url(#SVGID_1_);}
	
		.st1{fill:url(#SVGID_00000133495438486637180390000014484841970121710493_);stroke:#110015;stroke-width:0.25;stroke-miterlimit:10;}
	
		.st2{fill:url(#SVGID_00000134245065905149558180000000357004179913780159_);stroke:#110015;stroke-width:0.25;stroke-miterlimit:10;}
	
		.st3{fill:url(#SVGID_00000043416016463386741330000014327577004041831340_);stroke:#110015;stroke-width:0.25;stroke-miterlimit:10;}
	.st4{fill:#534053;}
	
		.st5{fill:url(#SVGID_00000158019966068387048210000002262421663444301491_);stroke:#110015;stroke-width:0.25;stroke-miterlimit:10;}
	
		.st6{fill:url(#SVGID_00000018207805066903253600000016194191923013020823_);stroke:#110015;stroke-width:0.25;stroke-miterlimit:10;}
	
		.st7{fill:url(#SVGID_00000034067788538673426240000009596517124723030408_);stroke:#110015;stroke-width:0.25;stroke-miterlimit:10;}
	
		.st8{fill:url(#SVGID_00000000202689356517246720000013246197460792867719_);stroke:#110015;stroke-width:0.25;stroke-miterlimit:10;}
	
		.st9{fill:url(#SVGID_00000023266543749903501470000005235656329502474156_);stroke:#110015;stroke-width:0.25;stroke-miterlimit:10;}
	
		.st10{fill:url(#SVGID_00000070087969988144748000000006774803678193345947_);stroke:#110015;stroke-width:0.25;stroke-miterlimit:10;}
	
		.st11{fill:url(#SVGID_00000088095012902570449310000011359699565918011288_);stroke:#110015;stroke-width:0.25;stroke-miterlimit:10;}
	
		.st12{fill:url(#SVGID_00000152240041716512108720000017735683899040920720_);stroke:#110015;stroke-width:0.25;stroke-miterlimit:10;}
	
		.st13{fill:url(#SVGID_00000169517594916288550350000012187323321972112570_);stroke:#110015;stroke-width:0.25;stroke-miterlimit:10;}
	.st14{opacity:0.62;}
	.st15{fill:none;stroke:#FFFFFF;stroke-width:0.25;stroke-linecap:square;stroke-linejoin:bevel;stroke-miterlimit:10;}
	
		.st16{fill:url(#SVGID_00000070087694463120539740000004562091612624674482_);stroke:#110015;stroke-width:0.25;stroke-miterlimit:10;}
	
		.st17{fill:url(#SVGID_00000155146227428039932490000014780007499033044629_);stroke:#110015;stroke-width:0.25;stroke-miterlimit:10;}
	
		.st18{fill:url(#SVGID_00000129919427925162812080000011647309245526314682_);stroke:#110015;stroke-width:0.25;stroke-miterlimit:10;}
	.st19{fill:#1C001F;}
	.st20{fill:none;stroke:#1C001F;stroke-width:0.5;stroke-miterlimit:10;}
	
		.st21{fill:url(#SVGID_00000116934817669206057360000009556885350495370645_);stroke:#110015;stroke-width:0.25;stroke-miterlimit:10;}
	
		.st22{fill:url(#SVGID_00000098924982084090434490000009640536121130390933_);stroke:#110015;stroke-width:0.25;stroke-miterlimit:10;}
	
		.st23{fill:url(#SVGID_00000113332025376794413580000000469008171588821893_);stroke:#110015;stroke-width:0.25;stroke-miterlimit:10;}
	
		.st24{fill:url(#SVGID_00000081613709653897205140000006373153215554312363_);stroke:#110015;stroke-width:0.25;stroke-miterlimit:10;}
	
		.st25{fill:url(#SVGID_00000076567366122897161060000012898843915689331346_);stroke:#110015;stroke-width:0.25;stroke-miterlimit:10;}
	
		.st26{fill:url(#SVGID_00000144309658984582421970000002239374842422170756_);stroke:#110015;stroke-width:0.25;stroke-miterlimit:10;}
	
		.st27{fill:url(#SVGID_00000173145843831364775960000006138750191243569027_);stroke:#110015;stroke-width:0.25;stroke-miterlimit:10;}
	
		.st28{fill:url(#SVGID_00000005229121439599407950000016879338727386897536_);stroke:#110015;stroke-width:0.25;stroke-miterlimit:10;}
	
		.st29{fill:url(#SVGID_00000119092933873360510680000017473175968491218346_);stroke:#110015;stroke-width:0.25;stroke-miterlimit:10;}
	
		.st30{fill:url(#SVGID_00000135663982141705017190000007198339538184577419_);stroke:#110015;stroke-width:0.1;stroke-miterlimit:10;}
	
		.st31{fill:url(#SVGID_00000080917983277136399410000005847238348060601514_);stroke:#110015;stroke-width:0.25;stroke-miterlimit:10;}
	
		.st32{fill:url(#SVGID_00000026155434364594078040000005537363101143109052_);stroke:#110015;stroke-width:0.25;stroke-miterlimit:10;}
	
		.st33{fill:url(#SVGID_00000144303361614397063770000013379249307210041734_);stroke:#110015;stroke-width:0.25;stroke-miterlimit:10;}
	
		.st34{fill:url(#SVGID_00000093136653208502363330000007936119959618085039_);stroke:#110015;stroke-width:0.25;stroke-miterlimit:10;}
	
		.st35{fill:url(#SVGID_00000152255343653261789560000014914750913029140884_);stroke:#110015;stroke-width:0.25;stroke-miterlimit:10;}
	
		.st36{fill:url(#SVGID_00000083049452493010941400000014798040164068707771_);stroke:#110015;stroke-width:0.25;stroke-miterlimit:10;}
	
		.st37{fill:url(#SVGID_00000175317873704960610790000018328319226047869829_);stroke:#110015;stroke-width:0.25;stroke-miterlimit:10;}
	
		.st38{fill:url(#SVGID_00000075120254983807488760000016869077879149315752_);stroke:#110015;stroke-width:0.25;stroke-miterlimit:10;}
	.st39{fill:#8B6100;stroke:#110015;stroke-width:0.25;stroke-miterlimit:10;}
	.st40{fill:url(#SVGID_00000085228736967029271250000005139688638631721660_);}
	.st41{fill:#FFFFFF;}
</style>
<g id="Слой_2">
</g>
<g id="Слой_1">
	<linearGradient id="SVGID_1_" gradientUnits="userSpaceOnUse" x1="40" y1="3" x2="40" y2="77.5223">
		<stop  offset="0" style="stop-color:#3358A2"/>
		<stop  offset="0.2625" style="stop-color:#466CB0"/>
		<stop  offset="0.4832" style="stop-color:#5980BE"/>
		<stop  offset="0.5157" style="stop-color:#5679B4"/>
		<stop  offset="0.6629" style="stop-color:#485D8C"/>
		<stop  offset="0.7977" style="stop-color:#3E4870"/>
		<stop  offset="0.9145" style="stop-color:#383B5E"/>
		<stop  offset="1" style="stop-color:#363758"/>
	</linearGradient>
	<path class="st0" d="M67.2,77.5H12.8C6.8,77.5,2,72.7,2,66.7V13.8C2,7.9,6.8,3,12.8,3h54.3C73.2,3,78,7.9,78,13.8v52.9
		C78,72.7,73.2,77.5,67.2,77.5z"/>
	<g>
		
			<linearGradient id="SVGID_00000093896879873106863080000017760590368330323129_" gradientUnits="userSpaceOnUse" x1="71.6113" y1="33.6021" x2="70.0241" y2="42.6034" gradientTransform="matrix(0.9967 8.163217e-02 -8.163217e-02 0.9967 3.0538 -3.086)">
			<stop  offset="0" style="stop-color:#524041"/>
			<stop  offset="0.7804" style="stop-color:#372E33"/>
			<stop  offset="1" style="stop-color:#2F282E"/>
		</linearGradient>
		
			<path style="fill:url(#SVGID_00000093896879873106863080000017760590368330323129_);stroke:#110015;stroke-width:0.25;stroke-miterlimit:10;" d="
			M75,41.3L66.7,35l-0.3,7.3l7.8,4.1C74.6,45,74.8,43.5,75,41.3z"/>
		
			<linearGradient id="SVGID_00000096763069071622130940000011893365270720451768_" gradientUnits="userSpaceOnUse" x1="53.262" y1="31.5821" x2="64.297" y2="42.6171" gradientTransform="matrix(0.9967 8.163217e-02 -8.163217e-02 0.9967 3.0538 -3.086)">
			<stop  offset="0" style="stop-color:#524041"/>
			<stop  offset="0.7804" style="stop-color:#372E33"/>
			<stop  offset="1" style="stop-color:#2F282E"/>
		</linearGradient>
		
			<polygon style="fill:url(#SVGID_00000096763069071622130940000011893365270720451768_);stroke:#110015;stroke-width:0.25;stroke-miterlimit:10;" points="
			66.7,35 50.5,35.3 50.8,42.9 66.5,42.2 		"/>
		
			<linearGradient id="SVGID_00000038381431058849790230000014356283873578046612_" gradientUnits="userSpaceOnUse" x1="39.4897" y1="29.6473" x2="51.5565" y2="41.7142" gradientTransform="matrix(0.9967 8.163217e-02 -8.163217e-02 0.9967 3.0538 -3.086)">
			<stop  offset="0" style="stop-color:#524041"/>
			<stop  offset="0.7804" style="stop-color:#372E33"/>
			<stop  offset="1" style="stop-color:#2F282E"/>
		</linearGradient>
		
			<path style="fill:url(#SVGID_00000038381431058849790230000014356283873578046612_);stroke:#110015;stroke-width:0.25;stroke-miterlimit:10;" d="
			M39.6,30c3.9,1,7.6,2.1,11.1,3.3l0.1,9.5c-4.9-2-8.7-3.7-11.3-4.7L39.6,30z"/>
		<polygon class="st4" points="49.9,29.5 56.7,32.5 56.4,36.4 52.9,39 49.3,36.1 		"/>
		
			<linearGradient id="SVGID_00000026851618238376670460000017994992535158801063_" gradientUnits="userSpaceOnUse" x1="26.4483" y1="30.0199" x2="26.4483" y2="41.8862" gradientTransform="matrix(0.9967 8.163217e-02 -8.163217e-02 0.9967 3.0538 -3.086)">
			<stop  offset="0" style="stop-color:#524041"/>
			<stop  offset="0.7804" style="stop-color:#372E33"/>
			<stop  offset="1" style="stop-color:#2F282E"/>
		</linearGradient>
		
			<path style="fill:url(#SVGID_00000026851618238376670460000017994992535158801063_);stroke:#110015;stroke-width:0.25;stroke-miterlimit:10;" d="
			M13.3,32.9c5.4-2.2,14.9-2.8,26.3-2.9l0,8.1c-9.5-0.5-18.4,0.1-26.8,1.6L13.3,32.9z"/>
		
			<linearGradient id="SVGID_00000173859472128375273790000006791410786575270791_" gradientUnits="userSpaceOnUse" x1="17.6432" y1="63.1879" x2="47.742" y2="63.1879" gradientTransform="matrix(0.9967 8.163217e-02 -8.163217e-02 0.9967 3.0538 -3.086)">
			<stop  offset="0" style="stop-color:#000000"/>
			<stop  offset="0.5019" style="stop-color:#1E1A1F"/>
			<stop  offset="1" style="stop-color:#37303A"/>
		</linearGradient>
		
			<path style="fill:url(#SVGID_00000173859472128375273790000006791410786575270791_);stroke:#110015;stroke-width:0.25;stroke-miterlimit:10;" d="
			M46.1,56L40,54.8l-1.6-0.1L29,54.9l-2.2,0L19,56.2c0,0-3.4,2-3.2,1.8c0.1-0.2-0.9,10.8-0.9,10.8l1,1.2l5.3-0.5l7,0.1
			c0,0,14-0.7,14.2-0.8C42.5,68.7,46.1,56,46.1,56z"/>
		
			<linearGradient id="SVGID_00000157270291547533184740000016745193509852213175_" gradientUnits="userSpaceOnUse" x1="69.0342" y1="42.701" x2="64.9293" y2="65.9814" gradientTransform="matrix(0.9967 8.163217e-02 -8.163217e-02 0.9967 3.0538 -3.086)">
			<stop  offset="0" style="stop-color:#524041"/>
			<stop  offset="0.7804" style="stop-color:#372E33"/>
			<stop  offset="1" style="stop-color:#2F282E"/>
		</linearGradient>
		
			<polygon style="fill:url(#SVGID_00000157270291547533184740000016745193509852213175_);stroke:#110015;stroke-width:0.25;stroke-miterlimit:10;" points="
			62.2,45.7 68,45 68.5,67.8 62.2,67.9 		"/>
		
			<linearGradient id="SVGID_00000031171022893957882070000009712915370721941135_" gradientUnits="userSpaceOnUse" x1="53.0183" y1="33.6529" x2="53.0183" y2="23.9706" gradientTransform="matrix(0.9967 8.163217e-02 -8.163217e-02 0.9967 3.0538 -3.086)">
			<stop  offset="5.327789e-09" style="stop-color:#181218"/>
			<stop  offset="0.2375" style="stop-color:#1C151B"/>
			<stop  offset="0.4653" style="stop-color:#272023"/>
			<stop  offset="0.6894" style="stop-color:#3B3130"/>
			<stop  offset="0.9097" style="stop-color:#564943"/>
			<stop  offset="1" style="stop-color:#63554C"/>
		</linearGradient>
		
			<path style="fill:url(#SVGID_00000031171022893957882070000009712915370721941135_);stroke:#110015;stroke-width:0.25;stroke-miterlimit:10;" d="
			M59.6,35.2l-0.1-8l-2.3-1.7l-1.6,0.9c0,0,0,2.1,0.2,2.2c0.1,0.1,0.8,0.6,1.4,0.7s1.1-1,1.1-1l-1-0.9c0,0-0.6,0.1-0.3,0.3
			c0.3,0.1,0.5,0.3,0.5,0.3l0.2,0.4l-1.4,0l-0.1-1.4c0,0,0.6-0.5,1.2-0.4c0.6,0.1,1.7,1.1,1.7,1.2s-0.5,2.1-0.5,2.1
			s-1.5,0.5-1.7,0.5s-8.2-3.7-8.2-3.7l0.1-0.7l0.6,0.1c0,0-0.5-1.1-0.5-1.1s-1.2,0.6-1.2,0.7c0,0.1-0.3,1.2-0.1,1.4
			c0.2,0.3,2.2,1,2.2,1s0.2,0.6,0.1,0.7s-0.2,0.6-0.2,0.6l0.9,0.1c0,0-0.1-0.7-0.1-0.8s3,1.2,3,1.2l-0.1,0.7l0.8,0.3l0.3-0.6
			l1.9,0.9l2.2-0.3l-0.1,4.4L59.6,35.2z"/>
		
			<linearGradient id="SVGID_00000042726860260758131020000006062318824498245774_" gradientUnits="userSpaceOnUse" x1="72.7137" y1="43.3498" x2="68.9133" y2="64.9033" gradientTransform="matrix(0.9967 8.163217e-02 -8.163217e-02 0.9967 3.0538 -3.086)">
			<stop  offset="0" style="stop-color:#524041"/>
			<stop  offset="0.7804" style="stop-color:#372E33"/>
			<stop  offset="1" style="stop-color:#2F282E"/>
		</linearGradient>
		
			<polygon style="fill:url(#SVGID_00000042726860260758131020000006062318824498245774_);stroke:#110015;stroke-width:0.25;stroke-miterlimit:10;" points="
			70.8,67 68.5,67.8 68,45 71.4,46.8 		"/>
		
			<radialGradient id="SVGID_00000085217853821707046750000017843639874108491408_" cx="28.9675" cy="49.9738" r="9.2066" gradientTransform="matrix(0.9967 8.163217e-02 -8.163217e-02 0.9967 3.0538 -3.086)" gradientUnits="userSpaceOnUse">
			<stop  offset="0" style="stop-color:#995F14"/>
			<stop  offset="0.5623" style="stop-color:#894C18"/>
			<stop  offset="1" style="stop-color:#81431A"/>
		</radialGradient>
		
			<polygon style="fill:url(#SVGID_00000085217853821707046750000017843639874108491408_);stroke:#110015;stroke-width:0.25;stroke-miterlimit:10;" points="
			19.6,41.4 36.8,40.2 36,57.9 19.1,58 		"/>
		
			<radialGradient id="SVGID_00000052807600269242665600000016099989949613566394_" cx="37.7993" cy="50.6879" r="9.2066" gradientTransform="matrix(0.1616 6.344727e-03 -3.922940e-02 0.9992 13.5011 -2.0439)" gradientUnits="userSpaceOnUse">
			<stop  offset="0" style="stop-color:#995F14"/>
			<stop  offset="0.5623" style="stop-color:#894C18"/>
			<stop  offset="1" style="stop-color:#81431A"/>
		</radialGradient>
		
			<polygon style="fill:url(#SVGID_00000052807600269242665600000016099989949613566394_);stroke:#110015;stroke-width:0.25;stroke-miterlimit:10;" points="
			16.5,41.9 19.3,39.3 18.7,57 16,58.4 		"/>
		
			<linearGradient id="SVGID_00000098920869216127925360000004447187509931884476_" gradientUnits="userSpaceOnUse" x1="9.7667" y1="43.6059" x2="75.0597" y2="43.6059" gradientTransform="matrix(0.9967 8.163217e-02 -8.163217e-02 0.9967 3.0538 -3.086)">
			<stop  offset="0" style="stop-color:#312A2F"/>
			<stop  offset="1" style="stop-color:#2F282E"/>
		</linearGradient>
		
			<path style="fill:url(#SVGID_00000098920869216127925360000004447187509931884476_);stroke:#110015;stroke-width:0.25;stroke-miterlimit:10;" d="
			M74.3,46.4l-2.9,0.3L68,45l-5.8,0.6L53,46.2l-2.3-1.5l-6.5,0.4l-7.4-4.1l-17,1.1l-3.4,1.9l-0.2,2.7l-4,0.1l-2.6-4l-0.4-1.3l3.6-2
			c8.3-1.4,17.3-1.9,26.8-1.6l11,4.6l15.9-0.5L74.3,46.4z"/>
		
			<linearGradient id="SVGID_00000138548706819405159150000010660650106602926226_" gradientUnits="userSpaceOnUse" x1="9.6521" y1="39.5741" x2="13.1489" y2="39.5741" gradientTransform="matrix(0.9967 8.163217e-02 -8.163217e-02 0.9967 3.0538 -3.086)">
			<stop  offset="0" style="stop-color:#312A2F"/>
			<stop  offset="1" style="stop-color:#2F282E"/>
		</linearGradient>
		
			<polygon style="fill:url(#SVGID_00000138548706819405159150000010660650106602926226_);stroke:#110015;stroke-width:0.25;stroke-miterlimit:10;" points="
			13.3,32.9 9.5,36.2 9.2,41.7 12.7,39.7 		"/>
		<g class="st14">
			<line class="st15" x1="31.1" y1="34.8" x2="31" y2="32.5"/>
			<line class="st15" x1="29.7" y1="33.9" x2="31" y2="33.8"/>
			<g>
				<line class="st15" x1="14.2" y1="34.9" x2="14.4" y2="37.8"/>
				<line class="st15" x1="15.1" y1="34.3" x2="14.2" y2="34.9"/>
				<line class="st15" x1="14.3" y1="36.3" x2="15.1" y2="36"/>
				<line class="st15" x1="16.2" y1="34.4" x2="16.3" y2="37"/>
				<line class="st15" x1="17.5" y1="36.6" x2="16.3" y2="37"/>
				<line class="st15" x1="17.9" y1="36.6" x2="18.6" y2="33.9"/>
				<line class="st15" x1="19.8" y1="36.4" x2="18.6" y2="33.9"/>
				<line class="st15" x1="18.2" y1="35.6" x2="19.3" y2="35.5"/>
				<line class="st15" x1="19.7" y1="33.5" x2="20.7" y2="36"/>
				<line class="st15" x1="21.4" y1="33.2" x2="20.7" y2="36"/>
				<line class="st15" x1="23.4" y1="32.5" x2="22.5" y2="32.9"/>
				<line class="st15" x1="22.4" y1="35.7" x2="23.4" y2="35.4"/>
				<line class="st15" x1="22.6" y1="32.8" x2="22.4" y2="35.7"/>
				<line class="st15" x1="23.3" y1="33.9" x2="22.5" y2="34.3"/>
				<line class="st15" x1="24.6" y1="32.6" x2="24.7" y2="35.4"/>
				<line class="st15" x1="29.7" y1="32.4" x2="29.7" y2="35"/>
				<line class="st15" x1="32.1" y1="34.9" x2="32.8" y2="31.8"/>
				<line class="st15" x1="33.5" y1="34.7" x2="32.8" y2="31.8"/>
				<line class="st15" x1="32.4" y1="33.7" x2="33.2" y2="33.7"/>
				<line class="st15" x1="34.5" y1="34.8" x2="34.4" y2="32.1"/>
				<line class="st15" x1="35.4" y1="33.9" x2="34.4" y2="32.1"/>
				<line class="st15" x1="36.4" y1="32.1" x2="35.4" y2="33.9"/>
				<line class="st15" x1="36.3" y1="35" x2="36.4" y2="32.1"/>
				<line class="st15" x1="37.1" y1="31.5" x2="37.2" y2="32.2"/>
				<path class="st15" d="M28.5,32.6c-0.3-0.3-0.6-0.3-0.7-0.2c-0.5,0.3-0.4,1,0.4,1.3c0.4,0.2,0.5,0.6,0.5,0.9
					c0,0.2-0.1,0.4-0.2,0.5c-0.1,0.2-0.4,0.1-0.7,0c-0.2-0.1-0.4-0.2-0.6-0.4"/>
				<path class="st15" d="M38.8,33.2c-0.3-0.3-0.5-0.4-0.7-0.4c-0.6,0.2-0.5,0.8,0.1,1.4c0.4,0.3,0.4,0.7,0.3,1
					c0,0.2-0.1,0.3-0.3,0.4c-0.2,0.1-0.4,0.1-0.7-0.1c-0.2-0.1-0.3-0.3-0.6-0.5"/>
				<path class="st15" d="M26.2,35.4c0-0.8-0.3-1.4-0.8-1.8l-0.7,0l-0.1-1c0.2-0.3,0.7-0.4,1.2-0.4c0.5,0.6,0.5,1-0.3,1.4
					C25.8,33.9,26.3,34.7,26.2,35.4z"/>
			</g>
		</g>
		
			<linearGradient id="SVGID_00000041297576117688451280000012161059462574681737_" gradientUnits="userSpaceOnUse" x1="50.1201" y1="28.6437" x2="46.1935" y2="35.4447" gradientTransform="matrix(0.9967 8.163217e-02 -8.163217e-02 0.9967 3.0538 -3.086)">
			<stop  offset="0" style="stop-color:#585F7B"/>
			<stop  offset="0.1499" style="stop-color:#52566F"/>
			<stop  offset="1" style="stop-color:#2F282E"/>
		</linearGradient>
		
			<polygon style="fill:url(#SVGID_00000041297576117688451280000012161059462574681737_);stroke:#110015;stroke-width:0.25;stroke-miterlimit:10;" points="
			47.8,29 47.3,36.8 49.3,36.2 49.8,28.9 		"/>
		
			<linearGradient id="SVGID_00000133511149427440334210000017476176885440963231_" gradientUnits="userSpaceOnUse" x1="50.8564" y1="36.2663" x2="49.9202" y2="37.8879" gradientTransform="matrix(0.9967 8.163217e-02 -8.163217e-02 0.9967 3.0538 -3.086)">
			<stop  offset="0" style="stop-color:#585F7B"/>
			<stop  offset="0.1499" style="stop-color:#52566F"/>
			<stop  offset="1" style="stop-color:#2F282E"/>
		</linearGradient>
		
			<polygon style="fill:url(#SVGID_00000133511149427440334210000017476176885440963231_);stroke:#110015;stroke-width:0.25;stroke-miterlimit:10;" points="
			53.1,39.2 49.3,36.2 47.3,36.8 51.1,39.7 		"/>
		
			<linearGradient id="SVGID_00000063616133279292464980000017750163313551848882_" gradientUnits="userSpaceOnUse" x1="54.3274" y1="29.3289" x2="50.287" y2="36.3272" gradientTransform="matrix(0.9967 8.163217e-02 -8.163217e-02 0.9967 3.0538 -3.086)">
			<stop  offset="0" style="stop-color:#585F7B"/>
			<stop  offset="0.1499" style="stop-color:#52566F"/>
			<stop  offset="1" style="stop-color:#2F282E"/>
		</linearGradient>
		
			<polygon style="fill:url(#SVGID_00000063616133279292464980000017750163313551848882_);stroke:#110015;stroke-width:0.25;stroke-miterlimit:10;" points="
			49.9,29.5 56.7,32.5 56.4,36.4 52.9,39 53.1,39.2 56.7,36.5 57.1,32.1 49.9,28.9 		"/>
		<polygon class="st19" points="50.3,31.3 52.1,32.3 51.9,32.8 51.4,32.6 51.5,35.2 50.9,35.1 50.9,32.5 50.2,32 		"/>
		<polygon class="st19" points="53.5,33.1 53.9,34.9 53.3,36.6 53.8,36.7 55.1,33.6 54.7,33.4 54.3,34.3 53.9,33 		"/>
		<path class="st20" d="M56,34.5c-0.1-0.2-0.3-0.3-0.4-0.3c-0.1-0.1-0.3-0.1-0.3,0c-0.2,0.3-0.1,1,0.5,1.5c0.2,0.2-0.1,0.5-0.3,0.6
			c-0.1,0.1-0.2,0.1-0.3,0.2c-0.1,0-0.3,0-0.4-0.1c-0.1-0.1-0.1-0.2-0.2-0.4"/>
		
			<ellipse transform="matrix(8.163217e-02 -0.9967 0.9967 8.163217e-02 14.3647 83.8618)" class="st20" cx="52.7" cy="34.1" rx="1.2" ry="0.5"/>
		<g>
			
				<linearGradient id="SVGID_00000147182321002808375990000000986340387784858279_" gradientUnits="userSpaceOnUse" x1="43.6361" y1="58.3296" x2="43.2704" y2="60.4032" gradientTransform="matrix(0.9967 8.163217e-02 -8.163217e-02 0.9967 3.0538 -3.086)">
				<stop  offset="0" style="stop-color:#5F5657"/>
				<stop  offset="0.6917" style="stop-color:#443D44"/>
				<stop  offset="1" style="stop-color:#37303A"/>
			</linearGradient>
			
				<polygon style="fill:url(#SVGID_00000147182321002808375990000000986340387784858279_);stroke:#110015;stroke-width:0.25;stroke-miterlimit:10;" points="
				37.5,57.9 38.8,60 45.6,61.2 43.5,59.1 			"/>
			
				<linearGradient id="SVGID_00000049914508661058011800000012454947009418312126_" gradientUnits="userSpaceOnUse" x1="45.2253" y1="60.1464" x2="43.4932" y2="69.9696" gradientTransform="matrix(0.9967 8.163217e-02 -8.163217e-02 0.9967 3.0538 -3.086)">
				<stop  offset="0" style="stop-color:#5F5657"/>
				<stop  offset="0.6917" style="stop-color:#443D44"/>
				<stop  offset="1" style="stop-color:#37303A"/>
			</linearGradient>
			
				<polygon style="fill:url(#SVGID_00000049914508661058011800000012454947009418312126_);stroke:#110015;stroke-width:0.25;stroke-miterlimit:10;" points="
				38.4,69.6 38.8,60 45.6,61.2 45.6,68.9 			"/>
			
				<linearGradient id="SVGID_00000018939140154459989950000001303961402481441163_" gradientUnits="userSpaceOnUse" x1="35.1173" y1="57.4276" x2="32.525" y2="72.1296" gradientTransform="matrix(0.9967 8.163217e-02 -8.163217e-02 0.9967 3.0538 -3.086)">
				<stop  offset="0" style="stop-color:#5F5657"/>
				<stop  offset="0.6917" style="stop-color:#443D44"/>
				<stop  offset="1" style="stop-color:#37303A"/>
			</linearGradient>
			
				<path style="fill:url(#SVGID_00000018939140154459989950000001303961402481441163_);stroke:#110015;stroke-width:0.25;stroke-miterlimit:10;" d="
				M36.6,57.9l0.9,2c0.4,2.8,0.3,7-0.1,9.9l-13.1,0.3l0.9-10.6l2.1-1.6L36.6,57.9z"/>
			
				<linearGradient id="SVGID_00000078033541764462329030000003126134892650517127_" gradientUnits="userSpaceOnUse" x1="24.4757" y1="58.2946" x2="23.766" y2="62.3193" gradientTransform="matrix(0.9967 8.163217e-02 -8.163217e-02 0.9967 3.0538 -3.086)">
				<stop  offset="0" style="stop-color:#5F5657"/>
				<stop  offset="0.6917" style="stop-color:#443D44"/>
				<stop  offset="1" style="stop-color:#37303A"/>
			</linearGradient>
			
				<polygon style="fill:url(#SVGID_00000078033541764462329030000003126134892650517127_);stroke:#110015;stroke-width:0.25;stroke-miterlimit:10;" points="
				18.1,60 24.6,59.7 26.2,57.9 19.4,58.1 			"/>
			
				<linearGradient id="SVGID_00000047036062002421169920000004008905963103497130_" gradientUnits="userSpaceOnUse" x1="24.3885" y1="60.4494" x2="22.3195" y2="72.1831" gradientTransform="matrix(0.9967 8.163217e-02 -8.163217e-02 0.9967 3.0538 -3.086)">
				<stop  offset="0" style="stop-color:#5F5657"/>
				<stop  offset="0.6917" style="stop-color:#443D44"/>
				<stop  offset="1" style="stop-color:#37303A"/>
			</linearGradient>
			
				<path style="fill:url(#SVGID_00000047036062002421169920000004008905963103497130_);stroke:#110015;stroke-width:0.25;stroke-miterlimit:10;" d="
				M23.8,70l0.8-10.3L18,60.1c-1,2.4-0.7,6.4-0.4,10.1L23.8,70z"/>
			
				<linearGradient id="SVGID_00000155837482379907495970000003150154481248203412_" gradientUnits="userSpaceOnUse" x1="18.6391" y1="59.4269" x2="18.1032" y2="62.4665" gradientTransform="matrix(0.9967 8.163217e-02 -8.163217e-02 0.9967 3.0538 -3.086)">
				<stop  offset="0" style="stop-color:#5F5657"/>
				<stop  offset="0.6917" style="stop-color:#443D44"/>
				<stop  offset="1" style="stop-color:#37303A"/>
			</linearGradient>
			
				<polygon style="fill:url(#SVGID_00000155837482379907495970000003150154481248203412_);stroke:#110015;stroke-width:0.25;stroke-miterlimit:10;" points="
				18.7,58.2 15.7,58.3 14.1,60.1 17.2,60 			"/>
			
				<linearGradient id="SVGID_00000016786004111589174910000000583077776844542374_" gradientUnits="userSpaceOnUse" x1="18.8626" y1="61.7395" x2="17.005" y2="72.2744" gradientTransform="matrix(0.9967 8.163217e-02 -8.163217e-02 0.9967 3.0538 -3.086)">
				<stop  offset="0" style="stop-color:#5F5657"/>
				<stop  offset="0.6917" style="stop-color:#443D44"/>
				<stop  offset="1" style="stop-color:#37303A"/>
			</linearGradient>
			
				<path style="fill:url(#SVGID_00000016786004111589174910000000583077776844542374_);stroke:#110015;stroke-width:0.25;stroke-miterlimit:10;" d="
				M17,70.2c-0.1-3.4-0.5-7.5,0.2-10.1L14,60.3c-0.9,1.9-0.1,6.6-0.2,10L17,70.2L17,70.2z"/>
			
				<linearGradient id="SVGID_00000166672609461268365920000016525925815111114420_" gradientUnits="userSpaceOnUse" x1="33.8656" y1="57.2069" x2="33.0901" y2="61.6051" gradientTransform="matrix(0.9967 8.163217e-02 -8.163217e-02 0.9967 3.0538 -3.086)">
				<stop  offset="0" style="stop-color:#5F5657"/>
				<stop  offset="0.6917" style="stop-color:#443D44"/>
				<stop  offset="1" style="stop-color:#37303A"/>
			</linearGradient>
			
				<polygon style="fill:url(#SVGID_00000166672609461268365920000016525925815111114420_);stroke:#110015;stroke-width:0.25;stroke-miterlimit:10;" points="
				25.3,59.5 37.5,59.7 36.6,57.9 27.4,57.9 			"/>
		</g>
		
			<linearGradient id="SVGID_00000137103624052028131010000000217316868212654465_" gradientUnits="userSpaceOnUse" x1="20.1826" y1="50.4025" x2="37.6126" y2="50.4025" gradientTransform="matrix(0.9967 8.163217e-02 -8.163217e-02 0.9967 3.0538 -3.086)">
			<stop  offset="0" style="stop-color:#3C322D"/>
			<stop  offset="0.4774" style="stop-color:#3F332D"/>
			<stop  offset="0.8129" style="stop-color:#48382C"/>
			<stop  offset="1" style="stop-color:#513C2C"/>
		</linearGradient>
		
			<path style="fill:url(#SVGID_00000137103624052028131010000000217316868212654465_);stroke:#110015;stroke-width:0.25;stroke-miterlimit:10;" d="
			M36.6,41l-17,1.1L18.9,58l16.9-0.1L36.6,41z M34.1,52.8l-1.3-1.7l1.5-2.2l1,0.9l0.1,1.4L34.1,52.8z M35.3,52.3l-0.2,2.4l-0.7-1
			L35.3,52.3z M30.2,49.1l1.2,1.9l-1.2,1.8l-1.4-1.9L30.2,49.1z M30.2,47l-0.8-1.2l2.3-0.1L30.2,47z M30.8,47.9l1.5-1.9l1.4,1.7
			L32.2,50L30.8,47.9z M35.4,48.5l-0.7-0.8l0.9-1.3L35.4,48.5z M34.3,42.7c0.5,0,0.9,0.3,0.9,0.8c0,0.5-0.3,0.9-0.8,0.9
			c-0.5,0-0.9-0.3-0.9-0.8C33.4,43.1,33.8,42.7,34.3,42.7z M35.5,45.7l-1.1,1.3l-1.2-1.3L35.5,45.7z M31.9,42.8
			c0.5,0,0.9,0.3,0.9,0.8c0,0.5-0.3,0.9-0.8,0.9c-0.5,0-0.9-0.3-0.9-0.8C31.1,43.2,31.5,42.8,31.9,42.8z M27.6,49.7l-1.1-1.7
			l1.4-1.8C27.9,46.4,27.6,49.7,27.6,49.7z M27.3,50.9l-1.5,2l-1.3-2.1l1.4-1.9L27.3,50.9z M26.7,43c0.5,0,0.9,0.3,0.9,0.8
			c0,0.5-0.3,0.9-0.8,0.9c-0.5,0-0.9-0.3-0.9-0.8C25.9,43.5,26.2,43.1,26.7,43z M26.9,46.4L26,47.5l-0.7-1.1L26.9,46.4z M23.9,49.8
			L22.8,48l1.2-1.4l1.2,1.5L23.9,49.8z M23.1,50.8l-1.4,1.5l-0.8-1.6l1.2-1.7L23.1,50.8z M21.7,46.7l1.5-0.1l-0.8,1.2L21.7,46.7z
			 M24,43.2c0.5,0,0.9,0.3,0.9,0.8c0,0.5-0.3,0.9-0.8,0.9c-0.5,0-0.9-0.3-0.9-0.8C23.2,43.6,23.5,43.2,24,43.2z M21.3,43.3
			c0.5,0,0.9,0.3,0.9,0.8c0,0.5-0.3,0.9-0.8,0.9c-0.5,0-0.9-0.3-0.9-0.8C20.5,43.7,20.8,43.3,21.3,43.3z M20.4,47l1.3,1.4l-1.4,1.7
			L20.4,47z M20.2,52.1l1,1.5l-1.1,1.1L20.2,52.1z M20.1,57l1.6-2.5l1.5,2.5L20.1,57z M22.4,53.7l1.6-1.9l1.2,2.1l-1.5,1.6
			L22.4,53.7z M24.5,56.6l1.3-1.7l1,1.9L24.5,56.6z M26.2,54l1.3-1.7l-0.2,3.6L26.2,54z M28.6,43.8c0-0.5,0.3-0.9,0.8-0.9
			c0.5,0,0.9,0.3,0.9,0.8c0,0.5-0.3,0.9-0.8,0.9C29,44.6,28.6,44.3,28.6,43.8z M28.9,46.7l1,1.3l-1,0.9L28.9,46.7z M28.7,52.4
			l0.9,1.4l-1,1.3L28.7,52.4z M28.7,56.6l1.4-2l1.4,2L28.7,56.6z M30.8,54l1.2-2l1.4,1.8l-1.3,1.9L30.8,54z M32.7,56.5l1.3-2
			l1.3,2.1L32.7,56.5z"/>
		
			<linearGradient id="SVGID_00000174587377446865398880000017796020977290391981_" gradientUnits="userSpaceOnUse" x1="16.6953" y1="51.9987" x2="19.9084" y2="51.9987" gradientTransform="matrix(0.9991 4.306906e-02 -4.306906e-02 0.9991 1.4833 -2.5836)">
			<stop  offset="0" style="stop-color:#3C322D"/>
			<stop  offset="0.7571" style="stop-color:#3C322D"/>
			<stop  offset="0.8587" style="stop-color:#3C322D"/>
			<stop  offset="0.9844" style="stop-color:#3C322D;stop-opacity:0.1106"/>
			<stop  offset="1" style="stop-color:#3C322D;stop-opacity:0"/>
			<stop  offset="1" style="stop-color:#513C2C"/>
		</linearGradient>
		
			<path style="fill:url(#SVGID_00000174587377446865398880000017796020977290391981_);stroke:#110015;stroke-width:0.1;stroke-miterlimit:10;" d="
			M16.2,42.7l-0.6,15.6l3.2-0.2L19.5,42L16.2,42.7z M18.8,43.5c0.2,0,0.3,0.3,0.3,0.8c0,0.5-0.1,0.9-0.3,0.9c-0.2,0-0.3-0.3-0.3-0.8
			C18.5,43.9,18.6,43.5,18.8,43.5z M18.8,46.8l-0.3,1.1l-0.2-1L18.8,46.8z M18.8,51.2l-0.6,2l-0.4-2l0.5-1.9L18.8,51.2z M17.6,50.2
			l-0.4-1.8l0.5-1.4l0.4,1.4L17.6,50.2z M17.3,51.2l-0.5,1.4L16.5,51l0.5-1.7L17.3,51.2z M16.9,47.2l0.5-0.1l-0.3,1.2L16.9,47.2z
			 M17.8,43.7c0.2,0,0.3,0.3,0.3,0.8c0,0.5-0.1,0.9-0.3,0.9c-0.2,0-0.3-0.3-0.3-0.8C17.5,44.1,17.6,43.7,17.8,43.7z M16.8,43.9
			c0.2,0,0.3,0.3,0.3,0.8c0,0.5-0.1,0.9-0.3,0.9c-0.2,0-0.3-0.3-0.3-0.8C16.5,44.3,16.7,43.9,16.8,43.9z M16.4,47.5l0.4,1.3
			l-0.5,1.7L16.4,47.5z M16.2,52.5l0.3,1.5L16.1,55L16.2,52.5z M16.1,57.3l0.6-2.4l0.5,2.4L16.1,57.3z M17,54l0.6-1.9l0.4,2
			l-0.6,1.6L17,54z M17.7,56.8l0.5-1.7l0.3,1.9L17.7,56.8z M18.7,56.1l-0.3-1.8l0.5-1.7L18.7,56.1z M19,50l-0.3-1.7l0.5-1.8
			C19.1,46.8,19,50,19,50z"/>
		<g>
			
				<linearGradient id="SVGID_00000103231612284794841850000007387281340449831611_" gradientUnits="userSpaceOnUse" x1="50.9007" y1="43.6353" x2="46.7632" y2="67.0997" gradientTransform="matrix(0.9967 8.163217e-02 -8.163217e-02 0.9967 3.0538 -3.086)">
				<stop  offset="0" style="stop-color:#524041"/>
				<stop  offset="0.7804" style="stop-color:#372E33"/>
				<stop  offset="1" style="stop-color:#2F282E"/>
			</linearGradient>
			
				<polygon style="fill:url(#SVGID_00000103231612284794841850000007387281340449831611_);stroke:#110015;stroke-width:0.25;stroke-miterlimit:10;" points="
				44.2,45.1 50.7,44.7 49.8,68.4 45.5,68 45.4,61.5 43.1,59.1 			"/>
			
				<linearGradient id="SVGID_00000034771363288325043410000011975170187459352726_" gradientUnits="userSpaceOnUse" x1="54.7898" y1="44.321" x2="50.7747" y2="67.0918" gradientTransform="matrix(0.9967 8.163217e-02 -8.163217e-02 0.9967 3.0538 -3.086)">
				<stop  offset="0" style="stop-color:#524041"/>
				<stop  offset="0.7804" style="stop-color:#372E33"/>
				<stop  offset="1" style="stop-color:#2F282E"/>
			</linearGradient>
			
				<polygon style="fill:url(#SVGID_00000034771363288325043410000011975170187459352726_);stroke:#110015;stroke-width:0.25;stroke-miterlimit:10;" points="
				49.8,68.4 51.9,67.5 53,46.2 50.7,44.7 			"/>
		</g>
		
			<radialGradient id="SVGID_00000004535280923744427300000006834100267278710159_" cx="41.1425" cy="49.8656" r="6.7066" gradientTransform="matrix(0.9967 8.163217e-02 -8.163217e-02 0.9967 3.0538 -3.086)" gradientUnits="userSpaceOnUse">
			<stop  offset="0" style="stop-color:#995F14"/>
			<stop  offset="0.5623" style="stop-color:#894C18"/>
			<stop  offset="1" style="stop-color:#81431A"/>
		</radialGradient>
		
			<polygon style="fill:url(#SVGID_00000004535280923744427300000006834100267278710159_);stroke:#110015;stroke-width:0.25;stroke-miterlimit:10;" points="
			36.8,41.1 44.3,45.2 43.2,58.9 35.8,57.9 		"/>
		
			<linearGradient id="SVGID_00000117650909443932395500000005110174367730330268_" gradientUnits="userSpaceOnUse" x1="45.0826" y1="49.7674" x2="37.2026" y2="49.7674" gradientTransform="matrix(0.9967 8.163217e-02 -8.163217e-02 0.9967 3.0538 -3.086)">
			<stop  offset="0" style="stop-color:#312A2F"/>
			<stop  offset="6.804764e-02" style="stop-color:#3A2F2E"/>
			<stop  offset="0.2156" style="stop-color:#45362D"/>
			<stop  offset="0.4233" style="stop-color:#4C3A2C"/>
			<stop  offset="1" style="stop-color:#4E3B2C"/>
		</linearGradient>
		
			<path style="fill:url(#SVGID_00000117650909443932395500000005110174367730330268_);stroke:#110015;stroke-width:0.25;stroke-miterlimit:10;" d="
			M36.8,41L36,57.8l7.2,1l1.1-13.7L36.8,41z M43.5,45.4c0.2,0,0.3,0.4,0.3,1c0,0.5-0.2,0.9-0.4,0.9c-0.2,0-0.3-0.4-0.3-1
			C43.2,45.8,43.3,45.4,43.5,45.4z M42,49L41,47.4L43,48L42,49z M41.9,51.1l1,2.3l-1.2,1.5l-1-2.4L41.9,51.1z M42.4,44.9
			c0.2,0,0.3,0.4,0.3,1s-0.2,0.9-0.4,0.9s-0.3-0.4-0.3-1S42.2,44.9,42.4,44.9z M41.2,44.2c0.2,0,0.3,0.4,0.3,1
			c0,0.5-0.2,0.9-0.4,0.9s-0.3-0.4-0.3-1C40.8,44.6,41,44.2,41.2,44.2z M41.4,50.1l-1.1,1.3l-1-2.3l1-1.1L41.4,50.1z M40,43.7
			c0.2,0,0.3,0.4,0.3,1c0,0.5-0.2,0.9-0.4,0.9c-0.2,0-0.3-0.4-0.3-1C39.6,44.1,39.8,43.7,40,43.7z M38.5,42.8c0.2,0,0.4,0.5,0.3,1.2
			c-0.1,0.6-0.3,1.1-0.5,1.1c-0.2,0-0.4-0.5-0.3-1.2C38,43.2,38.2,42.8,38.5,42.8z M40,46.9l-1.2,1.3l-1.1-2.1L40,46.9z M37.4,47.3
			l1,1.8l-1.3,1.1L37.4,47.3z M37,51.4l1.6-1.4l1.2,2.4l-1.6,1.6L37,52.2L37,51.4z M36.8,53.6l1,1.2l-1.2,0.9L36.8,53.6z M37.2,56.8
			l1-1.1l0.8,1.6L37.2,56.8z M38.5,54.9l1.5-1.7l1.1,2.4l-1.3,1.7L38.5,54.9z M40.6,57.6c0,0,0.9-1.1,0.9-1.1c0,0,0.6,1.5,0.6,1.5
			L40.6,57.6z M43,58.2l-1-2.4l1.4-1.8L43,58.2z M42.3,50.2c0,0,1.3-1.7,1.5-1.7l-0.3,4.1L42.3,50.2z"/>
		<g>
			<g>
				
					<linearGradient id="SVGID_00000096032295692973307690000014445715945237448104_" gradientUnits="userSpaceOnUse" x1="53.7731" y1="54.8703" x2="64.6648" y2="54.8703" gradientTransform="matrix(0.9967 8.163217e-02 -8.163217e-02 0.9967 3.0538 -3.086)">
					<stop  offset="0" style="stop-color:#35413D"/>
					<stop  offset="1" style="stop-color:#2B2931"/>
				</linearGradient>
				
					<polygon style="fill:url(#SVGID_00000096032295692973307690000014445715945237448104_);stroke:#110015;stroke-width:0.25;stroke-miterlimit:10;" points="
					53,46.3 62.1,45.7 62.3,66.2 51.8,67.1 				"/>
				
					<linearGradient id="SVGID_00000054954599179984615350000003624117414500298884_" gradientUnits="userSpaceOnUse" x1="55.9706" y1="52.0184" x2="58.1489" y2="52.0184" gradientTransform="matrix(0.9967 8.163217e-02 -8.163217e-02 0.9967 3.0538 -3.086)">
					<stop  offset="0" style="stop-color:#35413D"/>
					<stop  offset="0.5991" style="stop-color:#343F3C"/>
					<stop  offset="0.8146" style="stop-color:#313839"/>
					<stop  offset="0.9679" style="stop-color:#2C2D33"/>
					<stop  offset="1" style="stop-color:#2B2931"/>
				</linearGradient>
				
					<polygon style="fill:url(#SVGID_00000054954599179984615350000003624117414500298884_);stroke:#110015;stroke-width:0.25;stroke-miterlimit:10;" points="
					54.8,50.2 56.5,50 56.5,57 54.7,56.9 				"/>
				
					<linearGradient id="SVGID_00000145747041472701079370000007757677231705147040_" gradientUnits="userSpaceOnUse" x1="59.754" y1="51.2275" x2="61.9323" y2="51.2275" gradientTransform="matrix(0.9967 8.163217e-02 -8.163217e-02 0.9967 3.0538 -3.086)">
					<stop  offset="0" style="stop-color:#35413D"/>
					<stop  offset="0.5991" style="stop-color:#343F3C"/>
					<stop  offset="0.8146" style="stop-color:#313839"/>
					<stop  offset="0.9679" style="stop-color:#2C2D33"/>
					<stop  offset="1" style="stop-color:#2B2931"/>
				</linearGradient>
				
					<polygon style="fill:url(#SVGID_00000145747041472701079370000007757677231705147040_);stroke:#110015;stroke-width:0.25;stroke-miterlimit:10;" points="
					58.7,49.7 60.3,49.5 60.3,56.5 58.6,56.4 				"/>
				
					<linearGradient id="SVGID_00000089556930805354116500000003005909011008474028_" gradientUnits="userSpaceOnUse" x1="56.8591" y1="61.7414" x2="62.9069" y2="61.7414" gradientTransform="matrix(0.9967 8.163217e-02 -8.163217e-02 0.9967 3.0538 -3.086)">
					<stop  offset="0" style="stop-color:#35413D"/>
					<stop  offset="0.5991" style="stop-color:#343F3C"/>
					<stop  offset="0.8146" style="stop-color:#313839"/>
					<stop  offset="0.9679" style="stop-color:#2C2D33"/>
					<stop  offset="1" style="stop-color:#2B2931"/>
				</linearGradient>
				
					<polygon style="fill:url(#SVGID_00000089556930805354116500000003005909011008474028_);stroke:#110015;stroke-width:0.25;stroke-miterlimit:10;" points="
					54.9,60.8 60.5,60.3 60.5,66 54.8,66.4 				"/>
			</g>
			
				<ellipse transform="matrix(8.163217e-02 -0.9967 0.9967 8.163217e-02 -9.3416 106.663)" class="st39" cx="53.2" cy="58.4" rx="0.7" ry="0.6"/>
			
				<ellipse transform="matrix(8.163217e-02 -0.9967 0.9967 8.163217e-02 -10.5868 107.6351)" class="st39" cx="53.1" cy="59.6" rx="0.4" ry="0.4"/>
		</g>
	</g>
	
		<radialGradient id="SVGID_00000139257293303785331460000017245050701777582780_" cx="15.6189" cy="7.685" r="7.5693" gradientUnits="userSpaceOnUse">
		<stop  offset="0" style="stop-color:#FFFBF3"/>
		<stop  offset="0.3713" style="stop-color:#FFFBF0"/>
		<stop  offset="0.6434" style="stop-color:#FFFAE7"/>
		<stop  offset="0.8833" style="stop-color:#FEF8D7"/>
		<stop  offset="1" style="stop-color:#FEF7CC"/>
	</radialGradient>
	<path style="fill:url(#SVGID_00000139257293303785331460000017245050701777582780_);" d="M25.2,3c-0.2,5.2-4.5,9.4-9.8,9.4
		c-4.5,0-8.3-3-9.5-7.2C7.8,3.8,10.1,3,12.5,3H25.2z"/>
	<g>
		<g>
			<path class="st41" d="M67.9,10.6c1,0,1-1.5,0-1.5C66.9,9.1,66.9,10.6,67.9,10.6L67.9,10.6z"/>
		</g>
	</g>
	<g>
		<g>
			<path class="st41" d="M34.8,18.9c1,0,1-1.5,0-1.5C33.8,17.4,33.8,18.9,34.8,18.9L34.8,18.9z"/>
		</g>
	</g>
	<g>
		<g>
			<path class="st41" d="M49.8,9.9c1,0,1-1.5,0-1.5C48.8,8.4,48.8,9.9,49.8,9.9L49.8,9.9z"/>
		</g>
	</g>
	<g>
		<g>
			<path class="st41" d="M11.4,22.7c1,0,1-1.5,0-1.5C10.4,21.2,10.4,22.7,11.4,22.7L11.4,22.7z"/>
		</g>
	</g>
	<g>
		<g>
			<path class="st41" d="M77.3,19.9c1,0,1-1.5,0-1.5C76.3,18.4,76.3,19.9,77.3,19.9L77.3,19.9z"/>
		</g>
	</g>
	<g>
		<g>
			<path class="st41" d="M39.5,9.9c1,0,1-1.5,0-1.5C38.5,8.4,38.5,9.9,39.5,9.9L39.5,9.9z"/>
		</g>
	</g>
	<g>
	</g>
	<g>
	</g>
	<g>
	</g>
	<g>
	</g>
	<g>
	</g>
</g>
</svg>
