<?xml version="1.0" encoding="utf-8"?>
<!-- Generator: Adobe Illustrator 25.4.1, SVG Export Plug-In . SVG Version: 6.00 Build 0)  -->
<svg version="1.1" xmlns="http://www.w3.org/2000/svg" xmlns:xlink="http://www.w3.org/1999/xlink" x="0px" y="0px"
	 viewBox="0 0 80 80" enable-background="new 0 0 80 80" xml:space="preserve">
<g id="Слой_2">
</g>
<g id="Слой_1">
	<linearGradient id="SVGID_1_" gradientUnits="userSpaceOnUse" x1="40" y1="3.1127" x2="40" y2="77.635">
		<stop  offset="0" style="stop-color:#62C4DC"/>
		<stop  offset="0.9955" style="stop-color:#023F3F"/>
	</linearGradient>
	
		<linearGradient id="SVGID_00000097492934856282125970000009097754904626079106_" gradientUnits="userSpaceOnUse" x1="40" y1="2.1127" x2="40" y2="78.635">
		<stop  offset="0" style="stop-color:#62C4DC"/>
		<stop  offset="0.9955" style="stop-color:#023F3F"/>
	</linearGradient>
	
		<path fill="url(#SVGID_1_)" stroke="url(#SVGID_00000097492934856282125970000009097754904626079106_)" stroke-width="2" stroke-miterlimit="10" d="
		M67.2,77.6H12.8C6.8,77.6,2,72.8,2,66.8V13.9C2,8,6.8,3.1,12.8,3.1h54.3C73.2,3.1,78,8,78,13.9v52.9C78,72.8,73.2,77.6,67.2,77.6z"
		/>
	<g>
		<rect x="23.9" y="19.6" fill="#DBBC91" width="34.4" height="41.8"/>
		<g>
			
				<line fill="#8F7B64" stroke="#8F7B64" stroke-width="8.000000e-02" stroke-miterlimit="10" x1="27" y1="51.3" x2="54.4" y2="51"/>
			
				<line fill="#8F7B64" stroke="#8F7B64" stroke-width="8.000000e-02" stroke-miterlimit="10" x1="27.1" y1="44.6" x2="54.5" y2="44.3"/>
			
				<line fill="#8F7B64" stroke="#8F7B64" stroke-width="8.000000e-02" stroke-miterlimit="10" x1="26.9" y1="38.2" x2="54.2" y2="37.9"/>
			
				<line fill="#8F7B64" stroke="#8F7B64" stroke-width="8.000000e-02" stroke-miterlimit="10" x1="27" y1="31.7" x2="54.4" y2="31.4"/>
			
				<line fill="#8F7B64" stroke="#8F7B64" stroke-width="8.000000e-02" stroke-miterlimit="10" x1="27" y1="26.2" x2="54.4" y2="25.9"/>
		</g>
		<g>
			<polygon fill="#580901" points="55.4,43.1 55.5,45.2 53.7,44.2 			"/>
			<polygon fill="#580901" points="55.4,36.7 55.5,38.8 53.7,37.8 			"/>
			<polygon fill="#580901" points="55.8,30.5 55.7,32.5 54,31.4 			"/>
			<polygon fill="#580901" points="56.1,25 56,27 54.3,25.9 			"/>
			<polygon fill="#580901" points="55.6,49.7 56,51.7 54.1,51 			"/>
			<polyline fill="#786B5F" stroke="#786B5F" stroke-width="2" stroke-miterlimit="10" points="58.6,24.4 58,30.3 57.7,35.9 
				57.7,42.9 57.7,48.6 59,55.9 			"/>
			<polyline fill="none" stroke="#A01704" stroke-width="0.75" stroke-linecap="square" stroke-miterlimit="10" points="56.7,24.6 
				56.2,30.5 55.9,36.1 55.9,43.1 55.9,48.8 57.2,56.1 			"/>
		</g>
		<g>
			<polygon fill="#580901" points="26.2,43.4 26.1,45.5 27.9,44.5 			"/>
			<polygon fill="#580901" points="26.2,37 26.1,39 27.9,38.1 			"/>
			<polygon fill="#580901" points="25.8,30.8 25.9,32.8 27.7,31.7 			"/>
			<polygon fill="#580901" points="25.5,25.2 25.6,27.3 27.3,26.2 			"/>
			<polygon fill="#580901" points="26,50 25.6,52 27.6,51.3 			"/>
			<polyline fill="#786B5F" stroke="#786B5F" stroke-width="2" stroke-miterlimit="10" points="23,24.7 23.6,30.6 23.9,36.2 
				23.9,43.2 23.9,48.9 22.6,56.2 			"/>
			<polyline fill="none" stroke="#A01704" stroke-width="0.75" stroke-linecap="square" stroke-miterlimit="10" points="24.9,24.9 
				25.4,30.8 25.7,36.4 25.7,43.4 25.7,49.1 24.4,56.4 			"/>
		</g>
		<g>
			<path fill="#EB5D08" d="M41.2,37.6c0,0-0.3-0.1-0.4-0.3c0-0.2-0.1-0.4-0.1-0.5c0-0.2,0.1-0.3,0.2-0.4l0.6-0.1
				c-0.2,0-2.6-0.5-3-0.5c0,0,0.2,0.1,0.3,0.1c0.2,0.1,0.3,0.1,0.3,0.1c0.1,0.1-0.1,0.3-0.1,0.4c-0.1,0.1-0.3,0.1-0.6,0.1
				c-0.5,0-1.1-0.2-1.2-0.5l-0.2-0.5c0,0-0.1-0.3,0.2-0.5c0.1-0.1,0.2-0.1,0.5-0.1c0.4,0,0.9,0.1,0.9,0.1c0,0,1.1,0.2,2,0.3
				c0.6,0.1,0.9,0.1,1,0.1c0.2,0,0.2,0,0.4,0.1c0.7,0.3,0.7,0.6,0.7,0.6c0,0,0.1,0.4,0,0.6C42.6,37.3,41.3,37.6,41.2,37.6L41.2,37.6
				L41.2,37.6z"/>
			<path fill="#A94B08" d="M37.8,35c0.4,0,0.9,0.1,0.9,0.1s1.1,0.2,2,0.3c1.4,0.2,1,0,1.5,0.2c0.6,0.3,0.6,0.6,0.6,0.6
				s0.1,0.4,0,0.6c-0.2,0.5-1.6,0.7-1.6,0.7s-0.3-0.1-0.4-0.3c0-0.2-0.1-0.4-0.1-0.4c0-0.1,0-0.3,0.2-0.4l0.6-0.1c0,0-2.6-0.6-3-0.6
				c-0.1,0-0.1,0-0.1,0c0.1,0.1,0.6,0.2,0.7,0.3S39,36.4,39,36.4h0c-0.1,0.1-0.3,0.1-0.5,0.1c-0.5,0-1.1-0.2-1.2-0.5l-0.2-0.5
				c0,0-0.1-0.3,0.2-0.5C37.4,35,37.6,35,37.8,35 M37.8,35c-0.3,0-0.4,0-0.5,0.1C37,35.3,37,35.6,37,35.6l0.2,0.5
				c0.1,0.3,0.8,0.5,1.2,0.5c0.2,0,0.4,0,0.6-0.1l0,0l0,0c0,0,0.1-0.3,0.1-0.4c0-0.1-0.1-0.1-0.3-0.2c-0.1,0-0.1,0-0.2-0.1
				c0.5,0,2,0.4,2.6,0.5l-0.3,0l0,0l0,0c-0.2,0.1-0.2,0.3-0.2,0.4c0,0.1,0,0.3,0.1,0.4l0,0l0,0c0.1,0.2,0.4,0.3,0.4,0.3l0,0l0,0
				c0.1,0,1.4-0.2,1.6-0.7c0.1-0.2,0-0.6,0-0.6c0-0.1,0-0.4-0.6-0.6l-0.1,0c-0.2-0.1-0.2-0.1-0.4-0.1c-0.2,0-0.4,0-1-0.1
				c-0.9-0.1-2-0.3-2-0.3C38.7,35.1,38.2,35,37.8,35L37.8,35z"/>
		</g>
		<g>
			<path fill="#851203" stroke="#6D0000" stroke-width="5.000000e-02" stroke-miterlimit="10" d="M35.3,29.3c-2-0.1-3.4,0.7-4.6,1.9
				c-1.8-0.9,2.6-4.2,5-4.1c1.6,0.5,2.5,1.2,2.8,2.2c0.2,1,0,1.8-0.5,2.5C37,30,36.2,29.3,35.3,29.3z"/>
			<path fill="#E95B04" d="M31,30.1c1.3-1,2.7-1.8,4.4-2.2c1.2,0.2,2.1,1,2.6,2.3c0.5-1,0.3-2-2.3-3.1C32.8,27.1,30.5,29.5,31,30.1z
				"/>
		</g>
		<g>
			<path fill="#851203" stroke="#6D0000" stroke-width="5.000000e-02" stroke-miterlimit="10" d="M47,30.5c1.8-0.1,3.1,0.8,4.3,2.1
				c1.6-1-2.4-4.6-4.6-4.5c-1.5,0.5-2.3,1.3-2.6,2.4c-0.2,1.1,0,1.9,0.5,2.7C45.4,31.3,46.2,30.5,47,30.5z"/>
			<path fill="#E95B04" d="M51,31.4c-1.2-1.1-2.5-2-4.1-2.3c-1.1,0.2-1.9,1.1-2.4,2.5c-0.5-1.1-0.3-2.2,2.1-3.4
				C49.3,28.2,51.4,30.8,51,31.4z"/>
		</g>
		<path fill="none" stroke="#6D0000" stroke-width="5.000000e-02" stroke-miterlimit="10" d="M46,42.9"/>
		<path fill="#E56007" stroke="#6D0000" stroke-width="5.000000e-02" stroke-miterlimit="10" d="M32.5,38.1"/>
		<g>
			<g>
				<path fill="#E56007" stroke="#6D0000" stroke-width="5.000000e-02" stroke-miterlimit="10" d="M38.1,44.2l1.2,0.2l-0.1,1.1
					c-0.7,0.5-0.8,0.9,0.2,1.1h0.1c-1-0.4-0.9-0.8-0.2-1.1c1-0.1,1.4,0.2,1.4,0.8c0,0.6-0.4,1-1,1.1h-1.2c-0.7-0.2-1-0.6-1-1.2
					L38.1,44.2z"/>
				<path fill="#E56007" stroke="#6D0000" stroke-width="5.000000e-02" stroke-miterlimit="10" d="M38.1,44.2L37,43.8l-0.5,1
					c0.3,0.7,0.3,1.1-0.6,0.9l-0.1-0.1c1,0.1,1.1-0.2,0.6-0.8c-0.7-0.5-1.2-0.5-1.5,0.1c-0.3,0.5-0.2,1,0.3,1.3l1,0.6
					c0.6,0.2,1.1,0,1.3-0.5L38.1,44.2z"/>
			</g>
			<path fill="#E56007" stroke="#6D0000" stroke-width="5.000000e-02" stroke-miterlimit="10" d="M46,42.8c0,0.1,0.2,0.2-0.5,0.1
				c-0.1-0.5-0.1-1,0.3-1.2c0.7,0.1,1.1,0.3,1.1,0.8c0,0.3-0.1,0.5-0.4,0.7h-1c-5.6,1.4-9.7,0.2-12.5-3.5l-0.5-0.1
				c-0.4-0.6-0.3-1.1,0-1.6c0.9-0.1,1.4,0.2,1.5,0.9c0,0.2-0.1,0.4-0.4,0.5c-0.2,0.1-0.3,0.1-0.7-0.2c-0.1-0.1,0.2-0.4,0.3-0.5
				c0-0.2-0.3,0.2-0.4,0.4c0,0.1,0.3,0.2,0.6,0.4c0,0,0,0,0.1,0c1.8,1.9,5.4,4.3,11.5,3.2c0.1,0,0.2,0,0.3,0
				C45.4,42.9,45.4,42.9,46,42.8z"/>
			<path fill="#E56007" stroke="#6D0000" stroke-width="5.000000e-02" stroke-miterlimit="10" d="M32.2,40.7c0.5-0.1,1.2,0,0.5,0.5
				c-0.4,0.3-0.8,0.4-1.5-0.2c-0.1-0.5-0.1-0.9,0.7-1.1c0.3-0.1,0.6-0.1,0.9,0c3,3.8,7.2,4.9,12.6,3.6c0.6-0.2,0.8-0.1,1.1,0
				c0.4,0.2,0.5,0.5,0.4,0.8c-0.2,0.6-0.7,0.8-1.3,0.6c-0.3,0-0.3-0.3-0.3-0.7c-0.1-0.1,0.2-0.1,0.6,0c0-0.1,0-0.2-0.6-0.1
				c-0.2,0.1-0.3,0.3-0.2,0.6C39.9,45,36.2,44.7,33,41C33.3,40.7,32.4,40.3,32.2,40.7z"/>
		</g>
		<path fill="#A21802" d="M37.6,46.7c0.3,0.9,0.9,0.9,1.6,0.9c0.3,0,0.7,0,1.1-0.1c0.2-0.1,0.4-0.3,0.5-0.6
			c-0.4,0.4-0.8,0.5-1.3,0.5C38.8,47.4,38.1,47.3,37.6,46.7z"/>
		<path fill="#A21802" d="M34.8,45.2c0,0.3,0,0.6,0.3,0.9c0.2,0.2,0.4,0.2,0.8,0.4c0.6,0.4,1.1,0.4,1.5,0
			C36.2,46.6,35.2,46.2,34.8,45.2z"/>
		<g>
			<path fill="#F05B09" stroke="#000000" stroke-width="5.000000e-02" stroke-miterlimit="10" d="M13.4,60.9c-0.8-4.8-3.8-5.4-8-3.7
				c1.5,1,2,1.8,2.3,2.6c-1-2.1-2.5-1-4.1,0.8c1.2,0.5,2.4,0.9,3.1,1.5c-1,0.5-2.1,0.8-3.4,1.1c-0.1,0.3-0.1,0.6,0,0.9
				c1,0.3,1.8,0.4,2.6,0.3l-2.7,0.7l0.7,0.7l2.3-0.2l-1.7,0.6c0,0.5,0.2,0.9,0.7,1.1c0,0,1.3-0.3,1.3-0.4c0-0.1-1.2,0.5-1.2,0.5
				c0.3,0.4,0.7,0.6,1.1,0.5l1-0.8c-1.7,1.4-2.5,2.3-1.8,2.1c4.6-1.3,6.1-2.6,7.1-4L13.4,60.9z"/>
			<path fill="#A31603" stroke="#000000" stroke-width="5.000000e-02" stroke-miterlimit="10" d="M13.1,61.6c0.1-2-0.4-3.8-2.5-5
				c0.7,0.8,0.8,1.4,0.6,1.5c-0.7,0.5-1.7,0.2-2.9-0.5c0.7,0.9,1.3,1.7,1.4,2.1c-0.4,0.4-0.9,0.8-1.5,0.9l1.3,1.2l-2.3,1l0.9,0.3
				L7,64c-0.1,0.5,0.1,0.9,0.5,1.2l1.7,0c-0.4,0-2,1.9-1.7,2.4c0.6,1,5.6-1.9,5-2.9L13.1,61.6z"/>
			
				<ellipse transform="matrix(0.7552 -0.6555 0.6555 0.7552 -37.0381 24.1294)" stroke="#000000" stroke-width="5.000000e-02" stroke-miterlimit="10" cx="13.8" cy="61.6" rx="3.7" ry="3.3"/>
		</g>
		<g>
			<path fill="#F05B09" stroke="#000000" stroke-width="5.000000e-02" stroke-miterlimit="10" d="M68.1,61.9c0.8-4.8,3.8-5.4,8-3.7
				c-1.5,1-2,1.8-2.3,2.6c1-2.1,2.5-1,4.1,0.8c-1.2,0.5-2.4,0.9-3.1,1.5c1,0.5,2.1,0.8,3.4,1.1c0.1,0.3,0.1,0.6,0,0.9
				c-1,0.3-1.8,0.4-2.6,0.3l2.7,0.7l-0.7,0.7l-2.3-0.2l1.7,0.6c0,0.5-0.2,0.9-0.7,1.1c0,0-1.3-0.3-1.3-0.4s1.2,0.5,1.2,0.5
				c-0.3,0.4-0.7,0.6-1.1,0.5l-1-0.8c1.7,1.4,2.5,2.3,1.8,2.1c-4.6-1.3-6.1-2.6-7.1-4L68.1,61.9z"/>
			<path fill="#A31603" stroke="#000000" stroke-width="5.000000e-02" stroke-miterlimit="10" d="M68.4,62.6c-0.1-2,0.4-3.8,2.5-5
				c-0.7,0.8-0.8,1.4-0.6,1.5c0.7,0.5,1.7,0.2,2.9-0.5c-0.7,0.9-1.3,1.7-1.4,2.1c0.4,0.4,0.9,0.8,1.5,0.9L72,62.9l2.3,1l-0.9,0.3
				l1.2,0.8c0.1,0.5-0.1,0.9-0.5,1.2l-1.7,0c0.4,0,2,1.9,1.7,2.4c-0.6,1-5.6-1.9-5-2.9L68.4,62.6z"/>
			
				<ellipse transform="matrix(0.6555 -0.7552 0.7552 0.6555 -24.0162 72.7181)" stroke="#000000" stroke-width="5.000000e-02" stroke-miterlimit="10" cx="67.7" cy="62.7" rx="3.3" ry="3.7"/>
		</g>
		<g>
			<g>
				<path fill="#F05B09" stroke="#000000" stroke-width="5.000000e-02" stroke-miterlimit="10" d="M12,15.2c1-4.7-1.5-6.4-6-6.4
					c1,1.4,1.2,2.4,1.1,3.3C7,9.8,5.2,10.2,3,11.3c0.9,0.9,1.8,1.8,2.3,2.5c-1.1,0.1-2.3,0-3.5-0.2c-0.2,0.2-0.3,0.5-0.3,0.8
					c0.8,0.7,1.6,1.1,2.3,1.2l-2.8-0.4l0.4,0.9l2.2,0.7l-1.8-0.1c-0.2,0.4-0.2,0.9,0.3,1.3c0,0,1.3,0.2,1.4,0.1c0-0.1-1.3,0-1.3,0
					c0.1,0.5,0.4,0.8,0.9,0.9l1.2-0.4c-2.1,0.7-3.2,1.2-2.5,1.3c4.7,0.5,6.7-0.1,8.1-1L12,15.2z"/>
				<path fill="#A31603" stroke="#000000" stroke-width="5.000000e-02" stroke-miterlimit="10" d="M11.4,15.7
					c0.8-1.8,1.1-3.7-0.5-5.6c0.3,1,0.2,1.6,0,1.6c-0.8,0.2-1.7-0.5-2.5-1.5c0.3,1.1,0.6,2,0.6,2.5c-0.6,0.2-1.1,0.4-1.7,0.3L8,14.7
					l-2.5,0.1l0.8,0.6l-1.4,0.3c-0.3,0.4-0.2,0.8,0,1.3l1.6,0.6C6,17.4,3.9,18.7,4,19.1c0.2,1.1,5.8,0.3,5.7-0.8L11.4,15.7z"/>
				
					<ellipse transform="matrix(0.9453 -0.3262 0.3262 0.9453 -4.5745 4.8086)" stroke="#000000" stroke-width="5.000000e-02" stroke-miterlimit="10" cx="12" cy="16" rx="3.7" ry="3.3"/>
			</g>
			<g>
				<path fill="#F05B09" stroke="#000000" stroke-width="5.000000e-02" stroke-miterlimit="10" d="M67.3,16.4
					c0.2-4.8,3.1-5.8,7.4-4.7c-1.3,1.2-1.8,2.1-1.9,2.9c0.7-2.2,2.3-1.3,4.2,0.3c-1.1,0.6-2.2,1.2-2.8,1.9c1,0.3,2.2,0.6,3.5,0.7
					c0.2,0.3,0.2,0.6,0.1,0.9c-0.9,0.5-1.8,0.7-2.5,0.6l2.8,0.3L77.4,20l-2.3,0.1l1.8,0.3c0.1,0.5-0.1,0.9-0.6,1.2
					c0,0-1.3-0.1-1.4-0.2c0-0.1,1.3,0.3,1.3,0.3c-0.2,0.5-0.6,0.7-1.1,0.6l-1.1-0.7c1.9,1.2,2.8,1.9,2.1,1.8c-4.7-0.7-6.4-1.8-7.6-3
					L67.3,16.4z"/>
				<path fill="#A31603" stroke="#000000" stroke-width="5.000000e-02" stroke-miterlimit="10" d="M67.7,17c-0.4-2-0.1-3.8,1.9-5.3
					c-0.6,0.9-0.6,1.5-0.4,1.6c0.8,0.4,1.7-0.1,2.8-0.8c-0.6,0.9-1.1,1.8-1.2,2.3c0.5,0.4,1,0.7,1.6,0.7l-1.1,1.4l2.4,0.7L72.9,18
					l1.3,0.7c0.2,0.5,0,0.9-0.3,1.2l-1.7,0.2c0.4-0.1,2.2,1.7,2,2.1c-0.4,1.1-5.7-1.1-5.3-2.3L67.7,17z"/>
				
					<ellipse transform="matrix(0.5525 -0.8335 0.8335 0.5525 15.7224 63.5824)" stroke="#000000" stroke-width="5.000000e-02" stroke-miterlimit="10" cx="67.1" cy="17.1" rx="3.3" ry="3.7"/>
			</g>
			<g>
				<path fill="#786B5F" stroke="#000000" stroke-width="5.000000e-02" stroke-miterlimit="10" d="M20.1,26.2L20.1,26.2
					c-0.5,0.2-1,0.3-1.5,0.5c-5.5-5.2-6.2-9.8-1.3-13.7c0.4,0.1,0.8,0.2,1.2,0.3C15.5,15.9,16.5,20.4,20.1,26.2z"/>
				<path fill="#786B5F" stroke="#000000" stroke-width="5.000000e-02" stroke-miterlimit="10" d="M61.6,26.2
					c-0.5-0.1-1-0.3-1.5-0.4c3.6-6.6,3.3-10.7,0.6-13.3c0.4-0.1,0.9-0.3,1.3-0.4C66.2,16.4,66.6,21,61.6,26.2z"/>
				<path fill="#DBBC91" stroke="#000000" stroke-width="5.000000e-02" stroke-miterlimit="10" d="M60,25.8l-0.1,0
					c-10.3-2.7-20.3-5.7-39.1,0.2c-0.2,0.1-0.5,0.1-0.7,0.2c-3.6-5.8-4.6-10.3-1.5-12.9c0.2,0,0.4,0.1,0.6,0.1l0.2,0.1
					c2.9,0.6,5.9,1,9,1.5c10.7,1.6,21.9,1,32.2-2.4l0.1,0C63.3,15.1,63.6,19.2,60,25.8z"/>
				<g>
					<polyline fill="none" stroke="#000000" stroke-width="5.000000e-02" stroke-miterlimit="10" points="19.1,17.2 46.1,17.7 
						60.5,16.7 					"/>
				</g>
				<g>
					<polyline fill="none" stroke="#000000" stroke-width="5.000000e-02" stroke-miterlimit="10" points="20.4,20.9 28.1,19.9 
						50.1,19.8 59.7,20.2 					"/>
				</g>
				<g>
					<polyline fill="none" stroke="#000000" stroke-width="5.000000e-02" stroke-miterlimit="10" points="58.3,24 49,21.4 
						30.6,21.6 21.2,24.7 					"/>
				</g>
				<g>
					<polygon fill="#580901" stroke="#000000" stroke-width="5.000000e-02" stroke-miterlimit="10" points="17.8,20.5 19,23 
						20.6,20.8 					"/>
				</g>
				<g>
					<polygon fill="#580901" stroke="#000000" stroke-width="5.000000e-02" stroke-miterlimit="10" points="17.4,16.3 17.5,18.4 
						19.2,17.2 					"/>
				</g>
				<g>
					<polygon fill="#580901" stroke="#000000" stroke-width="5.000000e-02" stroke-miterlimit="10" points="19.8,24.3 20.5,26.1 
						21.7,24.5 					"/>
				</g>
				<g>
					<polygon fill="#580901" stroke="#000000" stroke-width="5.000000e-02" stroke-miterlimit="10" points="62.2,19.9 61,22.4 
						59.5,20.2 					"/>
				</g>
				<g>
					<polygon fill="#580901" stroke="#000000" stroke-width="5.000000e-02" stroke-miterlimit="10" points="62.3,15.7 62.2,18 
						60.2,16.7 					"/>
				</g>
				<g>
					<polygon fill="#580901" stroke="#000000" stroke-width="5.000000e-02" stroke-miterlimit="10" points="60.2,23.8 59.4,25.5 
						58.2,23.9 					"/>
				</g>
				<path fill="#A01704" stroke="#000000" stroke-width="5.000000e-02" stroke-miterlimit="10" d="M60,25.8l-0.1,0l-0.7-0.2
					c3-5.4,3.9-10,0.7-12.8l0.6-0.2l0.1,0C63.3,15.1,63.6,19.2,60,25.8z"/>
				<path fill="#A01704" stroke="#000000" stroke-width="5.000000e-02" stroke-miterlimit="10" d="M20.1,26.2L20.1,26.2
					c-3.6-5.8-4.6-10.4-1.5-12.9l0,0l0.6,0.1l0.2,0.1c-3.1,2.4-2.2,6.7,1.4,12.5L20.1,26.2z"/>
				<path fill="none" stroke="#000000" stroke-width="5.000000e-02" stroke-miterlimit="10" d="M50.4,19.8"/>
			</g>
		</g>
		<g>
			<path fill="#786B5F" stroke="#000000" stroke-width="5.000000e-02" stroke-miterlimit="10" d="M22.1,68.1L22.1,68.1
				c-0.5,0.2-1,0.3-1.5,0.5c-5.5-5.2-6.2-9.8-1.3-13.7c0.4,0.1,0.8,0.2,1.2,0.3C17.5,57.7,18.5,62.3,22.1,68.1z"/>
			<path fill="#786B5F" stroke="#000000" stroke-width="5.000000e-02" stroke-miterlimit="10" d="M63.5,68.1c-0.5-0.1-1-0.3-1.5-0.4
				c3.6-6.6,3.3-10.7,0.6-13.3c0.4-0.1,0.9-0.3,1.3-0.4C68.2,58.2,68.6,62.9,63.5,68.1z"/>
			<path fill="#DBBC91" stroke="#000000" stroke-width="5.000000e-02" stroke-miterlimit="10" d="M62,67.7l-0.1,0
				c-10.3-2.7-20.3-5.7-39.1,0.2c-0.2,0.1-0.5,0.1-0.7,0.2c-3.6-5.8-4.6-10.3-1.5-12.9c0.2,0,0.4,0.1,0.6,0.1l0.2,0.1
				c2.9,0.6,5.9,1,9,1.5c10.7,1.6,21.9,1,32.2-2.4l0.1,0C65.3,57,65.6,61.1,62,67.7z"/>
			<g>
				<polyline fill="none" stroke="#000000" stroke-width="5.000000e-02" stroke-miterlimit="10" points="21.1,59.1 48.1,59.5 
					62.5,58.6 				"/>
			</g>
			<g>
				<polyline fill="none" stroke="#000000" stroke-width="5.000000e-02" stroke-miterlimit="10" points="22.3,62.8 30.1,61.8 
					52.1,61.7 61.7,62.1 				"/>
			</g>
			<g>
				<polyline fill="none" stroke="#000000" stroke-width="5.000000e-02" stroke-miterlimit="10" points="60.3,65.9 51,63.3 
					32.6,63.5 23.2,66.6 				"/>
			</g>
			<g>
				<polygon fill="#580901" stroke="#000000" stroke-width="5.000000e-02" stroke-miterlimit="10" points="19.8,62.3 21,64.9 
					22.6,62.6 				"/>
			</g>
			<g>
				<polygon fill="#580901" stroke="#000000" stroke-width="5.000000e-02" stroke-miterlimit="10" points="19.4,58.2 19.5,60.2 
					21.2,59.1 				"/>
			</g>
			<g>
				<polygon fill="#580901" stroke="#000000" stroke-width="5.000000e-02" stroke-miterlimit="10" points="21.8,66.2 22.5,68 
					23.7,66.4 				"/>
			</g>
			<g>
				<polygon fill="#580901" stroke="#000000" stroke-width="5.000000e-02" stroke-miterlimit="10" points="64.2,61.7 63,64.3 
					61.5,62 				"/>
			</g>
			<g>
				<polygon fill="#580901" stroke="#000000" stroke-width="5.000000e-02" stroke-miterlimit="10" points="64.3,57.6 64.2,59.9 
					62.2,58.6 				"/>
			</g>
			<g>
				<polygon fill="#580901" stroke="#000000" stroke-width="5.000000e-02" stroke-miterlimit="10" points="62.2,65.7 61.4,67.4 
					60.2,65.8 				"/>
			</g>
			<path fill="#A01704" stroke="#000000" stroke-width="5.000000e-02" stroke-miterlimit="10" d="M62,67.7l-0.1,0l-0.7-0.2
				c3-5.4,3.9-10,0.7-12.8l0.6-0.2l0.1,0C65.3,57,65.6,61.1,62,67.7z"/>
			<path fill="#A01704" stroke="#000000" stroke-width="5.000000e-02" stroke-miterlimit="10" d="M22.1,68.1L22.1,68.1
				c-3.6-5.8-4.6-10.4-1.5-12.9l0,0l0.6,0.1l0.2,0.1c-3.1,2.4-2.2,6.7,1.4,12.5L22.1,68.1z"/>
			<path fill="none" stroke="#000000" stroke-width="5.000000e-02" stroke-miterlimit="10" d="M52.4,61.7"/>
		</g>
	</g>
	<path fill="#AA0021" stroke="#FFFFFF" stroke-miterlimit="10" d="M42,62.8c0,5,4.1,9.1,9.1,9.1c5,0,9.1-4.1,9.1-9.1
		s-4.1-9.1-9.1-9.1C46.1,53.7,42,57.8,42,62.8z M44.9,62.8c0-3.4,2.8-6.2,6.2-6.2c3.4,0,6.2,2.8,6.2,6.2c0,3.4-2.8,6.2-6.2,6.2
		C47.7,69,44.9,66.2,44.9,62.8z M57.6,71.1l3.9,4.5c0.6,0.6,1,0.6,1.7,0l1.3-1.3c0.6-0.6,0.7-1,0-1.7l-4.5-3.9L57.6,71.1z"/>
	<g>
	</g>
	<g>
	</g>
	<g>
	</g>
	<g>
	</g>
	<g>
	</g>
</g>
</svg>
