<?xml version="1.0" encoding="utf-8"?>
<!-- Generator: Adobe Illustrator 25.4.1, SVG Export Plug-In . SVG Version: 6.00 Build 0)  -->
<svg version="1.1" xmlns="http://www.w3.org/2000/svg" xmlns:xlink="http://www.w3.org/1999/xlink" x="0px" y="0px"
	 viewBox="0 0 80 80" enable-background="new 0 0 80 80" xml:space="preserve">
<g id="Слой_2">
</g>
<g id="Слой_1">
	<linearGradient id="SVGID_1_" gradientUnits="userSpaceOnUse" x1="1.9936" y1="40.2611" x2="78.0064" y2="40.2611">
		<stop  offset="5.327789e-09" style="stop-color:#371B49"/>
		<stop  offset="1" style="stop-color:#A587CF"/>
	</linearGradient>
	
		<linearGradient id="SVGID_00000019664558900619319540000007961211012754256290_" gradientUnits="userSpaceOnUse" x1="0.9936" y1="40.2611" x2="79.0064" y2="40.2611">
		<stop  offset="5.327789e-09" style="stop-color:#371B49"/>
		<stop  offset="1" style="stop-color:#A587CF"/>
	</linearGradient>
	
		<path fill="url(#SVGID_1_)" stroke="url(#SVGID_00000019664558900619319540000007961211012754256290_)" stroke-width="2" stroke-miterlimit="10" d="
		M67.2,77.5H12.8C6.8,77.5,2,72.7,2,66.7V13.8C2,7.9,6.8,3,12.8,3h54.3C73.2,3,78,7.9,78,13.8v52.9C78,72.7,73.2,77.5,67.2,77.5z"/>
	<circle fill="#B383C6" cx="40" cy="40.9" r="27.3"/>
	
		<ellipse transform="matrix(0.5918 -0.8061 0.8061 0.5918 -0.4034 51.4951)" fill="#C7AFFD" cx="50.6" cy="26.1" rx="7.8" ry="11.5"/>
	<g>
		<path fill="#421D2E" d="M39,58.6l0.2-0.1V54c-1.4-0.1-2.7-0.3-4-0.5c-7.5-1.2-8.8-3.4-10.8-6.3c1.9,1.4,9.4,1.9,14.8,1.6v-1.2
			l0.1-0.1l5.2-4.5l-4.5-8h-0.1v-0.8h-0.2v-20c-0.5-0.1-1-0.1-1.4-0.1c-14.8,0-26.7,12.2-26.7,27.2c0,15,12,27.2,26.7,27.2
			c2.4,0,4.7-0.3,7-1L39,58.6z M28.5,26.6c2.2,0,4.1,1.9,4.1,4.2c0,2.3-1.8,4.1-4.1,4.1s-4.1-1.9-4.1-4.1
			C24.5,28.4,26.3,26.6,28.5,26.6z"/>
	</g>
	<polygon fill="#421D2E" points="32.6,51.9 32.7,51.9 32.7,51.9 	"/>
	<circle fill="none" stroke="#000000" stroke-miterlimit="10" cx="39.3" cy="41.2" r="27.3"/>
	<path fill="#A589D0" d="M15.3,68.3c0,3.5-2.9,6.4-6.4,6.4c-0.4,0-0.9,0-1.3-0.1c2.9-0.6,5.1-3.2,5.1-6.3c0-3.1-2.2-5.7-5.1-6.3
		c0.4-0.1,0.8-0.1,1.3-0.1C12.4,61.9,15.3,64.8,15.3,68.3z"/>
	
		<linearGradient id="SVGID_00000003823703247588772480000017673405758959664557_" gradientUnits="userSpaceOnUse" x1="61.811" y1="13.3044" x2="73.3783" y2="13.3044">
		<stop  offset="0" style="stop-color:#A587CF"/>
		<stop  offset="5.327789e-09" style="stop-color:#371B49"/>
	</linearGradient>
	<circle fill="url(#SVGID_00000003823703247588772480000017673405758959664557_)" cx="67.6" cy="13.3" r="5.8"/>
	
		<linearGradient id="SVGID_00000009552249446908131220000000166983585781735581_" gradientUnits="userSpaceOnUse" x1="51.304" y1="8.0023" x2="54.768" y2="8.0023" gradientTransform="matrix(-1.836970e-16 -1 1 -1.836970e-16 51.7406 66.3404)">
		<stop  offset="0" style="stop-color:#A587CF"/>
		<stop  offset="5.327789e-09" style="stop-color:#371B49"/>
	</linearGradient>
	<polygon fill="url(#SVGID_00000009552249446908131220000000166983585781735581_)" points="58.2,13.3 59.7,12.4 61.2,11.6 
		61.2,13.3 61.2,15 59.7,14.2 	"/>
	
		<linearGradient id="SVGID_00000173118941314669334770000013556523176787409549_" gradientUnits="userSpaceOnUse" x1="51.304" y1="25.3717" x2="54.768" y2="25.3717" gradientTransform="matrix(4.489678e-11 -1 -1 -4.489678e-11 100.7933 66.3404)">
		<stop  offset="0" style="stop-color:#A587CF"/>
		<stop  offset="5.327789e-09" style="stop-color:#371B49"/>
	</linearGradient>
	<polygon fill="url(#SVGID_00000173118941314669334770000013556523176787409549_)" points="76.9,13.3 75.4,12.4 73.9,11.6 
		73.9,13.3 73.9,15 75.4,14.2 	"/>
	
		<linearGradient id="SVGID_00000165949873795074789560000005022117943375511224_" gradientUnits="userSpaceOnUse" x1="61.6434" y1="32.6822" x2="65.1074" y2="32.6822" gradientTransform="matrix(1 0 0 1 4.2193 -27.1877)">
		<stop  offset="0" style="stop-color:#A587CF"/>
		<stop  offset="5.327789e-09" style="stop-color:#371B49"/>
	</linearGradient>
	<polygon fill="url(#SVGID_00000165949873795074789560000005022117943375511224_)" points="67.6,4 68.5,5.5 69.3,7 67.6,7 65.9,7 
		66.7,5.5 	"/>
	
		<linearGradient id="SVGID_00000104680031743128150020000010890345111976683422_" gradientUnits="userSpaceOnUse" x1="61.1406" y1="51.2345" x2="64.6046" y2="51.2345" gradientTransform="matrix(-1 0 0 -1 130.4673 72.5136)">
		<stop  offset="0" style="stop-color:#A587CF"/>
		<stop  offset="5.327789e-09" style="stop-color:#371B49"/>
	</linearGradient>
	<polygon fill="url(#SVGID_00000104680031743128150020000010890345111976683422_)" points="67.6,22.8 66.7,21.3 65.9,19.8 
		67.6,19.8 69.3,19.8 68.5,21.3 	"/>
	<g>
	</g>
	<g>
	</g>
	<g>
	</g>
	<g>
	</g>
	<g>
	</g>
</g>
</svg>
