<?xml version="1.0" encoding="utf-8"?>
<!-- Generator: Adobe Illustrator 25.4.1, SVG Export Plug-In . SVG Version: 6.00 Build 0)  -->
<svg version="1.1" xmlns="http://www.w3.org/2000/svg" xmlns:xlink="http://www.w3.org/1999/xlink" x="0px" y="0px"
	 viewBox="0 0 80 80" enable-background="new 0 0 80 80" xml:space="preserve">
<g id="Слой_2">
</g>
<g id="Слой_1">
	<linearGradient id="SVGID_1_" gradientUnits="userSpaceOnUse" x1="5.5396" y1="5.8007" x2="74.4604" y2="74.7216">
		<stop  offset="0" style="stop-color:#FFFF00"/>
		<stop  offset="1" style="stop-color:#8CC63F"/>
	</linearGradient>
	
		<linearGradient id="SVGID_00000147907630042524731200000000029184527840434308_" gradientUnits="userSpaceOnUse" x1="5.186" y1="5.4472" x2="74.814" y2="75.0751">
		<stop  offset="2.877006e-07" style="stop-color:#FFFF00"/>
		<stop  offset="1" style="stop-color:#8CC63F"/>
	</linearGradient>
	<path fill="url(#SVGID_1_)" stroke="url(#SVGID_00000147907630042524731200000000029184527840434308_)" stroke-miterlimit="10" d="
		M67.2,77.5H12.8C6.8,77.5,2,72.7,2,66.7V13.8C2,7.9,6.8,3,12.8,3h54.3C73.2,3,78,7.9,78,13.8v52.9C78,72.7,73.2,77.5,67.2,77.5z"/>
	<circle fill="none" stroke="#FFFFFF" stroke-width="3" stroke-miterlimit="10" cx="40" cy="40" r="30.7"/>
	<line fill="none" stroke="#FFFFFF" stroke-width="3" stroke-miterlimit="10" x1="40" y1="11.8" x2="40" y2="16.7"/>
	<line fill="none" stroke="#FFFFFF" stroke-width="3" stroke-miterlimit="10" x1="19.8" y1="21" x2="23.3" y2="24.5"/>
	<line fill="none" stroke="#FFFFFF" stroke-width="3" stroke-miterlimit="10" x1="56" y1="57.2" x2="59.5" y2="60.6"/>
	<line fill="none" stroke="#FFFFFF" stroke-width="3" stroke-miterlimit="10" x1="59.9" y1="20.6" x2="56.4" y2="24.1"/>
	<line fill="none" stroke="#FFFFFF" stroke-width="3" stroke-miterlimit="10" x1="23.8" y1="56.7" x2="20.4" y2="60.1"/>
	<line fill="none" stroke="#FFFFFF" stroke-width="3" stroke-miterlimit="10" x1="40" y1="63.4" x2="40" y2="68.3"/>
	<line fill="none" stroke="#FFFFFF" stroke-width="3" stroke-miterlimit="10" x1="63.3" y1="40.3" x2="68.2" y2="40.3"/>
	<line fill="none" stroke="#FFFFFF" stroke-width="3" stroke-miterlimit="10" x1="12.1" y1="40.3" x2="16.9" y2="40.3"/>
	<line fill="none" stroke="#FFFFFF" stroke-width="3" stroke-miterlimit="10" x1="40" y1="19" x2="40" y2="40.3"/>
	<line fill="none" stroke="#FFFFFF" stroke-width="3" stroke-miterlimit="10" x1="40.6" y1="40.3" x2="49.1" y2="31.7"/>
	<g>
		<path fill="#FFFFFF" stroke="#000000" stroke-width="0.5" stroke-miterlimit="10" d="M21.7,35.2l-4.5,1.7l-1.5,9h3.7
			c2.4,3.8,2.3,7.4-0.7,11c-3,0.6-5.8-0.4-8.6-3.1c-0.4-0.5-0.9-0.5-1.3-0.1c-0.1,1-0.2,1.9-0.3,2.7c0.1,3-0.8,6-2.3,9l0,4.9
			l0.6,0.4v2.5l1.1,2l2.7,0.2c0.4-0.6-0.3-1.3-1.5-2.2l-0.9,0.1L8,70.8l0.8-0.5l0.1-5.6l1.9-5.8c0.9,1.8,1,3.3,0,4.6l-0.3,6.2
			l0.8,0.1l-0.1,2.1l1.5,1.9l2.8-0.2c-0.1-0.7-0.5-1.3-1.4-1.7l-1.9-0.2l-0.2-1.7l1.4-0.2c-0.6-2.5-0.6-5.7-0.4-9.2
			c1.3,0.5,2.5,1.1,3.3,2.3c0.3,2.2-0.2,4.5-1,6.8l1.3,0.2l0.5,4.5l1.7,1.2h3.1c-0.1-0.7-0.7-1.2-2-1.6l-1.9-0.2l-0.3-3.7l1.1-0.3
			c-0.5-2.4-0.7-4.5-0.4-6.3l0.9-0.2c0.4,2.3,0.4,4.5,0.1,6.6h0.6l0.1,1.1l-0.1,0.8l2,1.4l1.2,0.1c0.2-0.7-0.1-1.2-0.5-1.7l-2-0.6
			v-1.3h0.9c-1.1-2.4-1.2-6.6-1.2-10.9l5.4-11c-2.4-1.8-3.8-4.5-4.1-7.9l-1.1-3.4C20.3,36,20.8,35.6,21.7,35.2z"/>
		<polygon fill="#FFFFFF" stroke="#000000" stroke-width="0.5" stroke-miterlimit="10" points="20.3,36.5 24,37.4 25.5,39.2 
			27.3,38.9 25.5,40.8 21.7,39.8 19.3,40.5 18.6,38 		"/>
		<path fill="#FFFFFF" stroke="#000000" stroke-width="0.5" stroke-miterlimit="10" d="M10.1,51.9c-0.2-1.3-0.4-2.8-0.6-4.2
			c-0.6,0.2-2.1,0.7-3.9,1.2l1.5,0.6l1.1,0.7c0.5,0.5,1.1,1.2,1.8,2V51.9z"/>
		<path fill="#FFFFFF" stroke="#000000" stroke-width="0.5" stroke-miterlimit="10" d="M16.5,35.2c-0.6-1.5-0.8-3.2-0.9-5.1
			c-0.7,1.2-1.2,2.3-1.3,3C14.5,33.8,15.1,34.5,16.5,35.2z"/>
		<path fill="#FFFFFF" stroke="#000000" stroke-width="0.5" stroke-miterlimit="10" d="M19.4,34.2c0.3-2.1,0.8-3.2,1.4-3.6
			c-0.6-0.3-1.1,0-1.7,0.9C18.6,32.7,18.8,33.5,19.4,34.2z"/>
	</g>
	<path fill="#FFFFFF" stroke="#000000" stroke-width="0.5" stroke-miterlimit="10" d="M28.2,97.7"/>
	<g>
		<path fill="#FFFFFF" stroke="#000000" stroke-width="0.5" stroke-miterlimit="10" d="M57.7,15.3C57.2,8.8,62,4.6,66.7,4.6
			c4.3,0,9.6,3.9,9.5,10.8L57.7,15.3z"/>
		<path fill="#FFFFFF" stroke="#000000" stroke-width="0.5" stroke-miterlimit="10" d="M71.5,16c-0.9-2.5-2.8-3.5-4.8-3.6
			c-2.3,0-4.1,1.3-4.8,3.6H71.5z"/>
		<path fill="#FFFFFF" stroke="#000000" stroke-width="0.5" stroke-miterlimit="10" d="M70.6,14.3l5-2.9L70.6,14.3z"/>
		<path fill="#FFFFFF" stroke="#000000" stroke-width="0.5" stroke-miterlimit="10" d="M72.5,6.8L68.9,13L72.5,6.8z"/>
		<path fill="#FFFFFF" stroke="#000000" stroke-width="0.5" stroke-miterlimit="10" d="M66.7,12.4l0-7.9L66.7,12.4z"/>
		<path fill="#FFFFFF" stroke="#000000" stroke-width="0.5" stroke-miterlimit="10" d="M64.5,12.9L61,6.8L64.5,12.9z"/>
		<path fill="#FFFFFF" stroke="#000000" stroke-width="0.5" stroke-miterlimit="10" d="M62.9,14.2l-4.8-2.7L62.9,14.2z"/>
	</g>
	<g>
	</g>
	<g>
	</g>
	<g>
	</g>
	<g>
	</g>
	<g>
	</g>
</g>
</svg>
