<?xml version="1.0" encoding="utf-8"?>
<!-- Generator: Adobe Illustrator 25.4.1, SVG Export Plug-In . SVG Version: 6.00 Build 0)  -->
<svg version="1.1" xmlns="http://www.w3.org/2000/svg" xmlns:xlink="http://www.w3.org/1999/xlink" x="0px" y="0px"
	 viewBox="0 0 80 80" style="enable-background:new 0 0 80 80;" xml:space="preserve">
<style type="text/css">
	.st0{fill:url(#SVGID_1_);stroke:url(#SVGID_00000110451980656152712380000013818552091526081469_);stroke-miterlimit:10;}
	.st1{fill:#FFFFFF;stroke:#000000;stroke-width:0.5;stroke-miterlimit:10;}
	.st2{fill:#1D1F2C;stroke:#5A5C69;stroke-width:0.5;stroke-miterlimit:10;}
	.st3{fill:none;stroke:#5A5C69;stroke-width:0.5;stroke-miterlimit:10;}
	.st4{fill:#363640;stroke:#000000;stroke-width:0.5;stroke-miterlimit:10;}
	.st5{fill:#31323E;stroke:#000000;stroke-width:0.5;stroke-miterlimit:10;}
	.st6{fill:#414254;}
	.st7{fill:#342E3C;stroke:#5A5C69;stroke-width:0.5;stroke-miterlimit:10;}
	.st8{fill:#414254;stroke:#000000;stroke-width:0.5;stroke-miterlimit:10;}
	.st9{fill:#A87B68;stroke:#000000;stroke-width:0.5;stroke-miterlimit:10;}
	.st10{fill:none;stroke:#000000;stroke-width:0.25;stroke-miterlimit:10;}
	.st11{fill:#D7BCBB;stroke:#000000;stroke-width:0.5;stroke-miterlimit:10;}
	.st12{stroke:#41445C;stroke-width:0.5;stroke-miterlimit:10;}
	.st13{fill:#58464A;}
	.st14{fill:#D7AC90;}
	.st15{fill:#FFFFFF;stroke:#000000;stroke-width:0.25;stroke-miterlimit:10;}
	.st16{fill:#562A40;stroke:#26091C;stroke-width:0.25;stroke-miterlimit:10;}
	.st17{fill:#0D3439;stroke:#001725;stroke-width:0.25;stroke-miterlimit:10;}
	.st18{fill:#94305E;stroke:#26091C;stroke-width:0.25;stroke-miterlimit:10;}
	.st19{fill:#B7496C;stroke:#26091C;stroke-width:0.25;stroke-miterlimit:10;}
	.st20{fill:none;}
</style>
<g id="Слой_2">
</g>
<g id="Слой_1">
	<linearGradient id="SVGID_1_" gradientUnits="userSpaceOnUse" x1="5.5396" y1="5.8007" x2="74.4604" y2="74.7216">
		<stop  offset="3.729453e-08" style="stop-color:#71277A"/>
		<stop  offset="1" style="stop-color:#F6558A"/>
	</linearGradient>
	
		<linearGradient id="SVGID_00000105408239468119666270000000852388320087566727_" gradientUnits="userSpaceOnUse" x1="5.186" y1="5.4472" x2="74.814" y2="75.0751">
		<stop  offset="1.340819e-02" style="stop-color:#71277A"/>
		<stop  offset="1" style="stop-color:#F6558A"/>
	</linearGradient>
	
		<path style="fill:url(#SVGID_1_);stroke:url(#SVGID_00000105408239468119666270000000852388320087566727_);stroke-miterlimit:10;" d="
		M67.2,77.5H12.8C6.8,77.5,2,72.7,2,66.7V13.8C2,7.9,6.8,3,12.8,3h54.3C73.2,3,78,7.9,78,13.8v52.9C78,72.7,73.2,77.5,67.2,77.5z"/>
	<path class="st1" d="M28.2,97.7"/>
	<g>
		<g>
			<path class="st2" d="M52.1,38.5l5.9,14c0,6-1.3,12.6-4.6,19.8c-0.4-6.3-2.5-10.8-6.2-13.4c2.9-5,3.7-8.9,0.6-11
				c-0.9-3.5-4.1-4.1-9.8-1.8c0-1.7-4.1-1.6-10.6-0.3c0.8-2-1-3.2-3.8-4.2l10.7-8.7L52.1,38.5z"/>
			<path class="st3" d="M47.7,47.9c0.8,0.2,1.7,0.2,2.6,0.6c2.1,0.9,4.5,1.6,6.6,1.2"/>
			<path class="st3" d="M47.1,58.9c3.6-0.1,7.1-1.7,10.2-8"/>
			<path class="st4" d="M53.1,39.5c2.1,4.3,3.7,8.5,4.7,12.3c0.7,0.8,1.3,1.7,1.6,2.6c0.1,1.3-0.4,1.4-1.1,1.3
				c0.4-0.2,0.8-0.4,0.5-1c0.2-1.1-0.6-1.6-1.2-2.1c-1.3-4.1-3.1-8.3-5.2-12.6L53.1,39.5z"/>
		</g>
		<g>
			<g>
				<path class="st5" d="M38.7,43h2.5c0,0,0.2,0.9,0.1,0.8c-0.3-0.1-5.2,3.4-4.8,3.6l0.6,0.9l-1.3,1.3c0.3-0.5,0.6-1,0.5-1.3
					c0-0.5-0.3-0.9-0.5-1.2c-0.2,0.6-0.4,1.1-0.5,1.4c-0.4,0.3-0.9,0.3-1.3,0.2c0.6-0.6,1.2-1.2,1.3-2c0-0.5-0.3-0.7-0.8-0.7l-0.5,0
					l1.1-0.8c0.4,0,0.7,0.3,0.7,0.9c0.9-0.3,2.3-1.6,3.1-2.3L38.7,43z"/>
				<path class="st5" d="M48,39.8c-3.6,3.7-7.3,5-11.3,3.7c-0.1,0.2-3.2-1.6-3.4-1.8c-0.2-0.4-7.1,0.9-6.9,1.3c0,0.6-0.1,1.3,0,1.9
					c-0.4,0.4-0.9,0.6-1.4,0.6l0.6-0.8c0.3-0.4,0.3-0.9,0.1-1.4c-0.3,0.4-0.7,0.8-1.3,1h-1.1l0.9-0.9c0.4,0.1,0.7,0,1.1-0.3
					c0.3-0.3,0.2-0.6-0.1-1l1,0.1l5.8-1.9c0-2,1.6-4.6,3-5.8l6.4-0.6L48,39.8z"/>
			</g>
			<ellipse class="st6" cx="40.4" cy="37.5" rx="5.5" ry="4"/>
		</g>
		<g>
			<path class="st7" d="M30.8,31.6c-3,4-7.5,6.3-13,7.5c-1.7,6.2-4.9,9.9-10.4,10c-0.3,11.6,2.9,17.7,6.5,23.1
				c-1.4-17.4,7.7-29.7,21.2-38.7L30.8,31.6z"/>
			<path class="st4" d="M35.1,34.7c-2.6,1.5-4.7,3.4-7,5.1c-3.6,2.5-6.4,7.8-6.7,11.9c-0.1,0.8-0.6,1.3-0.7,1.5
				c-0.6,0.1-1,0-1.2-0.4c-0.6-1-0.5-2.2,0.6-2.6c-0.3,0.6-0.3,1.2,0,1.7c0.1,0,0.4,0.1,0.4-0.1c0.1-0.6,0.4-1.4,0.6-2.4
				c0.8-3.4,3.5-7.9,6.9-10.6c1.9-1.5,3.9-3.3,6.5-4.9L35.1,34.7z"/>
			<path class="st3" d="M7.4,49.1c5.7-0.9,10.6-1.9,14.4-3.3"/>
			<path class="st3" d="M17.8,39.1c1.8,2.3,3.5,4.2,5.1,5.1"/>
		</g>
		<g>
			<g>
				<path class="st8" d="M68,25.6c-1.8,1.4-6.4,2.6-10.9,3.8l1.7,4.7l7.4-5.2L68,25.6z"/>
				<path class="st9" d="M58.5,35.4c1,0.5,2.1,0.7,3.5,0.1c4-2.4,5.3-6.3,6.2-10.2c-1.9,0.9-5.5,4.9-9,8.9L58.5,35.4z"/>
				<path class="st10" d="M61.2,32c0.5,0,1,0.3,1.3,0.8"/>
			</g>
			<path class="st11" d="M39.4,34.7c2.4,2.8,5.5,5.2,10.4,6.5c8.3-2,11.7-6.4,10.5-13c0.5-5.4-5.9-8.7-13.4-11.6l-8.7,8.6l-2.1,2.4
				l0.7,3.1C37.6,32.4,38.5,33.7,39.4,34.7z"/>
			<g>
				<path class="st6" d="M27.6,23.8c4.1,1.9,7.7,3,10.4,2.7l1,4.2C27.8,30.4,29.7,28.3,27.6,23.8z"/>
				<g>
					<path class="st9" d="M27.2,24.2c1.3,7.9,5.3,11.7,12.2,10.5c-1-1.2-1.9-2.6-2.5-4c-0.5,0.1-2.1-0.5-3.4-1.7
						c-2.9-2.6-6.3-5.4-5.8-5.2c0.1,0.1-0.2,0-0.3,0.1C27.3,23.9,27.2,24,27.2,24.2z"/>
					<path class="st10" d="M33.4,28.9c-1.3-0.1-2.3,0-2.6,0.3C31.3,28.9,32.1,28.8,33.4,28.9z"/>
					<path class="st10" d="M35.2,30.2c-1.5-0.1-2.7-0.1-3,0.4C32.6,30.1,33.7,30,35.2,30.2z"/>
					<path class="st10" d="M36.2,30.5c-1.1,0.6-1.9,1.2-2,1.7C34.3,31.6,35,31.1,36.2,30.5z"/>
				</g>
			</g>
			<path class="st12" d="M67.3,35c-6.9-7.1-13.7-13.1-20.2-15.3c1.4,2.6,2.3,4.5,1.5,4.6c-1.1,0.1-2.8-1.3-4.8-3
				c-1.6,1.5-2.2,4.1-2.5,7c-0.6,0.6-1.2-1.3-1.8-4.7l-0.3,7.3c0,0.4-0.5,0.6-0.8,0.3c-0.1-0.1-0.3-0.3-0.4-0.5
				c-0.6-0.9-1.2-2.3-1.6-4.2c-0.1-0.6-0.3-1.2-0.4-1.8v1.8c-1.4-0.1-2.9-0.5-4.6-1.1c1-3.8,2.7-7,6.6-7.9c-2-0.4-4.3,1-6.8,2.7
				c1.6-3.4,3.8-5.7,8.1-4.5c-0.8-1.2-1.2-2.4-1.3-3.6c-0.2-2.6,2.2-5.3,2.7-5.3c0.1,0,0.5,0.6,0.2,1.4c-0.6,1.8-0.6,4.7-0.3,5.7
				c0,0.2,0.3,0.2,0.4,0c0.7-1.7,1.4-3.2,2.6-4.5c2.8-1.8,4.6-2.1,5.9-1.7c0.2,0.1,0.2,0.4,0,0.5c-3.6,1.6-5.7,3.8-6.7,6.5
				c8-5.8,15.2-6.8,21.1,0.1c0.5,0.9-1.4,0.8-5.5-0.3c-0.1,0-0.2,0.1-0.1,0.2c5.6,3.1,8.4,7.1,8.8,11.7c0,0.2-0.3,0.4-0.4,0.2
				l-5.9-5.5c3.1,3.2,5.4,7.6,6.9,13.6C67.9,35,67.5,35.2,67.3,35z"/>
			<path class="st10" d="M52.3,34.4c1-0.7,1.9-0.9,2.5,0.2"/>
			<path class="st10" d="M44.4,33.8c1.6,0.4,3.2,0.3,4.7-0.7"/>
			<path class="st10" d="M56.2,34.7c0.9,0.5,2.7,0.4,2.6-0.3"/>
			<g>
				<ellipse class="st13" cx="46.5" cy="29.5" rx="3.6" ry="4"/>
				<g>
					<ellipse class="st14" cx="46.5" cy="29.7" rx="2.8" ry="3.2"/>
					<path d="M49.3,29.7c0,0.8-0.3,1.6-0.8,2.2c-0.5,0.6-1.3,1.1-2.1,1.1c-0.8,0-1.7-0.4-2.2-1c-0.5-0.6-0.8-1.5-0.8-2.3
						c0-0.8,0.2-1.7,0.8-2.4c0.5-0.7,1.4-1.1,2.3-1.1c0.9,0,1.7,0.5,2.2,1.2C49.1,28.1,49.4,28.9,49.3,29.7z M49.3,29.7
						c0-0.8-0.3-1.6-0.9-2.1c-0.5-0.6-1.2-0.9-2-0.9c-1.5,0-2.6,1.5-2.6,3c0,0.8,0.2,1.5,0.7,2.1c0.5,0.6,1.2,1,1.9,1
						c0.8,0,1.5-0.3,2-0.9C49,31.3,49.3,30.5,49.3,29.7z"/>
				</g>
				<ellipse transform="matrix(0.2151 -0.9766 0.9766 0.2151 8.7974 70.0486)" cx="48" cy="29.6" rx="0.5" ry="0.4"/>
			</g>
			<g>
				
					<ellipse transform="matrix(0.3064 -0.9519 0.9519 0.3064 10.172 76.8369)" class="st13" cx="57.8" cy="31.4" rx="3.4" ry="2.2"/>
				<g>
					
						<ellipse transform="matrix(0.3064 -0.9519 0.9519 0.3064 10.087 76.8779)" class="st14" cx="57.8" cy="31.5" rx="2.6" ry="1.7"/>
					<path d="M56.2,31c-0.2,0.5-0.2,1.1-0.1,1.7c0.1,0.5,0.4,1.1,0.9,1.2c0.5,0.1,1-0.1,1.4-0.5c0.4-0.4,0.6-0.9,0.8-1.4
						c0.1-0.5,0.2-1.1,0.1-1.6c-0.1-0.5-0.4-1-0.8-1.1c-0.4-0.1-0.9,0-1.4,0.4C56.7,30,56.4,30.5,56.2,31z M56.2,31
						c0.2-0.5,0.4-1.1,0.8-1.5c0.4-0.4,1-0.9,1.7-0.7c0.7,0.2,1,0.9,1.1,1.5c0.1,0.6,0,1.2-0.2,1.8c-0.2,0.6-0.5,1.1-0.9,1.5
						c-0.4,0.4-1.1,0.7-1.7,0.5c-0.6-0.2-0.9-0.9-1-1.4C55.9,32.1,56,31.5,56.2,31z"/>
				</g>
				<ellipse transform="matrix(0.3064 -0.9519 0.9519 0.3064 10.1956 76.4715)" cx="57.6" cy="31.2" rx="0.6" ry="0.4"/>
			</g>
			<path class="st10" d="M43.9,34.9c2.7,1.9,5.3,3.4,7.8,3.2c2.3-0.2,4.4-0.9,6.1-1.9"/>
			<line class="st10" x1="43.5" y1="35" x2="44.3" y2="34.9"/>
			<line class="st10" x1="57.1" y1="36.2" x2="57.9" y2="36.2"/>
			<path class="st15" d="M55,37.5c0,0.3,0,0.6,0,1c0.3,0,0.6-0.4,1-1.3L55,37.5z"/>
			<path class="st15" d="M46.6,37.6c-0.4-0.2-0.6-0.8-0.8-1.4l1.2,0.7C46.8,37,46.7,37.3,46.6,37.6z"/>
			<g>
				<path class="st16" d="M38.7,38.5c0.1,0,0.1-0.1,0.2-0.1c2.1-0.9,4.4-1.7,6.9-2.3l-0.9-0.6c-2.3,0.7-4.2,1.4-5.8,1.8l0,0l-0.5,1"
					/>
				
					<ellipse transform="matrix(0.2746 -0.9616 0.9616 0.2746 -8.2725 64.8063)" class="st16" cx="38.8" cy="37.9" rx="0.6" ry="0.3"/>
			</g>
			<g>
				<path class="st16" d="M56,37.1l0.5-0.2c1.8,0.5,4,1.2,6.4,2.2l-0.5,0.6c-2-0.8-4.3-1.6-6.7-2.4L56,37.1z"/>
				<path class="st17" d="M63,36.3c0.6-0.4,1.1-0.8,1.7-1.2c0,0.7-0.2,1.5-0.6,2.6c0,0.1,0.1,0.2,0.2,0.1l1.2-1
					c-0.4,1.3-0.7,2.1-0.8,2.6l-1.1,1.5c-0.3,1.2-0.7,2.2-1,2.6c-0.2,0.3-0.5-0.4-0.8-2.1c0-0.1-0.2-0.2-0.3,0
					c-0.4,0.7-0.7,1.2-0.9,1.6c-0.3,0.2-0.8,0.3-1.3,0.3c1.2-1.9,2.5-4,2.7-5.4c0,0,0.6,0.7,0.6,0.7C62.9,39,63.2,36.5,63,36.3z"/>
				<path class="st18" d="M63,39.5c0.8-0.4,2.7-1,5.1-1.6v0.9l6,1.5l-1.6,3.9c0,0-6.8-0.9-6.8-0.9c-0.2,0.2-3.6-2.1-3.5-2.3
					C62.4,40.4,62.5,39.9,63,39.5z"/>
				
					<ellipse transform="matrix(0.3481 -0.9375 0.9375 0.3481 8.1584 96.3161)" class="st19" cx="73.3" cy="42.3" rx="2.1" ry="0.4"/>
				<path class="st19" d="M64.3,41.1l3.9-4.5l4.1,1.7l-2.6,1l-1.4-0.4l1.5-0.8l-3.7,2.2L66,39.7l1.4,7C66.3,44.5,65,42.1,64.3,41.1
					l1.2,5.2l0.1-2.9L64.3,41.1z"/>
			</g>
		</g>
		<path class="st20" d="M21.7,46.7"/>
	</g>
	<g>
	</g>
	<g>
	</g>
	<g>
	</g>
	<g>
	</g>
	<g>
	</g>
</g>
</svg>
