<?xml version="1.0" encoding="utf-8"?>
<!-- Generator: Adobe Illustrator 25.4.1, SVG Export Plug-In . SVG Version: 6.00 Build 0)  -->
<svg version="1.1" id="Слой_1" xmlns="http://www.w3.org/2000/svg" xmlns:xlink="http://www.w3.org/1999/xlink" x="0px" y="0px"
	 viewBox="0 0 800 800" style="enable-background:new 0 0 800 800;" xml:space="preserve">
<style type="text/css">
	.st0{fill:none;stroke:#000100;stroke-width:46;stroke-linecap:round;stroke-linejoin:round;stroke-miterlimit:133.3333;}
	.st1{fill:none;stroke:#323231;stroke-width:50;stroke-linecap:round;stroke-miterlimit:133.3333;}
	.st2{fill:none;stroke:#323231;stroke-width:50;stroke-linecap:round;stroke-linejoin:round;stroke-miterlimit:133.3333;}
</style>
<path class="st0" d="M172.7,303h422.8"/>
<path class="st0" d="M328.5,570.1h-63.4c-51,0-92.4-41.4-92.4-92.4V284.1c0-51,41.4-92.4,92.4-92.4h238c51,0,92.4,41.4,92.4,92.4
	v63.4"/>
<path class="st0" d="M306.3,169.5V214"/>
<circle class="st0" cx="506.6" cy="503.3" r="111.3"/>
<path class="st1" d="M333.3,73.3c17.9-3.6,36.4-5.8,55.3-6.5c195.3-6.6,351.7,150.3,344.5,345.6c-6.4,174.2-146.5,314.3-320.7,320.7
	C217.2,740.3,60.3,583.9,66.9,388.6c0.6-18.9,2.8-37.3,6.5-55.3"/>
<path class="st2" d="M172.7,42.5v233.3 M172.7,275.9l-83.3-83.3 M172.7,275.9l83.3-83.3"/>
<path class="st0" d="M462,169.5V214"/>
<path class="st0" d="M539.9,473.1l-33.4,33.4"/>
</svg>
