<?xml version="1.0" encoding="utf-8"?>
<!-- Generator: Adobe Illustrator 25.4.1, SVG Export Plug-In . SVG Version: 6.00 Build 0)  -->
<svg version="1.1" xmlns="http://www.w3.org/2000/svg" xmlns:xlink="http://www.w3.org/1999/xlink" x="0px" y="0px"
	 viewBox="0 0 300 300" style="enable-background:new 0 0 300 300;" xml:space="preserve">
<style type="text/css">
	.st0{fill:#C6AF00;}
</style>
<g id="Слой_1">
</g>
<g id="Слой_2">
</g>
<g id="Слой_3">
	<g>
		<path class="st0" d="M148.54,36c30.67,21.13,64.05,35.35,101.26,43.11c1.05,49.21-7.3,89.95-24.88,121.28
			c-16.9,30.12-42.2,52.25-77.21,67.46c-35.4-14.46-60.87-37.28-77.72-69.55c-16.15-30.94-24.18-71.05-23.95-119.4
			C79.16,71.11,116.88,58.94,148.54,36 M147.98,9.58C115.7,38.09,71.03,52.46,25.43,61.94c-4.78,117.26,33.1,196.11,122.55,228.52
			c83.6-32.79,129.71-103.65,122.1-229.03C221.12,53.99,181.42,35.51,147.98,9.58L147.98,9.58z"/>
	</g>
	<g>
		<g>
			<path class="st0" d="M186.14,130.1h-76.32c-4.4,0-8,3.6-8,8v54.07c0,4.4,3.6,8,8,8h76.32c4.4,0,8-3.6,8-8V138.1
				C194.14,133.7,190.54,130.1,186.14,130.1z M155.1,183.38h-14.24l2.7-18.05c-1.69-0.86-3.09-2.19-4.03-3.83
				c-0.84-1.43-1.31-3.1-1.31-4.87c0-1.76,0.46-3.41,1.28-4.83c1.41-2.48,3.88-4.27,6.8-4.77c0.55-0.1,1.11-0.15,1.68-0.15
				s1.13,0.05,1.68,0.15c2.92,0.5,5.39,2.29,6.8,4.77c0.82,1.42,1.28,3.07,1.28,4.83c0,1.77-0.47,3.44-1.31,4.87
				c-0.94,1.64-2.34,2.97-4.03,3.83L155.1,183.38z"/>
		</g>
	</g>
	<g>
		<g>
			<path class="st0" d="M156.49,87.22h-17.03c-15.55,0-28.16,12.61-28.16,28.17v7.13h9.02v-7.39c0-10.22,8.29-18.52,18.52-18.52
				h18.15c10.23,0,18.52,8.3,18.52,18.52v18.15c0,10.22-8.29,18.52-18.52,18.52h-0.53c0.82,1.42,1.28,3.07,1.28,4.83
				c0,1.77-0.47,3.44-1.31,4.87h0.06c15.56,0,28.17-12.61,28.17-28.16v-17.95C184.66,99.84,172.05,87.22,156.49,87.22z M139.5,151.8
				h-0.65c-10.23,0-18.53-8.3-18.53-18.52v-3.18h-9.02v3.24c0,15.56,12.61,28.16,28.16,28.16h0.07c-0.84-1.43-1.31-3.1-1.31-4.87
				C138.22,154.87,138.68,153.22,139.5,151.8z"/>
		</g>
	</g>
</g>
</svg>
