<?xml version="1.0" encoding="utf-8"?>
<!-- Generator: Adobe Illustrator 25.4.1, SVG Export Plug-In . SVG Version: 6.00 Build 0)  -->
<svg version="1.1" xmlns="http://www.w3.org/2000/svg" xmlns:xlink="http://www.w3.org/1999/xlink" x="0px" y="0px"
	 viewBox="0 0 300 300" style="enable-background:new 0 0 300 300;" xml:space="preserve">
<style type="text/css">
	.st0{fill:#C3312A;}
</style>
<g id="Слой_1">
</g>
<g id="Слой_2">
</g>
<g id="Слой_3">
	<g>
		<path class="st0" d="M148.54,36c30.67,21.13,64.05,35.35,101.26,43.11c1.05,49.21-7.3,89.95-24.88,121.28
			c-16.9,30.12-42.2,52.25-77.21,67.46c-35.4-14.46-60.87-37.28-77.72-69.55c-16.15-30.94-24.18-71.05-23.95-119.4
			C79.16,71.11,116.88,58.94,148.54,36 M147.98,9.58C115.7,38.09,71.03,52.46,25.43,61.94c-4.78,117.26,33.1,196.11,122.55,228.52
			c83.6-32.79,129.71-103.65,122.1-229.03C221.12,53.99,181.42,35.51,147.98,9.58L147.98,9.58z"/>
	</g>
	<g>
		<path class="st0" d="M209.89,91.5c-7.42-13.68-24.51-18.76-38.18-11.34l-14.97,8.12c-13.68,7.41-18.76,24.51-11.34,38.19
			l7.02,12.93l-57.79,31.34c-3.87,2.1-5.32,6.98-3.22,10.85l25.77,47.52c2.1,3.87,6.98,5.31,10.85,3.22l67.09-36.39
			c3.86-2.1,5.31-6.98,3.21-10.84l-25.77-47.53c-2.1-3.86-6.98-5.31-10.84-3.21l-1.26,0.68l-7.14-13.16
			c-4.87-8.99-1.54-20.23,7.45-25.11l15.96-8.65c8.99-4.88,20.23-1.55,25.11,7.45l3.52,6.49l7.93-4.3L209.89,91.5z M159.83,195.99
			l-12.52,6.79l-6.23-17.16c-3.55,0.1-7.03-1.76-8.84-5.1c-2.3-4.23-1.13-9.41,2.53-12.29c0.43-0.35,0.9-0.66,1.4-0.93
			s1.02-0.5,1.55-0.67c4.41-1.49,9.38,0.35,11.68,4.59c1.81,3.34,1.47,7.26-0.55,10.19L159.83,195.99z"/>
	</g>
</g>
</svg>
