<?xml version="1.0" encoding="utf-8"?>
<!-- Generator: Adobe Illustrator 25.4.1, SVG Export Plug-In . SVG Version: 6.00 Build 0)  -->
<svg version="1.1" xmlns="http://www.w3.org/2000/svg" xmlns:xlink="http://www.w3.org/1999/xlink" x="0px" y="0px"
	 viewBox="0 0 300 300" style="enable-background:new 0 0 300 300;" xml:space="preserve">
<style type="text/css">
	.st0{display:none;}
	.st1{fill:#52AE33;}
</style>
<g id="Слой_1" class="st0">
</g>
<g id="Слой_2" class="st0">
</g>
<g id="Слой_3">
	<g>
		<path class="st1" d="M148.54,36c30.67,21.13,64.05,35.35,101.26,43.11c1.05,49.21-7.3,89.95-24.88,121.28
			c-16.9,30.12-42.2,52.25-77.21,67.46c-35.4-14.46-60.87-37.28-77.72-69.55c-16.15-30.94-24.18-71.05-23.95-119.4
			C79.16,71.11,116.88,58.94,148.54,36 M147.98,9.58C115.7,38.09,71.03,52.46,25.43,61.94c-4.78,117.26,33.1,196.11,122.55,228.52
			c83.6-32.79,129.71-103.65,122.1-229.03C221.12,53.99,181.42,35.51,147.98,9.58L147.98,9.58z"/>
	</g>
	<g>
		<g>
			<path class="st1" d="M186.14,130.1h-76.32c-4.4,0-8,3.6-8,8v54.07c0,4.4,3.6,8,8,8h76.32c4.4,0,8-3.6,8-8V138.1
				C194.14,133.7,190.54,130.1,186.14,130.1z M142.18,183.38h-14.24l2.7-18.05c-3-1.52-5.1-4.55-5.31-8.09
				c-0.02-0.2-0.03-0.41-0.03-0.61c0-3.26,1.59-6.13,4.04-7.9c1.17-0.85,2.55-1.45,4.04-1.7c0.55-0.1,1.11-0.15,1.68-0.15
				s1.13,0.05,1.68,0.15c2.73,0.47,5.08,2.08,6.52,4.32c0.99,1.52,1.56,3.33,1.56,5.28c0,1.59-0.38,3.09-1.06,4.42
				c-0.93,1.84-2.44,3.34-4.28,4.28L142.18,183.38z M168.01,183.38h-14.24l2.7-18.05c-1.84-0.94-3.35-2.44-4.28-4.28
				c-0.68-1.33-1.06-2.83-1.06-4.42c0-1.95,0.57-3.76,1.56-5.28c1.44-2.24,3.79-3.85,6.52-4.32c0.55-0.1,1.11-0.15,1.68-0.15
				s1.13,0.05,1.68,0.15c1.47,0.25,2.82,0.83,3.99,1.67c2.48,1.76,4.09,4.65,4.09,7.93c0,0.2-0.01,0.41-0.03,0.61
				c-0.21,3.54-2.31,6.57-5.31,8.09L168.01,183.38z"/>
		</g>
	</g>
	<g>
		<g>
			<path class="st1" d="M156.49,86.77h-17.03c-15.55,0-28.16,12.61-28.16,28.17v17.95c0,10.4,5.64,19.49,14.03,24.35
				c-0.02-0.2-0.03-0.41-0.03-0.61c0-3.26,1.59-6.13,4.04-7.9c-5.4-3.24-9.02-9.15-9.02-15.9v-18.15c0-10.23,8.3-18.52,18.53-18.52
				h18.14c10.23,0,18.52,8.29,18.52,18.52v18.15c0,6.72-3.59,12.62-8.95,15.87c2.48,1.76,4.09,4.65,4.09,7.93
				c0,0.2-0.01,0.41-0.03,0.61c8.4-4.86,14.04-13.95,14.04-24.35v-17.95C184.66,99.38,172.05,86.77,156.49,86.77z M143.26,151.35
				c0.99,1.52,1.56,3.33,1.56,5.28c0,1.59-0.38,3.09-1.06,4.42h8.43c-0.68-1.33-1.06-2.83-1.06-4.42c0-1.95,0.57-3.76,1.56-5.28
				H143.26z"/>
		</g>
	</g>
</g>
</svg>
